MonaSans-ExtraLightItalic.ufo
<glyph name="exclam" format="2">
  <advance width="228"/>
  <unicode hex="0021"/>
  <outline>
    <contour>
      <point x="89" y="186" type="line"/>
      <point x="109" y="186" type="line"/>
      <point x="183" y="493" type="line"/>
      <point x="232" y="729" type="line"/>
      <point x="193" y="729" type="line"/>
      <point x="144" y="493" type="line"/>
    </contour>
    <contour>
      <point x="64" y="-7" type="curve" smooth="yes"/>
      <point x="82" y="-7"/>
      <point x="95" y="4"/>
      <point x="95" y="23" type="curve" smooth="yes"/>
      <point x="95" y="40"/>
      <point x="83" y="51"/>
      <point x="66" y="51" type="curve" smooth="yes"/>
      <point x="48" y="51"/>
      <point x="35" y="40"/>
      <point x="35" y="21" type="curve" smooth="yes"/>
      <point x="35" y="4"/>
      <point x="47" y="-7"/>
    </contour>
  </outline>
</glyph>
<glyph name="numbersign" format="2">
  <advance width="633"/>
  <unicode hex="0023"/>
  <outline>
    <contour>
      <point x="142" y="0" type="line"/>
      <point x="174" y="0" type="line"/>
      <point x="224" y="245" type="line"/>
      <point x="409" y="245" type="line"/>
      <point x="359" y="0" type="line"/>
      <point x="391" y="0" type="line"/>
      <point x="441" y="245" type="line"/>
      <point x="598" y="245" type="line"/>
      <point x="604" y="273" type="line"/>
      <point x="447" y="273" type="line"/>
      <point x="490" y="480" type="line"/>
      <point x="647" y="480" type="line"/>
      <point x="653" y="507" type="line"/>
      <point x="496" y="507" type="line"/>
      <point x="541" y="729" type="line"/>
      <point x="509" y="729" type="line"/>
      <point x="464" y="507" type="line"/>
      <point x="279" y="507" type="line"/>
      <point x="324" y="729" type="line"/>
      <point x="292" y="729" type="line"/>
      <point x="247" y="507" type="line"/>
      <point x="84" y="507" type="line"/>
      <point x="78" y="480" type="line"/>
      <point x="241" y="480" type="line"/>
      <point x="198" y="273" type="line"/>
      <point x="35" y="273" type="line"/>
      <point x="29" y="245" type="line"/>
      <point x="192" y="245" type="line"/>
    </contour>
    <contour>
      <point x="230" y="273" type="line"/>
      <point x="273" y="480" type="line"/>
      <point x="458" y="480" type="line"/>
      <point x="415" y="273" type="line"/>
    </contour>
  </outline>
</glyph>
<glyph name="dollar" format="2">
  <advance width="633"/>
  <unicode hex="0024"/>
  <outline>
    <contour>
      <point x="305" y="9" type="curve" smooth="yes"/>
      <point x="442" y="9"/>
      <point x="555" y="91"/>
      <point x="555" y="212" type="curve" smooth="yes"/>
      <point x="555" y="314"/>
      <point x="502" y="361"/>
      <point x="363" y="392" type="curve" smooth="yes"/>
      <point x="234" y="420"/>
      <point x="181" y="462"/>
      <point x="181" y="533" type="curve" smooth="yes"/>
      <point x="181" y="626"/>
      <point x="264" y="684"/>
      <point x="372" y="684" type="curve" smooth="yes"/>
      <point x="486" y="684"/>
      <point x="561" y="620"/>
      <point x="559" y="521" type="curve"/>
      <point x="598" y="521" type="line"/>
      <point x="602" y="645"/>
      <point x="511" y="721"/>
      <point x="377" y="721" type="curve" smooth="yes"/>
      <point x="239" y="721"/>
      <point x="139" y="645"/>
      <point x="139" y="528" type="curve" smooth="yes"/>
      <point x="139" y="438"/>
      <point x="198" y="393"/>
      <point x="356" y="355" type="curve" smooth="yes"/>
      <point x="466" y="329"/>
      <point x="514" y="292"/>
      <point x="514" y="210" type="curve" smooth="yes"/>
      <point x="514" y="115"/>
      <point x="429" y="44"/>
      <point x="300" y="44" type="curve" smooth="yes"/>
      <point x="175" y="44"/>
      <point x="95" y="109"/>
      <point x="98" y="231" type="curve"/>
      <point x="59" y="231" type="line"/>
      <point x="51" y="97"/>
      <point x="137" y="9"/>
    </contour>
    <contour>
      <point x="219" y="-85" type="line"/>
      <point x="252" y="-85" type="line"/>
      <point x="276" y="33" type="line"/>
      <point x="243" y="33" type="line"/>
    </contour>
    <contour>
      <point x="383" y="705" type="line"/>
      <point x="416" y="705" type="line"/>
      <point x="438" y="814" type="line"/>
      <point x="405" y="814" type="line"/>
    </contour>
  </outline>
</glyph>
<glyph name="percent" format="2">
  <advance width="767"/>
  <unicode hex="0025"/>
  <outline>
    <contour>
      <point x="81" y="0" type="line"/>
      <point x="126" y="0" type="line"/>
      <point x="734" y="729" type="line"/>
      <point x="689" y="729" type="line"/>
    </contour>
    <contour>
      <point x="228" y="360" type="curve" smooth="yes"/>
      <point x="321" y="360"/>
      <point x="385" y="453"/>
      <point x="390" y="593" type="curve" smooth="yes"/>
      <point x="394" y="673"/>
      <point x="350" y="729"/>
      <point x="280" y="729" type="curve" smooth="yes"/>
      <point x="187" y="729"/>
      <point x="123" y="636"/>
      <point x="118" y="496" type="curve" smooth="yes"/>
      <point x="114" y="416"/>
      <point x="158" y="360"/>
    </contour>
    <contour>
      <point x="228" y="392" type="curve" smooth="yes"/>
      <point x="180" y="392"/>
      <point x="151" y="432"/>
      <point x="154" y="494" type="curve" smooth="yes"/>
      <point x="159" y="617"/>
      <point x="209" y="697"/>
      <point x="280" y="697" type="curve" smooth="yes"/>
      <point x="328" y="697"/>
      <point x="357" y="657"/>
      <point x="354" y="595" type="curve" smooth="yes"/>
      <point x="349" y="472"/>
      <point x="299" y="392"/>
    </contour>
    <contour>
      <point x="529" y="-10" type="curve" smooth="yes"/>
      <point x="622" y="-10"/>
      <point x="686" y="83"/>
      <point x="691" y="223" type="curve" smooth="yes"/>
      <point x="695" y="303"/>
      <point x="651" y="359"/>
      <point x="581" y="359" type="curve" smooth="yes"/>
      <point x="488" y="359"/>
      <point x="424" y="266"/>
      <point x="419" y="126" type="curve" smooth="yes"/>
      <point x="415" y="46"/>
      <point x="459" y="-10"/>
    </contour>
    <contour>
      <point x="529" y="22" type="curve" smooth="yes"/>
      <point x="481" y="22"/>
      <point x="452" y="62"/>
      <point x="455" y="124" type="curve" smooth="yes"/>
      <point x="460" y="247"/>
      <point x="510" y="327"/>
      <point x="581" y="327" type="curve" smooth="yes"/>
      <point x="629" y="327"/>
      <point x="658" y="287"/>
      <point x="655" y="225" type="curve" smooth="yes"/>
      <point x="650" y="102"/>
      <point x="600" y="22"/>
    </contour>
  </outline>
</glyph>
<glyph name="ampersand" format="2">
  <advance width="778"/>
  <unicode hex="0026"/>
  <outline>
    <contour>
      <point x="636" y="-6" type="curve" smooth="yes"/>
      <point x="651" y="-6"/>
      <point x="665" y="-4"/>
      <point x="676" y="0" type="curve"/>
      <point x="685" y="38" type="line"/>
      <point x="674" y="33"/>
      <point x="659" y="31"/>
      <point x="645" y="31" type="curve" smooth="yes"/>
      <point x="578" y="31"/>
      <point x="534" y="65"/>
      <point x="463" y="170" type="curve" smooth="yes"/>
      <point x="330" y="366" type="line" smooth="yes"/>
      <point x="248" y="487"/>
      <point x="240" y="532"/>
      <point x="240" y="572" type="curve" smooth="yes"/>
      <point x="240" y="655"/>
      <point x="294" y="706"/>
      <point x="370" y="706" type="curve" smooth="yes"/>
      <point x="434" y="706"/>
      <point x="478" y="664"/>
      <point x="478" y="599" type="curve" smooth="yes"/>
      <point x="478" y="511"/>
      <point x="411" y="458"/>
      <point x="282" y="407" type="curve"/>
      <point x="299" y="381" type="line"/>
      <point x="440" y="435"/>
      <point x="514" y="505"/>
      <point x="514" y="600" type="curve" smooth="yes"/>
      <point x="514" y="684"/>
      <point x="455" y="739"/>
      <point x="370" y="739" type="curve" smooth="yes"/>
      <point x="274" y="739"/>
      <point x="204" y="670"/>
      <point x="204" y="573" type="curve" smooth="yes"/>
      <point x="204" y="522"/>
      <point x="217" y="467"/>
      <point x="311" y="330" type="curve" smooth="yes"/>
      <point x="437" y="146" type="line" smooth="yes"/>
      <point x="510" y="40"/>
      <point x="559" y="-6"/>
    </contour>
    <contour>
      <point x="229" y="-9" type="curve" smooth="yes"/>
      <point x="325" y="-9"/>
      <point x="416" y="27"/>
      <point x="476" y="112" type="curve"/>
      <point x="452" y="135" type="line"/>
      <point x="401" y="63"/>
      <point x="327" y="24"/>
      <point x="233" y="24" type="curve" smooth="yes"/>
      <point x="142" y="24"/>
      <point x="80" y="72"/>
      <point x="80" y="166" type="curve" smooth="yes"/>
      <point x="80" y="252"/>
      <point x="130" y="320"/>
      <point x="290" y="382" type="curve"/>
      <point x="274" y="411" type="line"/>
      <point x="129" y="356"/>
      <point x="43" y="280"/>
      <point x="43" y="165" type="curve" smooth="yes"/>
      <point x="43" y="58"/>
      <point x="117" y="-9"/>
    </contour>
    <contour>
      <point x="480" y="118" type="line"/>
      <point x="523" y="175"/>
      <point x="559" y="259"/>
      <point x="575" y="320" type="curve"/>
      <point x="692" y="318" type="line"/>
      <point x="695" y="355" type="line"/>
      <point x="545" y="355" type="line"/>
      <point x="540" y="326" type="line"/>
      <point x="522" y="256"/>
      <point x="490" y="189"/>
      <point x="455" y="138" type="curve"/>
    </contour>
  </outline>
</glyph>
<glyph name="quotesingle" format="2">
  <advance width="166"/>
  <unicode hex="0027"/>
  <anchor x="2" y="0" name="#entry"/>
  <anchor x="162" y="0" name="#exit"/>
  <outline>
    <contour>
      <point x="121" y="492" type="line"/>
      <point x="141" y="492" type="line"/>
      <point x="175" y="623" type="line"/>
      <point x="197" y="729" type="line"/>
      <point x="164" y="729" type="line"/>
      <point x="142" y="623" type="line"/>
    </contour>
  </outline>
</glyph>
<glyph name="parenleft" format="2">
  <advance width="325"/>
  <unicode hex="0028"/>
  <outline>
    <contour>
      <point x="166" y="-167" type="curve"/>
      <point x="201" y="-167" type="line"/>
      <point x="112" y="-55"/>
      <point x="75" y="133"/>
      <point x="113" y="329" type="curve" smooth="yes"/>
      <point x="148" y="509"/>
      <point x="250" y="696"/>
      <point x="389" y="793" type="curve"/>
      <point x="349" y="793" type="line"/>
      <point x="208" y="690"/>
      <point x="111" y="510"/>
      <point x="76" y="330" type="curve" smooth="yes"/>
      <point x="40" y="144"/>
      <point x="71" y="-49"/>
    </contour>
  </outline>
</glyph>
<glyph name="asterisk" format="2">
  <advance width="309"/>
  <unicode hex="002A"/>
  <outline>
    <contour>
      <point x="184" y="453" type="line"/>
      <point x="213" y="453" type="line"/>
      <point x="223" y="512" type="line"/>
      <point x="226" y="580" type="line"/>
      <point x="275" y="540" type="line"/>
      <point x="321" y="510" type="line"/>
      <point x="338" y="535" type="line"/>
      <point x="293" y="565" type="line"/>
      <point x="239" y="592" type="line"/>
      <point x="303" y="619" type="line"/>
      <point x="357" y="647" type="line"/>
      <point x="348" y="672" type="line"/>
      <point x="293" y="644" type="line"/>
      <point x="231" y="605" type="line"/>
      <point x="250" y="672" type="line"/>
      <point x="260" y="729" type="line"/>
      <point x="231" y="729" type="line"/>
      <point x="221" y="672" type="line"/>
      <point x="219" y="605" type="line"/>
      <point x="171" y="644" type="line"/>
      <point x="125" y="672" type="line"/>
      <point x="108" y="647" type="line"/>
      <point x="152" y="619" type="line"/>
      <point x="207" y="592" type="line"/>
      <point x="143" y="565" type="line"/>
      <point x="87" y="535" type="line"/>
      <point x="98" y="510" type="line"/>
      <point x="154" y="540" type="line"/>
      <point x="214" y="580" type="line"/>
      <point x="194" y="512" type="line"/>
    </contour>
  </outline>
</glyph>
<glyph name="plus" format="2">
  <advance width="600"/>
  <unicode hex="002B"/>
  <outline>
    <contour>
      <point x="254" y="122" type="line"/>
      <point x="288" y="122" type="line"/>
      <point x="334" y="345" type="line"/>
      <point x="554" y="345" type="line"/>
      <point x="561" y="377" type="line"/>
      <point x="341" y="377" type="line"/>
      <point x="388" y="600" type="line"/>
      <point x="354" y="600" type="line"/>
      <point x="308" y="377" type="line"/>
      <point x="88" y="377" type="line"/>
      <point x="81" y="345" type="line"/>
      <point x="301" y="345" type="line"/>
    </contour>
  </outline>
</glyph>
<glyph name="comma" format="2">
  <advance width="175"/>
  <unicode hex="002C"/>
  <anchor x="-3" y="0" name="#entry"/>
  <anchor x="125" y="0" name="#exit"/>
  <anchor x="140" y="524" name="top"/>
  <outline>
    <contour>
      <point x="-36" y="-124" type="curve"/>
      <point x="-12" y="-124" type="line"/>
      <point x="24" y="-88"/>
      <point x="69" y="-20"/>
      <point x="69" y="18" type="curve" smooth="yes"/>
      <point x="69" y="38"/>
      <point x="57" y="51"/>
      <point x="37" y="51" type="curve" smooth="yes"/>
      <point x="19" y="51"/>
      <point x="6" y="40"/>
      <point x="6" y="20" type="curve" smooth="yes"/>
      <point x="6" y="3"/>
      <point x="18" y="-8"/>
      <point x="36" y="-8" type="curve" smooth="yes"/>
      <point x="42" y="-8"/>
      <point x="47" y="-6"/>
      <point x="51" y="-4" type="curve"/>
      <point x="48" y="2" type="line"/>
      <point x="37" y="-35"/>
      <point x="3" y="-83"/>
    </contour>
  </outline>
</glyph>
<glyph name="hyphen" format="2">
  <advance width="378"/>
  <unicode hex="002D"/>
  <outline>
    <contour>
      <point x="57" y="242" type="line"/>
      <point x="315" y="242" type="line"/>
      <point x="322" y="275" type="line"/>
      <point x="64" y="275" type="line"/>
    </contour>
  </outline>
</glyph>
<glyph name="period" format="2">
  <advance width="170"/>
  <unicode hex="002E"/>
  <anchor x="-62" y="0" name="#entry"/>
  <anchor x="126" y="0" name="#exit"/>
  <anchor x="40" y="51" name="_top"/>
  <anchor x="138" y="524" name="top"/>
  <outline>
    <contour>
      <point x="35" y="-7" type="curve" smooth="yes"/>
      <point x="53" y="-7"/>
      <point x="66" y="4"/>
      <point x="66" y="23" type="curve" smooth="yes"/>
      <point x="66" y="40"/>
      <point x="54" y="51"/>
      <point x="37" y="51" type="curve" smooth="yes"/>
      <point x="19" y="51"/>
      <point x="6" y="40"/>
      <point x="6" y="21" type="curve" smooth="yes"/>
      <point x="6" y="4"/>
      <point x="18" y="-7"/>
    </contour>
  </outline>
</glyph>
<glyph name="slash" format="2">
  <advance width="372"/>
  <unicode hex="002F"/>
  <outline>
    <contour>
      <point x="-74" y="-81" type="line"/>
      <point x="-34" y="-81" type="line"/>
      <point x="456" y="729" type="line"/>
      <point x="418" y="729" type="line"/>
    </contour>
  </outline>
</glyph>
<glyph name="zero" format="2">
  <advance width="598"/>
  <unicode hex="0030"/>
  <outline>
    <contour>
      <point x="267" y="-10" type="curve" smooth="yes"/>
      <point x="401" y="-10"/>
      <point x="510" y="102"/>
      <point x="553" y="348" type="curve" smooth="yes"/>
      <point x="591" y="567"/>
      <point x="545" y="729"/>
      <point x="373" y="729" type="curve" smooth="yes"/>
      <point x="240" y="729"/>
      <point x="130" y="618"/>
      <point x="87" y="371" type="curve" smooth="yes"/>
      <point x="49" y="149"/>
      <point x="97" y="-10"/>
    </contour>
    <contour>
      <point x="267" y="24" type="curve" smooth="yes"/>
      <point x="120" y="24"/>
      <point x="95" y="168"/>
      <point x="123" y="351" type="curve" smooth="yes"/>
      <point x="157" y="571"/>
      <point x="245" y="695"/>
      <point x="373" y="695" type="curve" smooth="yes"/>
      <point x="520" y="695"/>
      <point x="545" y="551"/>
      <point x="517" y="368" type="curve" smooth="yes"/>
      <point x="486" y="163"/>
      <point x="402" y="24"/>
    </contour>
  </outline>
</glyph>
<glyph name="one" format="2">
  <advance width="313"/>
  <unicode hex="0031"/>
  <outline>
    <contour>
      <point x="127" y="0" type="line"/>
      <point x="165" y="0" type="line"/>
      <point x="314" y="721" type="line"/>
      <point x="277" y="721" type="line"/>
      <point x="256" y="649"/>
      <point x="213" y="608"/>
      <point x="127" y="608" type="curve" smooth="yes"/>
      <point x="103" y="608" type="line"/>
      <point x="97" y="579" type="line"/>
      <point x="247" y="579" type="line"/>
    </contour>
  </outline>
</glyph>
<glyph name="two" format="2">
  <advance width="543"/>
  <unicode hex="0032"/>
  <outline>
    <contour>
      <point x="25" y="0" type="line"/>
      <point x="449" y="0" type="line"/>
      <point x="457" y="34" type="line"/>
      <point x="71" y="34" type="line"/>
      <point x="109" y="239"/>
      <point x="532" y="287"/>
      <point x="532" y="540" type="curve" smooth="yes"/>
      <point x="532" y="652"/>
      <point x="453" y="729"/>
      <point x="337" y="729" type="curve" smooth="yes"/>
      <point x="205" y="729"/>
      <point x="119" y="652"/>
      <point x="98" y="519" type="curve"/>
      <point x="139" y="519" type="line"/>
      <point x="157" y="630"/>
      <point x="225" y="695"/>
      <point x="337" y="695" type="curve" smooth="yes"/>
      <point x="431" y="695"/>
      <point x="493" y="633"/>
      <point x="493" y="540" type="curve" smooth="yes"/>
      <point x="493" y="313"/>
      <point x="80" y="263"/>
      <point x="34" y="43" type="curve" smooth="yes"/>
    </contour>
  </outline>
</glyph>
<glyph name="three" format="2">
  <advance width="549"/>
  <unicode hex="0033"/>
  <outline>
    <contour>
      <point x="231" y="-10" type="curve" smooth="yes"/>
      <point x="375" y="-10"/>
      <point x="476" y="79"/>
      <point x="476" y="210" type="curve" smooth="yes"/>
      <point x="476" y="282"/>
      <point x="428" y="349"/>
      <point x="376" y="365" type="curve"/>
      <point x="377" y="369" type="line"/>
      <point x="471" y="389"/>
      <point x="536" y="463"/>
      <point x="536" y="557" type="curve" smooth="yes"/>
      <point x="536" y="661"/>
      <point x="459" y="729"/>
      <point x="344" y="729" type="curve" smooth="yes"/>
      <point x="224" y="729"/>
      <point x="132" y="669"/>
      <point x="107" y="535" type="curve"/>
      <point x="143" y="535" type="line"/>
      <point x="163" y="629"/>
      <point x="227" y="695"/>
      <point x="344" y="695" type="curve" smooth="yes"/>
      <point x="437" y="695"/>
      <point x="497" y="639"/>
      <point x="497" y="553" type="curve" smooth="yes"/>
      <point x="497" y="450"/>
      <point x="417" y="389"/>
      <point x="306" y="389" type="curve" smooth="yes"/>
      <point x="229" y="389" type="line"/>
      <point x="223" y="356" type="line"/>
      <point x="292" y="356" type="line" smooth="yes"/>
      <point x="381" y="356"/>
      <point x="437" y="296"/>
      <point x="437" y="211" type="curve" smooth="yes"/>
      <point x="437" y="100"/>
      <point x="363" y="24"/>
      <point x="234" y="24" type="curve" smooth="yes"/>
      <point x="128" y="24"/>
      <point x="62" y="85"/>
      <point x="70" y="188" type="curve"/>
      <point x="34" y="188" type="line"/>
      <point x="28" y="72"/>
      <point x="104" y="-10"/>
    </contour>
  </outline>
</glyph>
<glyph name="four" format="2">
  <advance width="601"/>
  <unicode hex="0034"/>
  <outline>
    <contour>
      <point x="341" y="0" type="line"/>
      <point x="377" y="0" type="line"/>
      <point x="527" y="721" type="line"/>
      <point x="488" y="721" type="line"/>
      <point x="27" y="230" type="line"/>
      <point x="20" y="196" type="line"/>
      <point x="557" y="196" type="line"/>
      <point x="564" y="229" type="line"/>
      <point x="70" y="229" type="line"/>
      <point x="480" y="662" type="line"/>
      <point x="478" y="662" type="line"/>
    </contour>
  </outline>
</glyph>
<glyph name="five" format="2">
  <advance width="567"/>
  <unicode hex="0035"/>
  <outline>
    <contour>
      <point x="256" y="-10" type="curve" smooth="yes"/>
      <point x="405" y="-10"/>
      <point x="509" y="98"/>
      <point x="509" y="244" type="curve" smooth="yes"/>
      <point x="509" y="372"/>
      <point x="431" y="456"/>
      <point x="311" y="456" type="curve" smooth="yes"/>
      <point x="247" y="456"/>
      <point x="180" y="432"/>
      <point x="143" y="393" type="curve"/>
      <point x="139" y="393" type="line"/>
      <point x="214" y="687" type="line"/>
      <point x="574" y="687" type="line"/>
      <point x="581" y="721" type="line"/>
      <point x="187" y="721" type="line"/>
      <point x="93" y="347" type="line"/>
      <point x="135" y="347" type="line"/>
      <point x="172" y="394"/>
      <point x="238" y="423"/>
      <point x="303" y="423" type="curve" smooth="yes"/>
      <point x="403" y="423"/>
      <point x="469" y="355"/>
      <point x="469" y="243" type="curve" smooth="yes"/>
      <point x="469" y="122"/>
      <point x="391" y="24"/>
      <point x="257" y="24" type="curve" smooth="yes"/>
      <point x="151" y="24"/>
      <point x="81" y="88"/>
      <point x="83" y="185" type="curve"/>
      <point x="47" y="185" type="line"/>
      <point x="47" y="68"/>
      <point x="130" y="-10"/>
    </contour>
  </outline>
</glyph>
<glyph name="six" format="2">
  <advance width="605"/>
  <unicode hex="0036"/>
  <outline>
    <contour>
      <point x="302" y="-10" type="curve" smooth="yes"/>
      <point x="448" y="-10"/>
      <point x="543" y="103"/>
      <point x="543" y="242" type="curve" smooth="yes"/>
      <point x="543" y="368"/>
      <point x="456" y="451"/>
      <point x="339" y="451" type="curve" smooth="yes"/>
      <point x="242" y="451"/>
      <point x="157" y="405"/>
      <point x="118" y="311" type="curve"/>
      <point x="114" y="311" type="line"/>
      <point x="133" y="557"/>
      <point x="237" y="695"/>
      <point x="395" y="695" type="curve" smooth="yes"/>
      <point x="488" y="695"/>
      <point x="552" y="644"/>
      <point x="561" y="558" type="curve"/>
      <point x="599" y="558" type="line"/>
      <point x="587" y="661"/>
      <point x="509" y="729"/>
      <point x="394" y="729" type="curve" smooth="yes"/>
      <point x="202" y="729"/>
      <point x="80" y="549"/>
      <point x="80" y="264" type="curve" smooth="yes"/>
      <point x="80" y="83"/>
      <point x="157" y="-10"/>
    </contour>
    <contour>
      <point x="297" y="24" type="curve" smooth="yes"/>
      <point x="191" y="24"/>
      <point x="126" y="96"/>
      <point x="126" y="210" type="curve" smooth="yes"/>
      <point x="126" y="332"/>
      <point x="214" y="417"/>
      <point x="333" y="417" type="curve" smooth="yes"/>
      <point x="435" y="417"/>
      <point x="504" y="348"/>
      <point x="504" y="242" type="curve" smooth="yes"/>
      <point x="504" y="112"/>
      <point x="420" y="24"/>
    </contour>
  </outline>
</glyph>
<glyph name="seven" format="2">
  <advance width="528"/>
  <unicode hex="0037"/>
  <outline>
    <contour>
      <point x="150" y="0" type="curve"/>
      <point x="192" y="0" type="line"/>
      <point x="268" y="233"/>
      <point x="387" y="459"/>
      <point x="584" y="683" type="curve"/>
      <point x="593" y="721" type="line"/>
      <point x="141" y="721" type="line"/>
      <point x="100" y="524" type="line"/>
      <point x="133" y="524" type="line"/>
      <point x="167" y="687" type="line"/>
      <point x="547" y="687" type="line"/>
      <point x="382" y="501"/>
      <point x="243" y="284"/>
    </contour>
  </outline>
</glyph>
<glyph name="eight" format="2">
  <advance width="587"/>
  <unicode hex="0038"/>
  <outline>
    <contour>
      <point x="259" y="-10" type="curve" smooth="yes"/>
      <point x="409" y="-10"/>
      <point x="516" y="77"/>
      <point x="516" y="204" type="curve" smooth="yes"/>
      <point x="516" y="282"/>
      <point x="463" y="345"/>
      <point x="389" y="361" type="curve"/>
      <point x="389" y="364" type="line"/>
      <point x="497" y="376"/>
      <point x="571" y="453"/>
      <point x="571" y="554" type="curve" smooth="yes"/>
      <point x="571" y="661"/>
      <point x="485" y="729"/>
      <point x="365" y="729" type="curve" smooth="yes"/>
      <point x="226" y="729"/>
      <point x="133" y="644"/>
      <point x="133" y="521" type="curve" smooth="yes"/>
      <point x="133" y="450"/>
      <point x="181" y="394"/>
      <point x="246" y="375" type="curve"/>
      <point x="246" y="372" type="line"/>
      <point x="130" y="361"/>
      <point x="40" y="278"/>
      <point x="40" y="165" type="curve" smooth="yes"/>
      <point x="40" y="63"/>
      <point x="121" y="-10"/>
    </contour>
    <contour>
      <point x="266" y="24" type="curve" smooth="yes"/>
      <point x="154" y="24"/>
      <point x="79" y="78"/>
      <point x="79" y="171" type="curve" smooth="yes"/>
      <point x="79" y="278"/>
      <point x="164" y="351"/>
      <point x="289" y="351" type="curve" smooth="yes"/>
      <point x="409" y="351"/>
      <point x="475" y="298"/>
      <point x="475" y="206" type="curve" smooth="yes"/>
      <point x="475" y="92"/>
      <point x="386" y="24"/>
    </contour>
    <contour>
      <point x="337" y="386" type="curve" smooth="yes"/>
      <point x="235" y="386"/>
      <point x="172" y="440"/>
      <point x="172" y="519" type="curve" smooth="yes"/>
      <point x="172" y="625"/>
      <point x="241" y="696"/>
      <point x="365" y="696" type="curve" smooth="yes"/>
      <point x="465" y="696"/>
      <point x="532" y="639"/>
      <point x="532" y="551" type="curve" smooth="yes"/>
      <point x="532" y="453"/>
      <point x="454" y="386"/>
    </contour>
  </outline>
</glyph>
<glyph name="equal" format="2">
  <advance width="600"/>
  <unicode hex="003D"/>
  <anchor x="322" y="366" name="center"/>
  <outline>
    <contour>
      <point x="104" y="455" type="line"/>
      <point x="577" y="455" type="line"/>
      <point x="583" y="487" type="line"/>
      <point x="110" y="487" type="line"/>
    </contour>
    <contour>
      <point x="57" y="235" type="line"/>
      <point x="531" y="235" type="line"/>
      <point x="538" y="267" type="line"/>
      <point x="65" y="267" type="line"/>
    </contour>
  </outline>
</glyph>
<glyph name="greater" format="2">
  <advance width="600"/>
  <unicode hex="003E"/>
  <outline>
    <contour>
      <point x="38" y="133" type="line"/>
      <point x="557" y="337" type="line"/>
      <point x="567" y="382" type="line"/>
      <point x="133" y="589" type="line"/>
      <point x="126" y="555" type="line"/>
      <point x="530" y="364" type="line"/>
      <point x="529" y="360" type="line"/>
      <point x="45" y="171" type="line"/>
    </contour>
  </outline>
</glyph>
<glyph name="question" format="2">
  <advance width="507"/>
  <unicode hex="003F"/>
  <outline>
    <contour>
      <point x="223" y="168" type="line"/>
      <point x="257" y="168" type="line"/>
      <point x="262" y="187" type="line" smooth="yes"/>
      <point x="303" y="341"/>
      <point x="507" y="371"/>
      <point x="514" y="562" type="curve" smooth="yes"/>
      <point x="517" y="667"/>
      <point x="444" y="737"/>
      <point x="330" y="737" type="curve" smooth="yes"/>
      <point x="217" y="737"/>
      <point x="129" y="676"/>
      <point x="104" y="545" type="curve"/>
      <point x="140" y="545" type="line"/>
      <point x="160" y="640"/>
      <point x="216" y="704"/>
      <point x="325" y="704" type="curve" smooth="yes"/>
      <point x="418" y="704"/>
      <point x="478" y="653"/>
      <point x="475" y="562" type="curve" smooth="yes"/>
      <point x="469" y="380"/>
      <point x="257" y="363"/>
      <point x="226" y="185" type="curve" smooth="yes"/>
    </contour>
    <contour>
      <point x="212" y="-7" type="curve" smooth="yes"/>
      <point x="230" y="-7"/>
      <point x="243" y="4"/>
      <point x="243" y="23" type="curve" smooth="yes"/>
      <point x="243" y="40"/>
      <point x="231" y="51"/>
      <point x="214" y="51" type="curve" smooth="yes"/>
      <point x="196" y="51"/>
      <point x="183" y="40"/>
      <point x="183" y="21" type="curve" smooth="yes"/>
      <point x="183" y="4"/>
      <point x="195" y="-7"/>
    </contour>
  </outline>
</glyph>
<glyph name="at" format="2">
  <advance width="917"/>
  <unicode hex="0040"/>
  <outline>
    <contour>
      <point x="437" y="-98" type="curve" smooth="yes"/>
      <point x="520" y="-98"/>
      <point x="609" y="-77"/>
      <point x="658" y="-40" type="curve"/>
      <point x="644" y="-14" type="line"/>
      <point x="601" y="-46"/>
      <point x="525" y="-67"/>
      <point x="440" y="-67" type="curve" smooth="yes"/>
      <point x="246" y="-67"/>
      <point x="118" y="65"/>
      <point x="118" y="274" type="curve" smooth="yes"/>
      <point x="118" y="517"/>
      <point x="270" y="703"/>
      <point x="523" y="703" type="curve" smooth="yes"/>
      <point x="713" y="703"/>
      <point x="837" y="580"/>
      <point x="837" y="392" type="curve" smooth="yes"/>
      <point x="837" y="234"/>
      <point x="764" y="125"/>
      <point x="668" y="125" type="curve" smooth="yes"/>
      <point x="612" y="125"/>
      <point x="584" y="168"/>
      <point x="611" y="278" type="curve" smooth="yes"/>
      <point x="663" y="492" type="line"/>
      <point x="631" y="493" type="line"/>
      <point x="611" y="407" type="line"/>
      <point x="607" y="407" type="line"/>
      <point x="603" y="472"/>
      <point x="558" y="511"/>
      <point x="499" y="511" type="curve" smooth="yes"/>
      <point x="400" y="511"/>
      <point x="312" y="400"/>
      <point x="312" y="257" type="curve" smooth="yes"/>
      <point x="312" y="157"/>
      <point x="365" y="116"/>
      <point x="427" y="116" type="curve" smooth="yes"/>
      <point x="486" y="116"/>
      <point x="542" y="150"/>
      <point x="572" y="221" type="curve"/>
      <point x="576" y="221" type="line"/>
      <point x="568" y="142"/>
      <point x="601" y="96"/>
      <point x="667" y="96" type="curve" smooth="yes"/>
      <point x="779" y="96"/>
      <point x="871" y="215"/>
      <point x="871" y="394" type="curve" smooth="yes"/>
      <point x="871" y="598"/>
      <point x="731" y="734"/>
      <point x="524" y="734" type="curve" smooth="yes"/>
      <point x="261" y="734"/>
      <point x="83" y="540"/>
      <point x="83" y="273" type="curve" smooth="yes"/>
      <point x="83" y="47"/>
      <point x="228" y="-98"/>
    </contour>
    <contour>
      <point x="436" y="143" type="curve" smooth="yes"/>
      <point x="382" y="143"/>
      <point x="345" y="176"/>
      <point x="345" y="258" type="curve" smooth="yes"/>
      <point x="345" y="378"/>
      <point x="416" y="484"/>
      <point x="503" y="484" type="curve" smooth="yes"/>
      <point x="571" y="484"/>
      <point x="604" y="421"/>
      <point x="588" y="318" type="curve" smooth="yes"/>
      <point x="571" y="213"/>
      <point x="510" y="143"/>
    </contour>
  </outline>
</glyph>
<glyph name="A" format="2">
  <advance width="663"/>
  <unicode hex="0041"/>
  <anchor x="289" y="0" name="bottom"/>
  <anchor x="578" y="0" name="ogonek"/>
  <anchor x="428" y="729" name="top"/>
  <outline>
    <contour>
      <point x="-23" y="0" type="line"/>
      <point x="19" y="0" type="line"/>
      <point x="363" y="588" type="line"/>
      <point x="420" y="690" type="line"/>
      <point x="423" y="690" type="line"/>
      <point x="442" y="583" type="line"/>
      <point x="540" y="0" type="line"/>
      <point x="578" y="0" type="line"/>
      <point x="452" y="729" type="line"/>
      <point x="404" y="729" type="line"/>
    </contour>
    <contour>
      <point x="126" y="200" type="line"/>
      <point x="515" y="200" type="line"/>
      <point x="509" y="233" type="line"/>
      <point x="145" y="233" type="line"/>
    </contour>
  </outline>
</glyph>
<glyph name="B" format="2">
  <advance width="685"/>
  <unicode hex="0042"/>
  <anchor x="286" y="0" name="bottom"/>
  <anchor x="437" y="729" name="top"/>
  <outline>
    <contour>
      <point x="40" y="0" type="line"/>
      <point x="361" y="0" type="line" smooth="yes"/>
      <point x="520" y="0"/>
      <point x="621" y="86"/>
      <point x="621" y="218" type="curve" smooth="yes"/>
      <point x="621" y="296"/>
      <point x="577" y="354"/>
      <point x="500" y="373" type="curve"/>
      <point x="501" y="377" type="line"/>
      <point x="593" y="399"/>
      <point x="658" y="466"/>
      <point x="658" y="563" type="curve" smooth="yes"/>
      <point x="658" y="664"/>
      <point x="585" y="729"/>
      <point x="468" y="729" type="curve" smooth="yes"/>
      <point x="191" y="729" type="line"/>
    </contour>
    <contour>
      <point x="85" y="36" type="line"/>
      <point x="222" y="693" type="line"/>
      <point x="468" y="693" type="line" smooth="yes"/>
      <point x="563" y="693"/>
      <point x="618" y="645"/>
      <point x="618" y="564" type="curve" smooth="yes"/>
      <point x="618" y="457"/>
      <point x="541" y="393"/>
      <point x="415" y="393" type="curve" smooth="yes"/>
      <point x="150" y="393" type="line"/>
      <point x="143" y="358" type="line"/>
      <point x="418" y="358" type="line" smooth="yes"/>
      <point x="517" y="358"/>
      <point x="581" y="309"/>
      <point x="581" y="220" type="curve" smooth="yes"/>
      <point x="581" y="106"/>
      <point x="501" y="36"/>
      <point x="361" y="36" type="curve" smooth="yes"/>
    </contour>
  </outline>
</glyph>
<glyph name="C" format="2">
  <advance width="741"/>
  <unicode hex="0043"/>
  <anchor x="353" y="0" name="bottom"/>
  <anchor x="467" y="729" name="top"/>
  <outline>
    <contour>
      <point x="354" y="-10" type="curve" smooth="yes"/>
      <point x="515" y="-10"/>
      <point x="655" y="84"/>
      <point x="692" y="237" type="curve"/>
      <point x="654" y="237" type="line"/>
      <point x="619" y="112"/>
      <point x="507" y="27"/>
      <point x="359" y="27" type="curve" smooth="yes"/>
      <point x="207" y="27"/>
      <point x="109" y="127"/>
      <point x="115" y="309" type="curve" smooth="yes"/>
      <point x="123" y="547"/>
      <point x="258" y="703"/>
      <point x="462" y="703" type="curve" smooth="yes"/>
      <point x="600" y="703"/>
      <point x="694" y="615"/>
      <point x="698" y="493" type="curve"/>
      <point x="733" y="493" type="line"/>
      <point x="732" y="638"/>
      <point x="623" y="739"/>
      <point x="462" y="739" type="curve" smooth="yes"/>
      <point x="241" y="739"/>
      <point x="84" y="566"/>
      <point x="75" y="309" type="curve" smooth="yes"/>
      <point x="69" y="118"/>
      <point x="179" y="-10"/>
    </contour>
  </outline>
</glyph>
<glyph name="D" format="2">
  <advance width="731"/>
  <unicode hex="0044"/>
  <anchor x="302" y="0" name="bottom"/>
  <anchor x="151" y="365" name="center"/>
  <anchor x="419" y="729" name="top"/>
  <outline>
    <contour>
      <point x="40" y="0" type="line"/>
      <point x="318" y="0" type="line" smooth="yes"/>
      <point x="537" y="0"/>
      <point x="692" y="169"/>
      <point x="701" y="418" type="curve" smooth="yes"/>
      <point x="707" y="604"/>
      <point x="598" y="729"/>
      <point x="419" y="729" type="curve" smooth="yes"/>
      <point x="191" y="729" type="line"/>
    </contour>
    <contour>
      <point x="83" y="36" type="line"/>
      <point x="221" y="693" type="line"/>
      <point x="418" y="693" type="line" smooth="yes"/>
      <point x="571" y="693"/>
      <point x="666" y="593"/>
      <point x="660" y="419" type="curve" smooth="yes"/>
      <point x="652" y="189"/>
      <point x="517" y="36"/>
      <point x="322" y="36" type="curve" smooth="yes"/>
    </contour>
  </outline>
</glyph>
<glyph name="E" format="2">
  <advance width="597"/>
  <unicode hex="0045"/>
  <anchor x="273" y="0" name="bottom"/>
  <anchor x="506" y="0" name="ogonek"/>
  <anchor x="424" y="729" name="top"/>
  <anchor x="118" y="729" name="topleft"/>
  <outline>
    <contour>
      <point x="40" y="0" type="line"/>
      <point x="506" y="0" type="line"/>
      <point x="513" y="36" type="line"/>
      <point x="73" y="36" type="line"/>
      <point x="80" y="22" type="line"/>
      <point x="224" y="710" type="line"/>
      <point x="209" y="693" type="line"/>
      <point x="650" y="693" type="line"/>
      <point x="657" y="729" type="line"/>
      <point x="191" y="729" type="line"/>
    </contour>
    <contour>
      <point x="144" y="358" type="line"/>
      <point x="535" y="358" type="line"/>
      <point x="542" y="392" type="line"/>
      <point x="148" y="392" type="line"/>
    </contour>
  </outline>
</glyph>
<glyph name="F" format="2">
  <advance width="590"/>
  <unicode hex="0046"/>
  <anchor x="248" y="0" name="bottom"/>
  <anchor x="399" y="729" name="top"/>
  <outline>
    <contour>
      <point x="40" y="0" type="line"/>
      <point x="77" y="0" type="line"/>
      <point x="224" y="706" type="line"/>
      <point x="209" y="693" type="line"/>
      <point x="649" y="693" type="line"/>
      <point x="656" y="729" type="line"/>
      <point x="191" y="729" type="line"/>
    </contour>
    <contour>
      <point x="123" y="349" type="line"/>
      <point x="539" y="349" type="line"/>
      <point x="545" y="384" type="line"/>
      <point x="136" y="384" type="line"/>
    </contour>
  </outline>
</glyph>
<glyph name="G" format="2">
  <advance width="764"/>
  <unicode hex="0047"/>
  <anchor x="359" y="0" name="bottom"/>
  <anchor x="464" y="729" name="top"/>
  <outline>
    <contour>
      <point x="357" y="-10" type="curve" smooth="yes"/>
      <point x="470" y="-10"/>
      <point x="573" y="41"/>
      <point x="627" y="155" type="curve"/>
      <point x="633" y="155" type="line"/>
      <point x="608" y="0" type="line"/>
      <point x="640" y="0" type="line"/>
      <point x="718" y="376" type="line"/>
      <point x="374" y="376" type="line"/>
      <point x="367" y="340" type="line"/>
      <point x="680" y="340" type="line"/>
      <point x="672" y="349" type="line"/>
      <point x="656" y="275" type="line" smooth="yes"/>
      <point x="624" y="127"/>
      <point x="515" y="27"/>
      <point x="359" y="27" type="curve" smooth="yes"/>
      <point x="208" y="27"/>
      <point x="110" y="127"/>
      <point x="116" y="309" type="curve" smooth="yes"/>
      <point x="124" y="547"/>
      <point x="259" y="703"/>
      <point x="459" y="703" type="curve" smooth="yes"/>
      <point x="595" y="703"/>
      <point x="683" y="627"/>
      <point x="694" y="515" type="curve"/>
      <point x="735" y="515" type="line"/>
      <point x="729" y="658"/>
      <point x="613" y="739"/>
      <point x="466" y="739" type="curve" smooth="yes"/>
      <point x="242" y="739"/>
      <point x="85" y="567"/>
      <point x="76" y="309" type="curve" smooth="yes"/>
      <point x="70" y="118"/>
      <point x="180" y="-10"/>
    </contour>
  </outline>
</glyph>
<glyph name="H" format="2">
  <advance width="754"/>
  <unicode hex="0048"/>
  <anchor x="333" y="0" name="bottom"/>
  <anchor x="445" y="592" name="center"/>
  <anchor x="484" y="729" name="top"/>
  <anchor x="118" y="729" name="topleft"/>
  <outline>
    <contour>
      <point x="40" y="0" type="line"/>
      <point x="77" y="0" type="line"/>
      <point x="228" y="729" type="line"/>
      <point x="191" y="729" type="line"/>
    </contour>
    <contour>
      <point x="568" y="0" type="line"/>
      <point x="606" y="0" type="line"/>
      <point x="757" y="729" type="line"/>
      <point x="719" y="729" type="line"/>
    </contour>
    <contour>
      <point x="126" y="352" type="line"/>
      <point x="662" y="352" type="line"/>
      <point x="666" y="388" type="line"/>
      <point x="139" y="388" type="line"/>
    </contour>
  </outline>
</glyph>
<glyph name="I" format="2">
  <advance width="226"/>
  <unicode hex="0049"/>
  <anchor x="59" y="0" name="bottom"/>
  <anchor x="77" y="0" name="ogonek"/>
  <anchor x="210" y="729" name="top"/>
  <anchor x="118" y="729" name="topleft"/>
  <outline>
    <contour>
      <point x="40" y="0" type="line"/>
      <point x="77" y="0" type="line"/>
      <point x="229" y="729" type="line"/>
      <point x="191" y="729" type="line"/>
    </contour>
  </outline>
</glyph>
<glyph name="J" format="2">
  <advance width="378"/>
  <unicode hex="004A"/>
  <anchor x="166" y="0" name="bottom"/>
  <anchor x="368" y="729" name="top"/>
  <outline>
    <contour>
      <point x="-25" y="0" type="line"/>
      <point x="76" y="0" type="line" smooth="yes"/>
      <point x="177" y="0"/>
      <point x="245" y="39"/>
      <point x="272" y="170" type="curve" smooth="yes"/>
      <point x="387" y="729" type="line"/>
      <point x="349" y="729" type="line"/>
      <point x="235" y="175" type="line" smooth="yes"/>
      <point x="215" y="81"/>
      <point x="177" y="35"/>
      <point x="83" y="35" type="curve" smooth="yes"/>
      <point x="-18" y="35" type="line"/>
    </contour>
  </outline>
</glyph>
<glyph name="K" format="2">
  <advance width="641"/>
  <unicode hex="004B"/>
  <anchor x="261" y="0" name="bottom"/>
  <anchor x="412" y="729" name="top"/>
  <outline>
    <contour>
      <point x="516" y="0" type="line"/>
      <point x="557" y="0" type="line"/>
      <point x="345" y="425" type="line"/>
      <point x="702" y="729" type="line"/>
      <point x="647" y="729" type="line"/>
      <point x="128" y="283" type="line"/>
      <point x="117" y="233" type="line"/>
      <point x="316" y="401" type="line"/>
    </contour>
    <contour>
      <point x="40" y="0" type="line"/>
      <point x="77" y="0" type="line"/>
      <point x="229" y="729" type="line"/>
      <point x="191" y="729" type="line"/>
    </contour>
  </outline>
</glyph>
<glyph name="L" format="2">
  <advance width="528"/>
  <unicode hex="004C"/>
  <anchor x="207" y="0" name="bottom"/>
  <anchor x="330" y="365" name="center"/>
  <anchor x="210" y="729" name="top"/>
  <anchor x="316" y="729" name="topright"/>
  <outline>
    <contour>
      <point x="40" y="0" type="line"/>
      <point x="446" y="0" type="line"/>
      <point x="453" y="37" type="line"/>
      <point x="71" y="37" type="line"/>
      <point x="81" y="25" type="line"/>
      <point x="228" y="729" type="line"/>
      <point x="191" y="729" type="line"/>
    </contour>
  </outline>
</glyph>
<glyph name="M" format="2">
  <advance width="873"/>
  <unicode hex="004D"/>
  <anchor x="382" y="0" name="bottom"/>
  <anchor x="533" y="729" name="top"/>
  <outline>
    <contour>
      <point x="40" y="0" type="line"/>
      <point x="77" y="0" type="line"/>
      <point x="165" y="420" type="line"/>
      <point x="218" y="686" type="line"/>
      <point x="224" y="686" type="line"/>
      <point x="272" y="449" type="line"/>
      <point x="362" y="0" type="line"/>
      <point x="405" y="0" type="line"/>
      <point x="686" y="459" type="line"/>
      <point x="825" y="686" type="line"/>
      <point x="832" y="686" type="line"/>
      <point x="774" y="420" type="line"/>
      <point x="686" y="0" type="line"/>
      <point x="725" y="0" type="line"/>
      <point x="876" y="729" type="line"/>
      <point x="810" y="729" type="line"/>
      <point x="513" y="243" type="line"/>
      <point x="395" y="50" type="line"/>
      <point x="389" y="50" type="line"/>
      <point x="351" y="238" type="line"/>
      <point x="252" y="729" type="line"/>
      <point x="191" y="729" type="line"/>
    </contour>
  </outline>
</glyph>
<glyph name="N" format="2">
  <advance width="749"/>
  <unicode hex="004E"/>
  <anchor x="321" y="0" name="bottom"/>
  <anchor x="472" y="729" name="top"/>
  <outline>
    <contour>
      <point x="40" y="0" type="line"/>
      <point x="77" y="0" type="line"/>
      <point x="168" y="436" type="line"/>
      <point x="218" y="686" type="line"/>
      <point x="222" y="686" type="line"/>
      <point x="548" y="0" type="line"/>
      <point x="601" y="0" type="line"/>
      <point x="752" y="729" type="line"/>
      <point x="715" y="729" type="line"/>
      <point x="626" y="303" type="line"/>
      <point x="576" y="43" type="line"/>
      <point x="571" y="43" type="line"/>
      <point x="243" y="729" type="line"/>
      <point x="191" y="729" type="line"/>
    </contour>
  </outline>
</glyph>
<glyph name="O" format="2">
  <advance width="771"/>
  <unicode hex="004F"/>
  <anchor x="352" y="0" name="bottom"/>
  <anchor x="408" y="365" name="center"/>
  <anchor x="625" y="10" name="ogonek"/>
  <anchor x="460" y="729" name="top"/>
  <anchor x="139" y="729" name="topleft"/>
  <anchor x="612" y="699" name="topright"/>
  <outline>
    <contour>
      <point x="354" y="-10" type="curve" smooth="yes"/>
      <point x="574" y="-10"/>
      <point x="730" y="165"/>
      <point x="739" y="420" type="curve" smooth="yes"/>
      <point x="745" y="610"/>
      <point x="637" y="739"/>
      <point x="461" y="739" type="curve" smooth="yes"/>
      <point x="240" y="739"/>
      <point x="84" y="564"/>
      <point x="75" y="309" type="curve" smooth="yes"/>
      <point x="69" y="118"/>
      <point x="179" y="-10"/>
    </contour>
    <contour>
      <point x="357" y="25" type="curve" smooth="yes"/>
      <point x="207" y="25"/>
      <point x="109" y="126"/>
      <point x="115" y="309" type="curve" smooth="yes"/>
      <point x="123" y="547"/>
      <point x="258" y="704"/>
      <point x="455" y="704" type="curve" smooth="yes"/>
      <point x="609" y="704"/>
      <point x="705" y="600"/>
      <point x="699" y="420" type="curve" smooth="yes"/>
      <point x="691" y="183"/>
      <point x="555" y="25"/>
    </contour>
  </outline>
</glyph>
<glyph name="P" format="2">
  <advance width="646"/>
  <unicode hex="0050"/>
  <anchor x="264" y="0" name="bottom"/>
  <anchor x="415" y="729" name="top"/>
  <outline>
    <contour>
      <point x="40" y="0" type="line"/>
      <point x="77" y="0" type="line"/>
      <point x="224" y="702" type="line"/>
      <point x="210" y="693" type="line"/>
      <point x="428" y="693" type="line" smooth="yes"/>
      <point x="546" y="693"/>
      <point x="614" y="632"/>
      <point x="614" y="533" type="curve" smooth="yes"/>
      <point x="614" y="401"/>
      <point x="519" y="322"/>
      <point x="363" y="322" type="curve" smooth="yes"/>
      <point x="135" y="322" type="line"/>
      <point x="128" y="286" type="line"/>
      <point x="362" y="286" type="line" smooth="yes"/>
      <point x="540" y="286"/>
      <point x="653" y="380"/>
      <point x="653" y="532" type="curve" smooth="yes"/>
      <point x="653" y="652"/>
      <point x="566" y="729"/>
      <point x="427" y="729" type="curve" smooth="yes"/>
      <point x="191" y="729" type="line"/>
    </contour>
  </outline>
</glyph>
<glyph name="R" format="2">
  <advance width="681"/>
  <unicode hex="0052"/>
  <anchor x="289" y="0" name="bottom"/>
  <anchor x="411" y="729" name="top"/>
  <outline>
    <contour>
      <point x="40" y="0" type="line"/>
      <point x="77" y="0" type="line"/>
      <point x="221" y="693" type="line"/>
      <point x="462" y="693" type="line" smooth="yes"/>
      <point x="640" y="693"/>
      <point x="642" y="566"/>
      <point x="627" y="509" type="curve" smooth="yes"/>
      <point x="609" y="424"/>
      <point x="539" y="371"/>
      <point x="436" y="371" type="curve" smooth="yes"/>
      <point x="145" y="371" type="line"/>
      <point x="138" y="336" type="line"/>
      <point x="457" y="336" type="line" smooth="yes"/>
      <point x="526" y="336"/>
      <point x="573" y="301"/>
      <point x="550" y="190" type="curve" smooth="yes"/>
      <point x="527" y="80" type="line" smooth="yes"/>
      <point x="519" y="41"/>
      <point x="514" y="16"/>
      <point x="518" y="0" type="curve"/>
      <point x="556" y="0" type="line"/>
      <point x="552" y="14"/>
      <point x="553" y="31"/>
      <point x="562" y="74" type="curve" smooth="yes"/>
      <point x="587" y="192" type="line" smooth="yes"/>
      <point x="605" y="277"/>
      <point x="581" y="331"/>
      <point x="511" y="354" type="curve"/>
      <point x="512" y="359" type="line"/>
      <point x="593" y="378"/>
      <point x="651" y="433"/>
      <point x="667" y="512" type="curve" smooth="yes"/>
      <point x="683" y="583"/>
      <point x="668" y="729"/>
      <point x="475" y="729" type="curve" smooth="yes"/>
      <point x="191" y="729" type="line"/>
    </contour>
  </outline>
</glyph>
<glyph name="S" format="2">
  <advance width="620"/>
  <unicode hex="0053"/>
  <anchor x="286" y="0" name="bottom"/>
  <anchor x="374" y="729" name="top"/>
  <outline>
    <contour>
      <point x="296" y="-10" type="curve" smooth="yes"/>
      <point x="448" y="-10"/>
      <point x="556" y="70"/>
      <point x="556" y="205" type="curve" smooth="yes"/>
      <point x="556" y="283"/>
      <point x="520" y="350"/>
      <point x="352" y="394" type="curve" smooth="yes"/>
      <point x="214" y="430"/>
      <point x="170" y="475"/>
      <point x="170" y="548" type="curve" smooth="yes"/>
      <point x="170" y="649"/>
      <point x="258" y="702"/>
      <point x="368" y="702" type="curve" smooth="yes"/>
      <point x="487" y="702"/>
      <point x="565" y="634"/>
      <point x="562" y="529" type="curve"/>
      <point x="601" y="529" type="line"/>
      <point x="605" y="660"/>
      <point x="511" y="739"/>
      <point x="372" y="739" type="curve" smooth="yes"/>
      <point x="238" y="739"/>
      <point x="128" y="672"/>
      <point x="128" y="545" type="curve" smooth="yes"/>
      <point x="128" y="449"/>
      <point x="191" y="398"/>
      <point x="335" y="360" type="curve" smooth="yes"/>
      <point x="495" y="318"/>
      <point x="515" y="260"/>
      <point x="515" y="203" type="curve" smooth="yes"/>
      <point x="515" y="79"/>
      <point x="417" y="26"/>
      <point x="291" y="26" type="curve" smooth="yes"/>
      <point x="158" y="26"/>
      <point x="77" y="97"/>
      <point x="81" y="224" type="curve"/>
      <point x="42" y="224" type="line"/>
      <point x="33" y="83"/>
      <point x="122" y="-10"/>
    </contour>
  </outline>
</glyph>
<glyph name="T" format="2">
  <advance width="579"/>
  <unicode hex="0054"/>
  <anchor x="236" y="0" name="bottom"/>
  <anchor x="312" y="365" name="center"/>
  <anchor x="387" y="729" name="top"/>
  <outline>
    <contour>
      <point x="217" y="0" type="line"/>
      <point x="255" y="0" type="line"/>
      <point x="401" y="702" type="line"/>
      <point x="363" y="702" type="line"/>
    </contour>
    <contour>
      <point x="119" y="693" type="line"/>
      <point x="641" y="693" type="line"/>
      <point x="647" y="729" type="line"/>
      <point x="125" y="729" type="line"/>
    </contour>
  </outline>
</glyph>
<glyph name="U" format="2">
  <advance width="712"/>
  <unicode hex="0055"/>
  <anchor x="317" y="0" name="bottom"/>
  <anchor x="360" y="0" name="ogonek"/>
  <anchor x="452" y="729" name="top"/>
  <anchor x="689" y="729" name="topright"/>
  <outline>
    <contour>
      <point x="318" y="-10" type="curve" smooth="yes"/>
      <point x="500" y="-10"/>
      <point x="592" y="88"/>
      <point x="627" y="255" type="curve" smooth="yes"/>
      <point x="726" y="729" type="line"/>
      <point x="689" y="729" type="line"/>
      <point x="590" y="260" type="line" smooth="yes"/>
      <point x="553" y="85"/>
      <point x="453" y="25"/>
      <point x="322" y="25" type="curve" smooth="yes"/>
      <point x="169" y="25"/>
      <point x="89" y="125"/>
      <point x="120" y="274" type="curve" smooth="yes"/>
      <point x="215" y="729" type="line"/>
      <point x="178" y="729" type="line"/>
      <point x="83" y="275" type="line" smooth="yes"/>
      <point x="47" y="104"/>
      <point x="140" y="-10"/>
    </contour>
  </outline>
</glyph>
<glyph name="V" format="2">
  <advance width="665"/>
  <unicode hex="0056"/>
  <anchor x="288" y="0" name="bottom"/>
  <anchor x="439" y="729" name="top"/>
  <outline>
    <contour>
      <point x="248" y="0" type="line"/>
      <point x="301" y="0" type="line"/>
      <point x="731" y="729" type="line"/>
      <point x="688" y="729" type="line"/>
      <point x="335" y="124" type="line"/>
      <point x="284" y="36" type="line"/>
      <point x="279" y="36" type="line"/>
      <point x="264" y="124" type="line"/>
      <point x="166" y="729" type="line"/>
      <point x="128" y="729" type="line"/>
    </contour>
  </outline>
</glyph>
<glyph name="W" format="2">
  <advance width="932"/>
  <unicode hex="0057"/>
  <anchor x="409" y="0" name="bottom"/>
  <anchor x="560" y="729" name="top"/>
  <outline>
    <contour>
      <point x="148" y="0" type="line"/>
      <point x="200" y="0" type="line"/>
      <point x="487" y="567" type="line"/>
      <point x="551" y="692" type="line"/>
      <point x="556" y="692" type="line"/>
      <point x="568" y="558" type="line"/>
      <point x="620" y="0" type="line"/>
      <point x="669" y="0" type="line"/>
      <point x="992" y="729" type="line"/>
      <point x="952" y="729" type="line"/>
      <point x="752" y="271" type="line"/>
      <point x="654" y="42" type="line"/>
      <point x="648" y="42" type="line"/>
      <point x="629" y="260" type="line"/>
      <point x="586" y="729" type="line"/>
      <point x="533" y="729" type="line"/>
      <point x="292" y="255" type="line"/>
      <point x="185" y="43" type="line"/>
      <point x="180" y="43" type="line"/>
      <point x="177" y="270" type="line"/>
      <point x="168" y="729" type="line"/>
      <point x="134" y="729" type="line"/>
    </contour>
  </outline>
</glyph>
<glyph name="X" format="2">
  <advance width="646"/>
  <unicode hex="0058"/>
  <anchor x="280" y="0" name="bottom"/>
  <anchor x="431" y="729" name="top"/>
  <outline>
    <contour>
      <point x="-27" y="0" type="line"/>
      <point x="21" y="0" type="line"/>
      <point x="282" y="298" type="line"/>
      <point x="344" y="369" type="line"/>
      <point x="347" y="369" type="line"/>
      <point x="382" y="295" type="line"/>
      <point x="520" y="0" type="line"/>
      <point x="564" y="0" type="line"/>
      <point x="376" y="391" type="line"/>
      <point x="672" y="729" type="line"/>
      <point x="623" y="729" type="line"/>
      <point x="410" y="481" type="line"/>
      <point x="356" y="419" type="line"/>
      <point x="354" y="419" type="line"/>
      <point x="328" y="475" type="line"/>
      <point x="209" y="729" type="line"/>
      <point x="167" y="729" type="line"/>
      <point x="326" y="398" type="line"/>
    </contour>
  </outline>
</glyph>
<glyph name="Y" format="2">
  <advance width="618"/>
  <unicode hex="0059"/>
  <anchor x="251" y="0" name="bottom"/>
  <anchor x="402" y="729" name="top"/>
  <anchor x="148" y="729" name="topleft"/>
  <outline>
    <contour>
      <point x="232" y="0" type="line"/>
      <point x="270" y="0" type="line"/>
      <point x="331" y="296" type="line"/>
      <point x="688" y="729" type="line"/>
      <point x="640" y="729" type="line"/>
      <point x="398" y="431" type="line"/>
      <point x="321" y="335" type="line"/>
      <point x="317" y="335" type="line"/>
      <point x="281" y="431" type="line"/>
      <point x="163" y="729" type="line"/>
      <point x="124" y="729" type="line"/>
      <point x="295" y="301" type="line"/>
    </contour>
  </outline>
</glyph>
<glyph name="Z" format="2">
  <advance width="603"/>
  <unicode hex="005A"/>
  <anchor x="247" y="0" name="bottom"/>
  <anchor x="323" y="365" name="center"/>
  <anchor x="398" y="729" name="top"/>
  <outline>
    <contour>
      <point x="-20" y="0" type="line"/>
      <point x="515" y="0" type="line"/>
      <point x="522" y="37" type="line"/>
      <point x="43" y="37" type="line"/>
      <point x="648" y="699" type="line"/>
      <point x="654" y="729" type="line"/>
      <point x="147" y="729" type="line"/>
      <point x="140" y="693" type="line"/>
      <point x="593" y="693" type="line"/>
      <point x="-13" y="31" type="line"/>
    </contour>
  </outline>
</glyph>
<glyph name="bracketleft" format="2">
  <advance width="344"/>
  <unicode hex="005B"/>
  <outline>
    <contour>
      <point x="13" y="-167" type="line"/>
      <point x="214" y="-167" type="line"/>
      <point x="221" y="-135" type="line"/>
      <point x="56" y="-135" type="line"/>
      <point x="243" y="761" type="line"/>
      <point x="409" y="761" type="line"/>
      <point x="416" y="793" type="line"/>
      <point x="215" y="793" type="line"/>
    </contour>
  </outline>
</glyph>
<glyph name="backslash" format="2">
  <advance width="348"/>
  <unicode hex="005C"/>
  <outline>
    <contour>
      <point x="245" y="-81" type="line"/>
      <point x="282" y="-81" type="line"/>
      <point x="127" y="729" type="line"/>
      <point x="93" y="729" type="line"/>
    </contour>
  </outline>
</glyph>
<glyph name="asciicircum" format="2">
  <advance width="600"/>
  <unicode hex="005E"/>
  <outline>
    <contour>
      <point x="196" y="475" type="line"/>
      <point x="238" y="475" type="line"/>
      <point x="393" y="692" type="line"/>
      <point x="457" y="475" type="line"/>
      <point x="495" y="475" type="line"/>
      <point x="417" y="729" type="line"/>
      <point x="379" y="729" type="line"/>
    </contour>
  </outline>
</glyph>
<glyph name="underscore" format="2">
  <advance width="471"/>
  <unicode hex="005F"/>
  <outline>
    <contour>
      <point x="-1" y="-32" type="line"/>
      <point x="351" y="-32" type="line"/>
      <point x="358" y="0" type="line"/>
      <point x="6" y="0" type="line"/>
    </contour>
  </outline>
</glyph>
<glyph name="a" format="2">
  <advance width="586"/>
  <unicode hex="0061"/>
  <anchor x="256" y="0" name="bottom"/>
  <anchor x="447" y="0" name="ogonek"/>
  <anchor x="364" y="517" name="top"/>
  <outline>
    <contour>
      <point x="239" y="-10" type="curve" smooth="yes"/>
      <point x="317" y="-10"/>
      <point x="389" y="26"/>
      <point x="431" y="103" type="curve"/>
      <point x="434" y="103" type="line"/>
      <point x="414" y="0" type="line"/>
      <point x="447" y="0" type="line"/>
      <point x="555" y="517" type="line"/>
      <point x="522" y="517" type="line"/>
      <point x="494" y="391" type="line"/>
      <point x="488" y="391" type="line"/>
      <point x="468" y="472"/>
      <point x="403" y="526"/>
      <point x="312" y="526" type="curve" smooth="yes"/>
      <point x="158" y="526"/>
      <point x="54" y="405"/>
      <point x="54" y="201" type="curve" smooth="yes"/>
      <point x="54" y="74"/>
      <point x="128" y="-10"/>
    </contour>
    <contour>
      <point x="246" y="24" type="curve" smooth="yes"/>
      <point x="149" y="24"/>
      <point x="94" y="96"/>
      <point x="94" y="205" type="curve" smooth="yes"/>
      <point x="94" y="375"/>
      <point x="175" y="492"/>
      <point x="313" y="492" type="curve" smooth="yes"/>
      <point x="434" y="492"/>
      <point x="496" y="399"/>
      <point x="467" y="259" type="curve" smooth="yes"/>
      <point x="455" y="202" type="line" smooth="yes"/>
      <point x="432" y="95"/>
      <point x="355" y="24"/>
    </contour>
  </outline>
</glyph>
<glyph name="b" format="2">
  <advance width="586"/>
  <unicode hex="0062"/>
  <anchor x="244" y="0" name="bottom"/>
  <anchor x="395" y="729" name="top"/>
  <outline>
    <contour>
      <point x="274" y="-9" type="curve" smooth="yes"/>
      <point x="428" y="-9"/>
      <point x="532" y="112"/>
      <point x="532" y="316" type="curve" smooth="yes"/>
      <point x="532" y="443"/>
      <point x="458" y="527"/>
      <point x="347" y="527" type="curve" smooth="yes"/>
      <point x="269" y="527"/>
      <point x="197" y="491"/>
      <point x="155" y="414" type="curve"/>
      <point x="154" y="414" type="line"/>
      <point x="219" y="729" type="line"/>
      <point x="183" y="729" type="line"/>
      <point x="31" y="0" type="line"/>
      <point x="64" y="0" type="line"/>
      <point x="94" y="126" type="line"/>
      <point x="98" y="126" type="line"/>
      <point x="118" y="45"/>
      <point x="183" y="-9"/>
    </contour>
    <contour>
      <point x="273" y="25" type="curve" smooth="yes"/>
      <point x="152" y="25"/>
      <point x="90" y="118"/>
      <point x="119" y="258" type="curve" smooth="yes"/>
      <point x="131" y="315" type="line" smooth="yes"/>
      <point x="154" y="422"/>
      <point x="231" y="493"/>
      <point x="340" y="493" type="curve" smooth="yes"/>
      <point x="437" y="493"/>
      <point x="492" y="421"/>
      <point x="492" y="312" type="curve" smooth="yes"/>
      <point x="492" y="142"/>
      <point x="411" y="25"/>
    </contour>
  </outline>
</glyph>
<glyph name="c" format="2">
  <advance width="553"/>
  <unicode hex="0063"/>
  <anchor x="249" y="0" name="bottom"/>
  <anchor x="328" y="517" name="top"/>
  <outline>
    <contour>
      <point x="251" y="-10" type="curve" smooth="yes"/>
      <point x="364" y="-10"/>
      <point x="463" y="57"/>
      <point x="491" y="165" type="curve"/>
      <point x="454" y="165" type="line"/>
      <point x="430" y="80"/>
      <point x="353" y="23"/>
      <point x="254" y="23" type="curve" smooth="yes"/>
      <point x="152" y="23"/>
      <point x="88" y="91"/>
      <point x="88" y="209" type="curve" smooth="yes"/>
      <point x="88" y="352"/>
      <point x="164" y="494"/>
      <point x="323" y="494" type="curve" smooth="yes"/>
      <point x="418" y="494"/>
      <point x="483" y="435"/>
      <point x="487" y="351" type="curve"/>
      <point x="520" y="351" type="line"/>
      <point x="520" y="454"/>
      <point x="441" y="527"/>
      <point x="328" y="527" type="curve" smooth="yes"/>
      <point x="149" y="527"/>
      <point x="51" y="371"/>
      <point x="51" y="210" type="curve" smooth="yes"/>
      <point x="51" y="77"/>
      <point x="129" y="-10"/>
    </contour>
  </outline>
</glyph>
<glyph name="d" format="2">
  <advance width="586"/>
  <unicode hex="0064"/>
  <anchor x="233" y="0" name="bottom"/>
  <anchor x="520" y="631" name="center"/>
  <anchor x="384" y="729" name="top"/>
  <anchor x="576" y="729" name="topright"/>
  <outline>
    <contour>
      <point x="239" y="-10" type="curve" smooth="yes"/>
      <point x="317" y="-10"/>
      <point x="389" y="26"/>
      <point x="431" y="103" type="curve"/>
      <point x="434" y="103" type="line"/>
      <point x="414" y="0" type="line"/>
      <point x="447" y="0" type="line"/>
      <point x="598" y="729" type="line"/>
      <point x="562" y="729" type="line"/>
      <point x="492" y="391" type="line"/>
      <point x="488" y="391" type="line"/>
      <point x="468" y="472"/>
      <point x="403" y="526"/>
      <point x="312" y="526" type="curve" smooth="yes"/>
      <point x="158" y="526"/>
      <point x="54" y="405"/>
      <point x="54" y="201" type="curve" smooth="yes"/>
      <point x="54" y="74"/>
      <point x="128" y="-10"/>
    </contour>
    <contour>
      <point x="244" y="24" type="curve" smooth="yes"/>
      <point x="147" y="24"/>
      <point x="92" y="96"/>
      <point x="92" y="205" type="curve" smooth="yes"/>
      <point x="92" y="375"/>
      <point x="173" y="492"/>
      <point x="311" y="492" type="curve" smooth="yes"/>
      <point x="432" y="492"/>
      <point x="494" y="399"/>
      <point x="465" y="259" type="curve" smooth="yes"/>
      <point x="453" y="202" type="line" smooth="yes"/>
      <point x="430" y="95"/>
      <point x="353" y="24"/>
    </contour>
  </outline>
</glyph>
<glyph name="e" format="2">
  <advance width="552"/>
  <unicode hex="0065"/>
  <anchor x="244" y="0" name="bottom"/>
  <anchor x="321" y="0" name="ogonek"/>
  <anchor x="316" y="517" name="top"/>
  <outline>
    <contour>
      <point x="246" y="-10" type="curve" smooth="yes"/>
      <point x="357" y="-10"/>
      <point x="453" y="55"/>
      <point x="479" y="153" type="curve"/>
      <point x="442" y="153" type="line"/>
      <point x="417" y="75"/>
      <point x="342" y="24"/>
      <point x="249" y="24" type="curve" smooth="yes"/>
      <point x="138" y="24"/>
      <point x="73" y="116"/>
      <point x="90" y="258" type="curve"/>
      <point x="494" y="258" type="line"/>
      <point x="526" y="415"/>
      <point x="462" y="527"/>
      <point x="317" y="527" type="curve" smooth="yes"/>
      <point x="168" y="527"/>
      <point x="58" y="397"/>
      <point x="51" y="219" type="curve" smooth="yes"/>
      <point x="47" y="81"/>
      <point x="124" y="-10"/>
    </contour>
    <contour>
      <point x="93" y="277" type="line"/>
      <point x="122" y="423"/>
      <point x="212" y="494"/>
      <point x="311" y="494" type="curve" smooth="yes"/>
      <point x="421" y="494"/>
      <point x="489" y="413"/>
      <point x="461" y="276" type="curve"/>
      <point x="478" y="291" type="line"/>
      <point x="80" y="291" type="line"/>
    </contour>
  </outline>
</glyph>
<glyph name="f" format="2">
  <advance width="305"/>
  <unicode hex="0066"/>
  <anchor x="105" y="0" name="bottom"/>
  <anchor x="256" y="729" name="top"/>
  <outline>
    <contour>
      <point x="69" y="0" type="line"/>
      <point x="106" y="0" type="line"/>
      <point x="207" y="485" type="line"/>
      <point x="328" y="485" type="line"/>
      <point x="335" y="517" type="line"/>
      <point x="214" y="517" type="line"/>
      <point x="239" y="636" type="line" smooth="yes"/>
      <point x="247" y="674"/>
      <point x="272" y="696"/>
      <point x="314" y="696" type="curve" smooth="yes"/>
      <point x="385" y="696" type="line"/>
      <point x="392" y="729" type="line"/>
      <point x="314" y="729" type="line" smooth="yes"/>
      <point x="259" y="729"/>
      <point x="217" y="701"/>
      <point x="204" y="642" type="curve" smooth="yes"/>
      <point x="177" y="517" type="line"/>
      <point x="76" y="517" type="line"/>
      <point x="69" y="485" type="line"/>
      <point x="171" y="485" type="line"/>
    </contour>
  </outline>
</glyph>
<glyph name="g" format="2">
  <advance width="575"/>
  <unicode hex="0067"/>
  <anchor x="213" y="-167" name="bottom"/>
  <anchor x="355" y="517" name="top"/>
  <outline>
    <contour>
      <point x="211" y="-177" type="curve" smooth="yes"/>
      <point x="351" y="-177"/>
      <point x="417" y="-95"/>
      <point x="440" y="17" type="curve" smooth="yes"/>
      <point x="545" y="517" type="line"/>
      <point x="512" y="517" type="line"/>
      <point x="483" y="390" type="line"/>
      <point x="481" y="390" type="line"/>
      <point x="469" y="469"/>
      <point x="404" y="527"/>
      <point x="308" y="527" type="curve" smooth="yes"/>
      <point x="162" y="527"/>
      <point x="53" y="394"/>
      <point x="53" y="213" type="curve" smooth="yes"/>
      <point x="53" y="90"/>
      <point x="123" y="12"/>
      <point x="230" y="12" type="curve" smooth="yes"/>
      <point x="312" y="12"/>
      <point x="384" y="54"/>
      <point x="424" y="120" type="curve"/>
      <point x="426" y="120" type="line"/>
      <point x="406" y="24" type="line" smooth="yes"/>
      <point x="384" y="-82"/>
      <point x="320" y="-143"/>
      <point x="216" y="-143" type="curve" smooth="yes"/>
      <point x="125" y="-143"/>
      <point x="61" y="-97"/>
      <point x="60" y="-23" type="curve"/>
      <point x="24" y="-23" type="line"/>
      <point x="23" y="-116"/>
      <point x="98" y="-177"/>
    </contour>
    <contour>
      <point x="241" y="45" type="curve" smooth="yes"/>
      <point x="151" y="45"/>
      <point x="91" y="106"/>
      <point x="91" y="216" type="curve" smooth="yes"/>
      <point x="91" y="376"/>
      <point x="185" y="493"/>
      <point x="310" y="493" type="curve" smooth="yes"/>
      <point x="416" y="493"/>
      <point x="482" y="407"/>
      <point x="462" y="289" type="curve" smooth="yes"/>
      <point x="448" y="225" type="line" smooth="yes"/>
      <point x="430" y="127"/>
      <point x="348" y="45"/>
    </contour>
  </outline>
</glyph>
<glyph name="h" format="2">
  <advance width="568"/>
  <unicode hex="0068"/>
  <anchor x="244" y="0" name="bottom"/>
  <anchor x="220" y="631" name="center"/>
  <anchor x="200" y="729" name="top"/>
  <outline>
    <contour>
      <point x="31" y="0" type="line"/>
      <point x="66" y="0" type="line"/>
      <point x="127" y="293" type="line" smooth="yes"/>
      <point x="152" y="415"/>
      <point x="238" y="493"/>
      <point x="345" y="493" type="curve" smooth="yes"/>
      <point x="453" y="493"/>
      <point x="492" y="419"/>
      <point x="465" y="288" type="curve" smooth="yes"/>
      <point x="405" y="0" type="line"/>
      <point x="441" y="0" type="line"/>
      <point x="501" y="291" type="line" smooth="yes"/>
      <point x="532" y="440"/>
      <point x="474" y="527"/>
      <point x="354" y="527" type="curve" smooth="yes"/>
      <point x="281" y="527"/>
      <point x="206" y="493"/>
      <point x="158" y="415" type="curve"/>
      <point x="152" y="415" type="line"/>
      <point x="218" y="729" type="line"/>
      <point x="182" y="729" type="line"/>
    </contour>
  </outline>
</glyph>
<glyph name="k" format="2">
  <advance width="497"/>
  <unicode hex="006B"/>
  <anchor x="211" y="0" name="bottom"/>
  <anchor x="362" y="729" name="top"/>
  <outline>
    <contour>
      <point x="31" y="0" type="line"/>
      <point x="68" y="0" type="line"/>
      <point x="104" y="175" type="line"/>
      <point x="249" y="297" type="line"/>
      <point x="271" y="244" type="line"/>
      <point x="376" y="0" type="line"/>
      <point x="418" y="0" type="line"/>
      <point x="278" y="321" type="line"/>
      <point x="514" y="517" type="line"/>
      <point x="461" y="517" type="line"/>
      <point x="189" y="291" type="line"/>
      <point x="115" y="227" type="line"/>
      <point x="220" y="729" type="line"/>
      <point x="183" y="729" type="line"/>
    </contour>
  </outline>
</glyph>
<glyph name="l" format="2">
  <advance width="206"/>
  <unicode hex="006C"/>
  <anchor x="49" y="0" name="bottom"/>
  <anchor x="124" y="365" name="center"/>
  <anchor x="200" y="729" name="top"/>
  <anchor x="218" y="729" name="topright"/>
  <outline>
    <contour>
      <point x="31" y="0" type="line"/>
      <point x="66" y="0" type="line"/>
      <point x="218" y="729" type="line"/>
      <point x="182" y="729" type="line"/>
    </contour>
  </outline>
</glyph>
<glyph name="m" format="2">
  <advance width="942"/>
  <unicode hex="006D"/>
  <anchor x="431" y="0" name="bottom"/>
  <anchor x="539" y="517" name="top"/>
  <outline>
    <contour>
      <point x="31" y="0" type="line"/>
      <point x="68" y="0" type="line"/>
      <point x="128" y="293" type="line" smooth="yes"/>
      <point x="153" y="415"/>
      <point x="239" y="493"/>
      <point x="344" y="493" type="curve" smooth="yes"/>
      <point x="449" y="493"/>
      <point x="492" y="424"/>
      <point x="464" y="288" type="curve" smooth="yes"/>
      <point x="404" y="0" type="line"/>
      <point x="441" y="0" type="line"/>
      <point x="502" y="291" type="line" smooth="yes"/>
      <point x="527" y="410"/>
      <point x="607" y="493"/>
      <point x="717" y="493" type="curve" smooth="yes"/>
      <point x="826" y="493"/>
      <point x="866" y="419"/>
      <point x="839" y="288" type="curve" smooth="yes"/>
      <point x="779" y="0" type="line"/>
      <point x="815" y="0" type="line"/>
      <point x="875" y="290" type="line" smooth="yes"/>
      <point x="909" y="448"/>
      <point x="843" y="527"/>
      <point x="728" y="527" type="curve" smooth="yes"/>
      <point x="644" y="527"/>
      <point x="565" y="487"/>
      <point x="516" y="394" type="curve"/>
      <point x="509" y="394" type="line"/>
      <point x="498" y="481"/>
      <point x="440" y="527"/>
      <point x="354" y="527" type="curve" smooth="yes"/>
      <point x="274" y="527"/>
      <point x="204" y="487"/>
      <point x="159" y="415" type="curve"/>
      <point x="154" y="415" type="line"/>
      <point x="170" y="517" type="line"/>
      <point x="139" y="517" type="line"/>
    </contour>
  </outline>
</glyph>
<glyph name="n" format="2">
  <advance width="568"/>
  <unicode hex="006E"/>
  <anchor x="244" y="0" name="bottom"/>
  <anchor x="352" y="517" name="top"/>
  <outline>
    <contour>
      <point x="31" y="0" type="line"/>
      <point x="66" y="0" type="line"/>
      <point x="127" y="293" type="line" smooth="yes"/>
      <point x="152" y="415"/>
      <point x="238" y="493"/>
      <point x="345" y="493" type="curve" smooth="yes"/>
      <point x="453" y="493"/>
      <point x="492" y="419"/>
      <point x="465" y="288" type="curve" smooth="yes"/>
      <point x="405" y="0" type="line"/>
      <point x="441" y="0" type="line"/>
      <point x="501" y="291" type="line" smooth="yes"/>
      <point x="532" y="440"/>
      <point x="474" y="527"/>
      <point x="354" y="527" type="curve" smooth="yes"/>
      <point x="281" y="527"/>
      <point x="206" y="493"/>
      <point x="158" y="415" type="curve"/>
      <point x="153" y="415" type="line"/>
      <point x="169" y="517" type="line"/>
      <point x="139" y="517" type="line"/>
    </contour>
  </outline>
</glyph>
<glyph name="o" format="2">
  <advance width="577"/>
  <unicode hex="006F"/>
  <anchor x="251" y="0" name="bottom"/>
  <anchor x="290" y="259" name="center"/>
  <anchor x="472" y="10" name="ogonek"/>
  <anchor x="327" y="517" name="top"/>
  <anchor x="414" y="507" name="topright"/>
  <outline>
    <contour>
      <point x="252" y="-10" type="curve" smooth="yes"/>
      <point x="410" y="-10"/>
      <point x="525" y="122"/>
      <point x="525" y="309" type="curve" smooth="yes"/>
      <point x="525" y="439"/>
      <point x="450" y="527"/>
      <point x="327" y="527" type="curve" smooth="yes"/>
      <point x="164" y="527"/>
      <point x="51" y="393"/>
      <point x="51" y="208" type="curve" smooth="yes"/>
      <point x="51" y="79"/>
      <point x="129" y="-10"/>
    </contour>
    <contour>
      <point x="256" y="23" type="curve" smooth="yes"/>
      <point x="150" y="23"/>
      <point x="84" y="93"/>
      <point x="88" y="219" type="curve" smooth="yes"/>
      <point x="94" y="385"/>
      <point x="186" y="494"/>
      <point x="322" y="494" type="curve" smooth="yes"/>
      <point x="428" y="494"/>
      <point x="495" y="420"/>
      <point x="491" y="297" type="curve" smooth="yes"/>
      <point x="485" y="134"/>
      <point x="392" y="23"/>
    </contour>
  </outline>
</glyph>
<glyph name="p" format="2">
  <advance width="586"/>
  <unicode hex="0070"/>
  <anchor x="234" y="0" name="bottom"/>
  <anchor x="342" y="517" name="top"/>
  <outline>
    <contour>
      <point x="-3" y="-167" type="line"/>
      <point x="33" y="-167" type="line"/>
      <point x="94" y="126" type="line"/>
      <point x="98" y="126" type="line"/>
      <point x="118" y="45"/>
      <point x="183" y="-9"/>
      <point x="274" y="-9" type="curve" smooth="yes"/>
      <point x="428" y="-9"/>
      <point x="532" y="112"/>
      <point x="532" y="316" type="curve" smooth="yes"/>
      <point x="532" y="443"/>
      <point x="458" y="527"/>
      <point x="347" y="527" type="curve" smooth="yes"/>
      <point x="269" y="527"/>
      <point x="197" y="491"/>
      <point x="155" y="414" type="curve"/>
      <point x="152" y="414" type="line"/>
      <point x="172" y="517" type="line"/>
      <point x="139" y="517" type="line"/>
    </contour>
    <contour>
      <point x="275" y="25" type="curve" smooth="yes"/>
      <point x="154" y="25"/>
      <point x="92" y="118"/>
      <point x="121" y="258" type="curve" smooth="yes"/>
      <point x="133" y="315" type="line" smooth="yes"/>
      <point x="156" y="422"/>
      <point x="233" y="493"/>
      <point x="342" y="493" type="curve" smooth="yes"/>
      <point x="439" y="493"/>
      <point x="494" y="421"/>
      <point x="494" y="312" type="curve" smooth="yes"/>
      <point x="494" y="142"/>
      <point x="413" y="25"/>
    </contour>
  </outline>
</glyph>
<glyph name="r" format="2">
  <advance width="349"/>
  <unicode hex="0072"/>
  <anchor x="49" y="0" name="bottom"/>
  <anchor x="235" y="517" name="top"/>
  <outline>
    <contour>
      <point x="31" y="0" type="line"/>
      <point x="67" y="0" type="line"/>
      <point x="138" y="336" type="line"/>
      <point x="166" y="432"/>
      <point x="243" y="488"/>
      <point x="327" y="488" type="curve" smooth="yes"/>
      <point x="344" y="488"/>
      <point x="363" y="486"/>
      <point x="372" y="481" type="curve"/>
      <point x="381" y="517" type="line"/>
      <point x="372" y="521"/>
      <point x="353" y="524"/>
      <point x="332" y="524" type="curve" smooth="yes"/>
      <point x="256" y="524"/>
      <point x="190" y="480"/>
      <point x="153" y="414" type="curve"/>
      <point x="150" y="414" type="line"/>
      <point x="169" y="517" type="line"/>
      <point x="139" y="517" type="line"/>
    </contour>
  </outline>
</glyph>
<glyph name="s" format="2">
  <advance width="485"/>
  <unicode hex="0073"/>
  <anchor x="213" y="0" name="bottom"/>
  <anchor x="264" y="517" name="top"/>
  <outline>
    <contour>
      <point x="215" y="-10" type="curve" smooth="yes"/>
      <point x="335" y="-10"/>
      <point x="409" y="46"/>
      <point x="409" y="143" type="curve" smooth="yes"/>
      <point x="409" y="223"/>
      <point x="360" y="260"/>
      <point x="260" y="282" type="curve" smooth="yes"/>
      <point x="161" y="304"/>
      <point x="125" y="328"/>
      <point x="125" y="387" type="curve" smooth="yes"/>
      <point x="125" y="453"/>
      <point x="177" y="494"/>
      <point x="259" y="494" type="curve" smooth="yes"/>
      <point x="353" y="494"/>
      <point x="412" y="448"/>
      <point x="407" y="373" type="curve"/>
      <point x="444" y="373" type="line"/>
      <point x="447" y="465"/>
      <point x="375" y="527"/>
      <point x="262" y="527" type="curve" smooth="yes"/>
      <point x="157" y="527"/>
      <point x="89" y="471"/>
      <point x="89" y="383" type="curve" smooth="yes"/>
      <point x="89" y="321"/>
      <point x="124" y="278"/>
      <point x="245" y="250" type="curve" smooth="yes"/>
      <point x="331" y="230"/>
      <point x="371" y="207"/>
      <point x="371" y="140" type="curve" smooth="yes"/>
      <point x="371" y="70"/>
      <point x="326" y="23"/>
      <point x="214" y="23" type="curve" smooth="yes"/>
      <point x="120" y="23"/>
      <point x="56" y="74"/>
      <point x="62" y="161" type="curve"/>
      <point x="27" y="161" type="line"/>
      <point x="21" y="58"/>
      <point x="90" y="-10"/>
    </contour>
  </outline>
</glyph>
<glyph name="t" format="2">
  <advance width="324"/>
  <unicode hex="0074"/>
  <anchor x="173" y="0" name="bottom"/>
  <anchor x="158" y="259" name="center"/>
  <anchor x="199" y="517" name="top"/>
  <anchor x="273" y="785" name="topright"/>
  <outline>
    <contour>
      <point x="183" y="0" type="curve" smooth="yes"/>
      <point x="238" y="0" type="line"/>
      <point x="245" y="33" type="line"/>
      <point x="198" y="33" type="line" smooth="yes"/>
      <point x="145" y="33"/>
      <point x="118" y="46"/>
      <point x="132" y="111" type="curve" smooth="yes"/>
      <point x="210" y="485" type="line"/>
      <point x="340" y="485" type="line"/>
      <point x="346" y="517" type="line"/>
      <point x="216" y="517" type="line"/>
      <point x="252" y="690" type="line"/>
      <point x="215" y="681" type="line"/>
      <point x="181" y="517" type="line"/>
      <point x="76" y="517" type="line"/>
      <point x="70" y="485" type="line"/>
      <point x="174" y="485" type="line"/>
      <point x="96" y="108" type="line" smooth="yes"/>
      <point x="81" y="34"/>
      <point x="112" y="0"/>
    </contour>
  </outline>
</glyph>
<glyph name="u" format="2">
  <advance width="569"/>
  <unicode hex="0075"/>
  <anchor x="235" y="0" name="bottom"/>
  <anchor x="430" y="0" name="ogonek"/>
  <anchor x="333" y="517" name="top"/>
  <anchor x="501" y="517" name="topright"/>
  <outline>
    <contour>
      <point x="215" y="-10" type="curve" smooth="yes"/>
      <point x="287" y="-10"/>
      <point x="362" y="25"/>
      <point x="411" y="103" type="curve"/>
      <point x="414" y="103" type="line"/>
      <point x="399" y="0" type="line"/>
      <point x="430" y="0" type="line"/>
      <point x="537" y="517" type="line"/>
      <point x="501" y="517" type="line"/>
      <point x="441" y="225" type="line" smooth="yes"/>
      <point x="415" y="98"/>
      <point x="327" y="24"/>
      <point x="223" y="24" type="curve" smooth="yes"/>
      <point x="115" y="24"/>
      <point x="76" y="98"/>
      <point x="104" y="230" type="curve" smooth="yes"/>
      <point x="164" y="517" type="line"/>
      <point x="127" y="517" type="line"/>
      <point x="66" y="227" type="line" smooth="yes"/>
      <point x="33" y="69"/>
      <point x="101" y="-10"/>
    </contour>
  </outline>
</glyph>
<glyph name="v" format="2">
  <advance width="478"/>
  <unicode hex="0076"/>
  <anchor x="196" y="0" name="bottom"/>
  <anchor x="304" y="517" name="top"/>
  <outline>
    <contour>
      <point x="163" y="0" type="line"/>
      <point x="204" y="0" type="line"/>
      <point x="506" y="517" type="line"/>
      <point x="462" y="517" type="line"/>
      <point x="245" y="131" type="line"/>
      <point x="193" y="39" type="line"/>
      <point x="190" y="39" type="line"/>
      <point x="176" y="135" type="line"/>
      <point x="119" y="517" type="line"/>
      <point x="81" y="517" type="line"/>
    </contour>
  </outline>
</glyph>
<glyph name="w" format="2">
  <advance width="706"/>
  <unicode hex="0077"/>
  <anchor x="310" y="0" name="bottom"/>
  <anchor x="405" y="517" name="top"/>
  <outline>
    <contour>
      <point x="120" y="0" type="line"/>
      <point x="174" y="0" type="line"/>
      <point x="336" y="344" type="line"/>
      <point x="395" y="471" type="line"/>
      <point x="398" y="471" type="line"/>
      <point x="408" y="340" type="line"/>
      <point x="435" y="0" type="line"/>
      <point x="480" y="0" type="line"/>
      <point x="729" y="517" type="line"/>
      <point x="692" y="517" type="line"/>
      <point x="530" y="176" type="line"/>
      <point x="464" y="38" type="line"/>
      <point x="462" y="38" type="line"/>
      <point x="451" y="190" type="line"/>
      <point x="427" y="517" type="line"/>
      <point x="383" y="517" type="line"/>
      <point x="219" y="173" type="line"/>
      <point x="154" y="37" type="line"/>
      <point x="152" y="37" type="line"/>
      <point x="143" y="163" type="line"/>
      <point x="119" y="517" type="line"/>
      <point x="86" y="517" type="line"/>
    </contour>
  </outline>
</glyph>
<glyph name="x" format="2">
  <advance width="503"/>
  <unicode hex="0078"/>
  <anchor x="209" y="0" name="bottom"/>
  <anchor x="317" y="517" name="top"/>
  <outline>
    <contour>
      <point x="-32" y="0" type="line"/>
      <point x="12" y="0" type="line"/>
      <point x="232" y="232" type="line"/>
      <point x="250" y="251" type="line"/>
      <point x="253" y="251" type="line"/>
      <point x="263" y="232" type="line"/>
      <point x="384" y="0" type="line"/>
      <point x="426" y="0" type="line"/>
      <point x="279" y="275" type="line"/>
      <point x="505" y="517" type="line"/>
      <point x="461" y="517" type="line"/>
      <point x="279" y="322" type="line"/>
      <point x="260" y="302" type="line"/>
      <point x="256" y="302" type="line"/>
      <point x="246" y="322" type="line"/>
      <point x="142" y="517" type="line"/>
      <point x="102" y="517" type="line"/>
      <point x="231" y="278" type="line"/>
    </contour>
  </outline>
</glyph>
<glyph name="y" format="2">
  <advance width="479"/>
  <unicode hex="0079"/>
  <anchor x="297" y="0" name="bottom"/>
  <anchor x="291" y="517" name="top"/>
  <outline>
    <contour>
      <point x="-42" y="-167" type="line"/>
      <point x="-6" y="-167" type="line" smooth="yes"/>
      <point x="59" y="-167"/>
      <point x="104" y="-152"/>
      <point x="147" y="-81" type="curve" smooth="yes"/>
      <point x="507" y="517" type="line"/>
      <point x="465" y="517" type="line"/>
      <point x="317" y="267" type="line"/>
      <point x="206" y="72" type="line"/>
      <point x="201" y="72" type="line"/>
      <point x="166" y="267" type="line"/>
      <point x="117" y="517" type="line"/>
      <point x="80" y="517" type="line"/>
      <point x="181" y="16" type="line"/>
      <point x="183" y="40" type="line"/>
      <point x="117" y="-67" type="line" smooth="yes"/>
      <point x="80" y="-127"/>
      <point x="48" y="-134"/>
      <point x="-12" y="-134" type="curve" smooth="yes"/>
      <point x="-35" y="-134" type="line"/>
    </contour>
  </outline>
</glyph>
<glyph name="z" format="2">
  <advance width="469"/>
  <unicode hex="007A"/>
  <anchor x="191" y="0" name="bottom"/>
  <anchor x="245" y="259" name="center"/>
  <anchor x="299" y="517" name="top"/>
  <outline>
    <contour>
      <point x="-24" y="0" type="line"/>
      <point x="384" y="0" type="line"/>
      <point x="390" y="32" type="line"/>
      <point x="32" y="32" type="line"/>
      <point x="475" y="487" type="line"/>
      <point x="481" y="517" type="line"/>
      <point x="95" y="517" type="line"/>
      <point x="88" y="485" type="line"/>
      <point x="427" y="485" type="line"/>
      <point x="-18" y="29" type="line"/>
    </contour>
  </outline>
</glyph>
<glyph name="braceleft" format="2">
  <advance width="373"/>
  <unicode hex="007B"/>
  <outline>
    <contour>
      <point x="82" y="-167" type="curve" smooth="yes"/>
      <point x="243" y="-167" type="line"/>
      <point x="250" y="-135" type="line"/>
      <point x="84" y="-135" type="line"/>
      <point x="156" y="208" type="line" smooth="yes"/>
      <point x="169" y="267"/>
      <point x="145" y="309"/>
      <point x="109" y="311" type="curve"/>
      <point x="109" y="315" type="line"/>
      <point x="145" y="316"/>
      <point x="188" y="356"/>
      <point x="200" y="417" type="curve" smooth="yes"/>
      <point x="272" y="761" type="line"/>
      <point x="438" y="761" type="line"/>
      <point x="445" y="793" type="line"/>
      <point x="284" y="793" type="line" smooth="yes"/>
      <point x="256" y="793"/>
      <point x="239" y="775"/>
      <point x="234" y="750" type="curve" smooth="yes"/>
      <point x="164" y="417" type="line" smooth="yes"/>
      <point x="152" y="361"/>
      <point x="115" y="331"/>
      <point x="84" y="331" type="curve" smooth="yes"/>
      <point x="53" y="331" type="line"/>
      <point x="46" y="294" type="line"/>
      <point x="77" y="294" type="line" smooth="yes"/>
      <point x="107" y="294"/>
      <point x="132" y="264"/>
      <point x="121" y="209" type="curve" smooth="yes"/>
      <point x="51" y="-124" type="line" smooth="yes"/>
      <point x="46" y="-149"/>
      <point x="55" y="-167"/>
    </contour>
  </outline>
</glyph>
<glyph name="asciitilde" format="2">
  <advance width="600"/>
  <unicode hex="007E"/>
  <outline>
    <contour>
      <point x="104" y="301" type="curve"/>
      <point x="133" y="301" type="line"/>
      <point x="138" y="340"/>
      <point x="161" y="363"/>
      <point x="189" y="363" type="curve" smooth="yes"/>
      <point x="231" y="363"/>
      <point x="283" y="315"/>
      <point x="340" y="315" type="curve" smooth="yes"/>
      <point x="389" y="315"/>
      <point x="434" y="343"/>
      <point x="445" y="421" type="curve"/>
      <point x="416" y="421" type="line"/>
      <point x="408" y="378"/>
      <point x="385" y="357"/>
      <point x="350" y="357" type="curve" smooth="yes"/>
      <point x="299" y="357"/>
      <point x="251" y="405"/>
      <point x="198" y="405" type="curve" smooth="yes"/>
      <point x="155" y="405"/>
      <point x="114" y="377"/>
    </contour>
  </outline>
</glyph>
<glyph name="cent" format="2">
  <advance width="582"/>
  <unicode hex="00A2"/>
  <outline>
    <contour>
      <point x="286" y="96" type="curve" smooth="yes"/>
      <point x="399" y="96"/>
      <point x="498" y="163"/>
      <point x="526" y="271" type="curve"/>
      <point x="489" y="271" type="line"/>
      <point x="465" y="186"/>
      <point x="388" y="129"/>
      <point x="289" y="129" type="curve" smooth="yes"/>
      <point x="184" y="129"/>
      <point x="119" y="201"/>
      <point x="123" y="326" type="curve" smooth="yes"/>
      <point x="129" y="491"/>
      <point x="222" y="600"/>
      <point x="358" y="600" type="curve" smooth="yes"/>
      <point x="453" y="600"/>
      <point x="518" y="541"/>
      <point x="522" y="457" type="curve"/>
      <point x="555" y="457" type="line"/>
      <point x="555" y="560"/>
      <point x="476" y="633"/>
      <point x="363" y="633" type="curve" smooth="yes"/>
      <point x="206" y="633"/>
      <point x="93" y="508"/>
      <point x="86" y="326" type="curve" smooth="yes"/>
      <point x="82" y="187"/>
      <point x="161" y="96"/>
    </contour>
    <contour>
      <point x="226" y="0" type="line"/>
      <point x="259" y="0" type="line"/>
      <point x="282" y="113" type="line"/>
      <point x="249" y="113" type="line"/>
    </contour>
    <contour>
      <point x="353" y="617" type="line"/>
      <point x="386" y="617" type="line"/>
      <point x="409" y="729" type="line"/>
      <point x="376" y="729" type="line"/>
    </contour>
  </outline>
</glyph>
<glyph name="sterling" format="2">
  <advance width="622"/>
  <unicode hex="00A3"/>
  <outline>
    <contour>
      <point x="42" y="33" type="curve"/>
      <point x="66" y="18" type="line"/>
      <point x="188" y="109"/>
      <point x="227" y="201"/>
      <point x="227" y="313" type="curve" smooth="yes"/>
      <point x="227" y="387"/>
      <point x="210" y="433"/>
      <point x="210" y="493" type="curve" smooth="yes"/>
      <point x="210" y="631"/>
      <point x="290" y="696"/>
      <point x="411" y="696" type="curve" smooth="yes"/>
      <point x="510" y="696"/>
      <point x="573" y="635"/>
      <point x="568" y="527" type="curve"/>
      <point x="609" y="527" type="line"/>
      <point x="614" y="649"/>
      <point x="539" y="731"/>
      <point x="408" y="731" type="curve" smooth="yes"/>
      <point x="267" y="731"/>
      <point x="169" y="644"/>
      <point x="169" y="489" type="curve" smooth="yes"/>
      <point x="169" y="426"/>
      <point x="185" y="371"/>
      <point x="185" y="305" type="curve" smooth="yes"/>
      <point x="185" y="216"/>
      <point x="156" y="129"/>
    </contour>
    <contour>
      <point x="-1" y="0" type="line"/>
      <point x="491" y="0" type="line"/>
      <point x="528" y="178" type="line"/>
      <point x="492" y="178" type="line"/>
      <point x="462" y="36" type="line"/>
      <point x="6" y="36" type="line"/>
    </contour>
    <contour>
      <point x="90" y="345" type="line"/>
      <point x="451" y="345" type="line"/>
      <point x="459" y="380" type="line"/>
      <point x="98" y="380" type="line"/>
    </contour>
  </outline>
</glyph>
<glyph name="currency" format="2">
  <advance width="668"/>
  <unicode hex="00A4"/>
  <outline>
    <contour>
      <point x="120" y="97" type="line"/>
      <point x="230" y="207" type="line"/>
      <point x="261" y="182"/>
      <point x="302" y="167"/>
      <point x="346" y="167" type="curve" smooth="yes"/>
      <point x="389" y="167"/>
      <point x="431" y="182"/>
      <point x="463" y="208" type="curve"/>
      <point x="567" y="97" type="line"/>
      <point x="593" y="120" type="line"/>
      <point x="488" y="231" type="line"/>
      <point x="516" y="261"/>
      <point x="533" y="305"/>
      <point x="534" y="348" type="curve" smooth="yes"/>
      <point x="536" y="395"/>
      <point x="521" y="437"/>
      <point x="497" y="468" type="curve"/>
      <point x="609" y="577" type="line"/>
      <point x="585" y="602" type="line"/>
      <point x="473" y="491" type="line"/>
      <point x="443" y="516"/>
      <point x="402" y="529"/>
      <point x="358" y="529" type="curve" smooth="yes"/>
      <point x="311" y="529"/>
      <point x="271" y="514"/>
      <point x="241" y="491" type="curve"/>
      <point x="137" y="602" type="line"/>
      <point x="112" y="577" type="line"/>
      <point x="215" y="468" type="line"/>
      <point x="188" y="437"/>
      <point x="170" y="395"/>
      <point x="168" y="348" type="curve" smooth="yes"/>
      <point x="166" y="302"/>
      <point x="182" y="260"/>
      <point x="205" y="231" type="curve"/>
      <point x="96" y="120" type="line"/>
    </contour>
    <contour>
      <point x="347" y="203" type="curve" smooth="yes"/>
      <point x="261" y="203"/>
      <point x="202" y="265"/>
      <point x="205" y="349" type="curve" smooth="yes"/>
      <point x="208" y="435"/>
      <point x="272" y="496"/>
      <point x="357" y="496" type="curve" smooth="yes"/>
      <point x="441" y="496"/>
      <point x="502" y="435"/>
      <point x="499" y="349" type="curve" smooth="yes"/>
      <point x="496" y="265"/>
      <point x="432" y="203"/>
    </contour>
  </outline>
</glyph>
<glyph name="yen" format="2">
  <advance width="623"/>
  <unicode hex="00A5"/>
  <outline>
    <contour>
      <point x="236" y="0" type="line"/>
      <point x="272" y="0" type="line"/>
      <point x="306" y="159" type="line"/>
      <point x="492" y="159" type="line"/>
      <point x="498" y="192" type="line"/>
      <point x="313" y="192" type="line"/>
      <point x="337" y="311" type="line"/>
      <point x="523" y="311" type="line"/>
      <point x="529" y="344" type="line"/>
      <point x="365" y="344" type="line"/>
      <point x="675" y="729" type="line"/>
      <point x="631" y="729" type="line"/>
      <point x="327" y="345" type="line"/>
      <point x="324" y="345" type="line"/>
      <point x="180" y="729" type="line"/>
      <point x="144" y="729" type="line"/>
      <point x="290" y="344" type="line"/>
      <point x="120" y="344" type="line"/>
      <point x="114" y="311" type="line"/>
      <point x="301" y="311" type="line"/>
      <point x="277" y="192" type="line"/>
      <point x="89" y="192" type="line"/>
      <point x="83" y="159" type="line"/>
      <point x="270" y="159" type="line"/>
    </contour>
  </outline>
</glyph>
<glyph name="brokenbar" format="2">
  <advance width="258"/>
  <unicode hex="00A6"/>
  <outline>
    <contour>
      <point x="144" y="417" type="line"/>
      <point x="180" y="417" type="line"/>
      <point x="245" y="729" type="line"/>
      <point x="210" y="729" type="line"/>
    </contour>
    <contour>
      <point x="43" y="-67" type="line"/>
      <point x="79" y="-67" type="line"/>
      <point x="144" y="245" type="line"/>
      <point x="109" y="245" type="line"/>
    </contour>
  </outline>
</glyph>
<glyph name="section" format="2">
  <advance width="551"/>
  <unicode hex="00A7"/>
  <outline>
    <contour>
      <point x="242" y="-10" type="curve" smooth="yes"/>
      <point x="360" y="-10"/>
      <point x="439" y="48"/>
      <point x="439" y="152" type="curve" smooth="yes"/>
      <point x="439" y="183"/>
      <point x="428" y="207"/>
      <point x="409" y="225" type="curve"/>
      <point x="461" y="253"/>
      <point x="490" y="297"/>
      <point x="490" y="353" type="curve" smooth="yes"/>
      <point x="490" y="437"/>
      <point x="427" y="469"/>
      <point x="340" y="490" type="curve" smooth="yes"/>
      <point x="252" y="511"/>
      <point x="205" y="535"/>
      <point x="205" y="589" type="curve" smooth="yes"/>
      <point x="205" y="658"/>
      <point x="259" y="704"/>
      <point x="349" y="704" type="curve" smooth="yes"/>
      <point x="443" y="704"/>
      <point x="502" y="658"/>
      <point x="497" y="583" type="curve"/>
      <point x="534" y="583" type="line"/>
      <point x="537" y="675"/>
      <point x="465" y="737"/>
      <point x="352" y="737" type="curve" smooth="yes"/>
      <point x="252" y="737"/>
      <point x="167" y="684"/>
      <point x="167" y="586" type="curve" smooth="yes"/>
      <point x="167" y="551"/>
      <point x="178" y="526"/>
      <point x="203" y="505" type="curve"/>
      <point x="151" y="479"/>
      <point x="116" y="429"/>
      <point x="116" y="377" type="curve" smooth="yes"/>
      <point x="116" y="303"/>
      <point x="169" y="270"/>
      <point x="268" y="246" type="curve" smooth="yes"/>
      <point x="358" y="224"/>
      <point x="400" y="201"/>
      <point x="400" y="147" type="curve" smooth="yes"/>
      <point x="400" y="67"/>
      <point x="344" y="23"/>
      <point x="244" y="23" type="curve" smooth="yes"/>
      <point x="140" y="23"/>
      <point x="76" y="74"/>
      <point x="82" y="161" type="curve"/>
      <point x="47" y="161" type="line"/>
      <point x="41" y="58"/>
      <point x="110" y="-10"/>
    </contour>
    <contour>
      <point x="385" y="243" type="curve"/>
      <point x="356" y="261"/>
      <point x="319" y="272"/>
      <point x="280" y="281" type="curve" smooth="yes"/>
      <point x="196" y="300"/>
      <point x="154" y="325"/>
      <point x="154" y="378" type="curve" smooth="yes"/>
      <point x="154" y="428"/>
      <point x="185" y="464"/>
      <point x="232" y="489" type="curve"/>
      <point x="255" y="475"/>
      <point x="286" y="466"/>
      <point x="328" y="456" type="curve" smooth="yes"/>
      <point x="413" y="435"/>
      <point x="451" y="408"/>
      <point x="451" y="348" type="curve" smooth="yes"/>
      <point x="451" y="301"/>
      <point x="427" y="268"/>
    </contour>
  </outline>
</glyph>
<glyph name="ordfeminine" format="2">
  <advance width="444"/>
  <unicode hex="00AA"/>
  <outline>
    <contour>
      <point x="237" y="385" type="curve" smooth="yes"/>
      <point x="288" y="385"/>
      <point x="336" y="411"/>
      <point x="363" y="457" type="curve"/>
      <point x="365" y="457" type="line"/>
      <point x="352" y="392" type="line"/>
      <point x="387" y="392" type="line"/>
      <point x="457" y="730" type="line"/>
      <point x="424" y="730" type="line"/>
      <point x="405" y="646" type="line"/>
      <point x="403" y="646" type="line"/>
      <point x="394" y="699"/>
      <point x="353" y="736"/>
      <point x="291" y="736" type="curve" smooth="yes"/>
      <point x="194" y="736"/>
      <point x="122" y="646"/>
      <point x="122" y="520" type="curve" smooth="yes"/>
      <point x="122" y="437"/>
      <point x="166" y="385"/>
    </contour>
    <contour>
      <point x="251" y="416" type="curve" smooth="yes"/>
      <point x="194" y="416"/>
      <point x="158" y="455"/>
      <point x="158" y="525" type="curve" smooth="yes"/>
      <point x="158" y="629"/>
      <point x="218" y="705"/>
      <point x="296" y="705" type="curve" smooth="yes"/>
      <point x="365" y="705"/>
      <point x="403" y="645"/>
      <point x="389" y="575" type="curve" smooth="yes"/>
      <point x="380" y="529" type="line" smooth="yes"/>
      <point x="368" y="468"/>
      <point x="318" y="416"/>
    </contour>
  </outline>
</glyph>
<glyph name="guillemetleft" format="2">
  <advance width="403"/>
  <unicode hex="00AB"/>
  <outline>
    <contour>
      <point x="143" y="80" type="line"/>
      <point x="172" y="80" type="line"/>
      <point x="99" y="298" type="line"/>
      <point x="245" y="517" type="line"/>
      <point x="210" y="517" type="line"/>
      <point x="62" y="298" type="line"/>
    </contour>
    <contour>
      <point x="287" y="79" type="line"/>
      <point x="316" y="79" type="line"/>
      <point x="243" y="298" type="line"/>
      <point x="390" y="517" type="line"/>
      <point x="356" y="517" type="line"/>
      <point x="206" y="298" type="line"/>
    </contour>
  </outline>
</glyph>
<glyph name="logicalnot" format="2">
  <advance width="600"/>
  <unicode hex="00AC"/>
  <outline>
    <contour>
      <point x="455" y="153" type="line"/>
      <point x="487" y="153" type="line"/>
      <point x="538" y="397" type="line"/>
      <point x="68" y="397" type="line"/>
      <point x="61" y="365" type="line"/>
      <point x="499" y="365" type="line"/>
    </contour>
  </outline>
</glyph>
<glyph name="registered" format="2">
  <advance width="659"/>
  <unicode hex="00AE"/>
  <outline>
    <contour>
      <point x="356" y="231" type="curve" smooth="yes"/>
      <point x="505" y="231"/>
      <point x="630" y="352"/>
      <point x="630" y="506" type="curve" smooth="yes"/>
      <point x="630" y="651"/>
      <point x="528" y="738"/>
      <point x="396" y="738" type="curve" smooth="yes"/>
      <point x="247" y="738"/>
      <point x="122" y="617"/>
      <point x="122" y="463" type="curve" smooth="yes"/>
      <point x="122" y="318"/>
      <point x="224" y="231"/>
    </contour>
    <contour>
      <point x="357" y="259" type="curve" smooth="yes"/>
      <point x="232" y="259"/>
      <point x="152" y="340"/>
      <point x="152" y="463" type="curve" smooth="yes"/>
      <point x="152" y="601"/>
      <point x="258" y="710"/>
      <point x="395" y="710" type="curve" smooth="yes"/>
      <point x="520" y="710"/>
      <point x="600" y="629"/>
      <point x="600" y="506" type="curve" smooth="yes"/>
      <point x="600" y="368"/>
      <point x="494" y="259"/>
    </contour>
    <contour>
      <point x="256" y="349" type="line"/>
      <point x="282" y="349" type="line"/>
      <point x="335" y="597" type="line"/>
      <point x="421" y="597" type="line" smooth="yes"/>
      <point x="458" y="597"/>
      <point x="476" y="580"/>
      <point x="475" y="549" type="curve" smooth="yes"/>
      <point x="474" y="517"/>
      <point x="451" y="492"/>
      <point x="406" y="492" type="curve" smooth="yes"/>
      <point x="307" y="492" type="line"/>
      <point x="303" y="467" type="line"/>
      <point x="410" y="467" type="line" smooth="yes"/>
      <point x="439" y="467"/>
      <point x="450" y="456"/>
      <point x="442" y="418" type="curve" smooth="yes"/>
      <point x="434" y="379" type="line" smooth="yes"/>
      <point x="432" y="370"/>
      <point x="431" y="354"/>
      <point x="432" y="349" type="curve"/>
      <point x="459" y="349" type="line"/>
      <point x="458" y="358"/>
      <point x="459" y="367"/>
      <point x="461" y="375" type="curve" smooth="yes"/>
      <point x="470" y="422" type="line" smooth="yes"/>
      <point x="476" y="451"/>
      <point x="467" y="470"/>
      <point x="444" y="479" type="curve"/>
      <point x="444" y="480" type="line"/>
      <point x="476" y="489"/>
      <point x="503" y="513"/>
      <point x="504" y="552" type="curve" smooth="yes"/>
      <point x="505" y="593"/>
      <point x="477" y="621"/>
      <point x="430" y="621" type="curve" smooth="yes"/>
      <point x="314" y="621" type="line"/>
    </contour>
  </outline>
</glyph>
<glyph name="degree" format="2">
  <advance width="474"/>
  <unicode hex="00B0"/>
  <outline>
    <contour>
      <point x="300" y="443" type="curve" smooth="yes"/>
      <point x="387" y="443"/>
      <point x="457" y="506"/>
      <point x="457" y="596" type="curve" smooth="yes"/>
      <point x="457" y="680"/>
      <point x="394" y="737"/>
      <point x="309" y="737" type="curve" smooth="yes"/>
      <point x="223" y="737"/>
      <point x="154" y="675"/>
      <point x="154" y="584" type="curve" smooth="yes"/>
      <point x="154" y="501"/>
      <point x="217" y="443"/>
    </contour>
    <contour>
      <point x="300" y="478" type="curve" smooth="yes"/>
      <point x="237" y="478"/>
      <point x="191" y="522"/>
      <point x="191" y="586" type="curve" smooth="yes"/>
      <point x="191" y="654"/>
      <point x="243" y="702"/>
      <point x="308" y="702" type="curve" smooth="yes"/>
      <point x="372" y="702"/>
      <point x="419" y="658"/>
      <point x="419" y="594" type="curve" smooth="yes"/>
      <point x="419" y="526"/>
      <point x="367" y="478"/>
    </contour>
  </outline>
</glyph>
<glyph name="plusminus" format="2">
  <advance width="600"/>
  <unicode hex="00B1"/>
  <outline>
    <contour>
      <point x="263" y="162" type="line"/>
      <point x="297" y="162" type="line"/>
      <point x="339" y="365" type="line"/>
      <point x="558" y="365" type="line"/>
      <point x="565" y="397" type="line"/>
      <point x="346" y="397" type="line"/>
      <point x="388" y="600" type="line"/>
      <point x="355" y="600" type="line"/>
      <point x="312" y="397" type="line"/>
      <point x="92" y="397" type="line"/>
      <point x="85" y="365" type="line"/>
      <point x="305" y="365" type="line"/>
    </contour>
    <contour>
      <point x="9" y="0" type="line"/>
      <point x="482" y="0" type="line"/>
      <point x="489" y="32" type="line"/>
      <point x="16" y="32" type="line"/>
    </contour>
  </outline>
</glyph>
<glyph name="paragraph" format="2">
  <advance width="621"/>
  <unicode hex="00B6"/>
  <outline>
    <contour>
      <point x="307" y="0" type="line"/>
      <point x="345" y="0" type="line"/>
      <point x="345" y="693" type="line"/>
      <point x="470" y="693" type="line"/>
      <point x="470" y="0" type="line"/>
      <point x="508" y="0" type="line"/>
      <point x="508" y="693" type="line"/>
      <point x="618" y="693" type="line"/>
      <point x="618" y="729" type="line"/>
      <point x="307" y="729" type="line" smooth="yes"/>
      <point x="196" y="729"/>
      <point x="126" y="672"/>
      <point x="126" y="571" type="curve" smooth="yes"/>
      <point x="126" y="471"/>
      <point x="191" y="405"/>
      <point x="307" y="406" type="curve"/>
    </contour>
  </outline>
</glyph>
<glyph name="periodcentered" format="2">
  <advance width="195"/>
  <unicode hex="00B7"/>
  <outline>
    <contour>
      <point x="102" y="232" type="curve" smooth="yes"/>
      <point x="130" y="232"/>
      <point x="147" y="251"/>
      <point x="147" y="277" type="curve" smooth="yes"/>
      <point x="147" y="303"/>
      <point x="130" y="322"/>
      <point x="102" y="322" type="curve" smooth="yes"/>
      <point x="75" y="322"/>
      <point x="56" y="303"/>
      <point x="56" y="277" type="curve" smooth="yes"/>
      <point x="56" y="251"/>
      <point x="75" y="232"/>
    </contour>
  </outline>
</glyph>
<glyph name="ordmasculine" format="2">
  <advance width="428"/>
  <unicode hex="00BA"/>
  <anchor x="248" y="392" name="bottom"/>
  <anchor x="277" y="561" name="center"/>
  <anchor x="397" y="399" name="ogonek"/>
  <anchor x="303" y="730" name="top"/>
  <anchor x="489" y="730" name="topright"/>
  <outline>
    <contour>
      <point x="254" y="385" type="curve" smooth="yes"/>
      <point x="356" y="385"/>
      <point x="429" y="467"/>
      <point x="433" y="586" type="curve" smooth="yes"/>
      <point x="436" y="682"/>
      <point x="382" y="737"/>
      <point x="301" y="737" type="curve" smooth="yes"/>
      <point x="198" y="737"/>
      <point x="124" y="656"/>
      <point x="120" y="536" type="curve" smooth="yes"/>
      <point x="117" y="442"/>
      <point x="173" y="385"/>
    </contour>
    <contour>
      <point x="257" y="416" type="curve" smooth="yes"/>
      <point x="189" y="416"/>
      <point x="152" y="463"/>
      <point x="155" y="536" type="curve" smooth="yes"/>
      <point x="159" y="642"/>
      <point x="217" y="707"/>
      <point x="298" y="707" type="curve" smooth="yes"/>
      <point x="362" y="707"/>
      <point x="403" y="661"/>
      <point x="400" y="586" type="curve" smooth="yes"/>
      <point x="397" y="489"/>
      <point x="342" y="416"/>
    </contour>
  </outline>
</glyph>
<glyph name="AE" format="2">
  <advance width="920"/>
  <unicode hex="00C6"/>
  <anchor x="406" y="0" name="bottom"/>
  <anchor x="557" y="729" name="top"/>
  <outline>
    <contour>
      <point x="-23" y="0" type="line"/>
      <point x="19" y="0" type="line"/>
      <point x="136.007" y="200" type="line"/>
      <point x="506" y="200" type="line"/>
      <point x="540" y="0" type="line"/>
      <point x="829" y="0" type="line"/>
      <point x="836" y="36" type="line"/>
      <point x="572" y="36" type="line"/>
      <point x="516" y="358" type="line"/>
      <point x="858" y="358" type="line"/>
      <point x="865" y="392" type="line"/>
      <point x="510" y="392" type="line"/>
      <point x="458" y="693" type="line"/>
      <point x="973" y="693" type="line"/>
      <point x="980" y="729" type="line"/>
      <point x="404" y="729" type="line"/>
    </contour>
    <contour>
      <point x="155" y="233" type="line"/>
      <point x="363" y="588" type="line"/>
      <point x="420" y="690" type="line"/>
      <point x="423" y="690" type="line"/>
      <point x="442" y="583" type="line"/>
      <point x="501" y="233" type="line"/>
    </contour>
  </outline>
</glyph>
<glyph name="multiply" format="2">
  <advance width="600"/>
  <unicode hex="00D7"/>
  <outline>
    <contour>
      <point x="114" y="166" type="line"/>
      <point x="322" y="340" type="line"/>
      <point x="455" y="168" type="line"/>
      <point x="480" y="190" type="line"/>
      <point x="347" y="361" type="line"/>
      <point x="551" y="532" type="line"/>
      <point x="531" y="557" type="line"/>
      <point x="326" y="385" type="line"/>
      <point x="193" y="556" type="line"/>
      <point x="168" y="534" type="line"/>
      <point x="300" y="364" type="line"/>
      <point x="93" y="191" type="line"/>
    </contour>
  </outline>
</glyph>
<glyph name="germandbls" format="2">
  <advance width="634"/>
  <unicode hex="00DF"/>
  <outline>
    <contour>
      <point x="74" y="0" type="line"/>
      <point x="113" y="0" type="line"/>
      <point x="223" y="527" type="line" smooth="yes"/>
      <point x="246" y="636"/>
      <point x="312" y="700"/>
      <point x="416" y="700" type="curve" smooth="yes"/>
      <point x="508" y="700"/>
      <point x="567" y="649"/>
      <point x="564" y="558" type="curve" smooth="yes"/>
      <point x="561" y="467"/>
      <point x="498" y="407"/>
      <point x="389" y="407" type="curve" smooth="yes"/>
      <point x="331" y="407" type="line"/>
      <point x="324" y="372" type="line"/>
      <point x="390" y="372" type="line" smooth="yes"/>
      <point x="497" y="372"/>
      <point x="558" y="306"/>
      <point x="536" y="192" type="curve" smooth="yes"/>
      <point x="515" y="97"/>
      <point x="451" y="34"/>
      <point x="320" y="34" type="curve" smooth="yes"/>
      <point x="200" y="34" type="line"/>
      <point x="193" y="0" type="line"/>
      <point x="316" y="0" type="line" smooth="yes"/>
      <point x="453" y="0"/>
      <point x="554" y="68"/>
      <point x="573" y="189" type="curve" smooth="yes"/>
      <point x="589" y="290"/>
      <point x="550" y="364"/>
      <point x="459" y="387" type="curve"/>
      <point x="460" y="392" type="line"/>
      <point x="537" y="409"/>
      <point x="599" y="476"/>
      <point x="602" y="560" type="curve" smooth="yes"/>
      <point x="606" y="673"/>
      <point x="529" y="736"/>
      <point x="418" y="736" type="curve" smooth="yes"/>
      <point x="306" y="736"/>
      <point x="213" y="670"/>
      <point x="185" y="536" type="curve" smooth="yes"/>
    </contour>
    <contour>
      <point x="70" y="483" type="line"/>
      <point x="182" y="483" type="line"/>
      <point x="190" y="517" type="line"/>
      <point x="77" y="517" type="line"/>
    </contour>
  </outline>
</glyph>
<glyph name="ae" format="2">
  <advance width="901"/>
  <unicode hex="00E6"/>
  <outline>
    <contour>
      <point x="189" y="-10" type="curve" smooth="yes"/>
      <point x="282" y="-10"/>
      <point x="369" y="38"/>
      <point x="405" y="131" type="curve"/>
      <point x="409" y="131" type="line"/>
      <point x="431" y="46"/>
      <point x="501" y="-10"/>
      <point x="595" y="-10" type="curve" smooth="yes"/>
      <point x="709" y="-10"/>
      <point x="802" y="55"/>
      <point x="828" y="153" type="curve"/>
      <point x="791" y="153" type="line"/>
      <point x="766" y="76"/>
      <point x="695" y="24"/>
      <point x="598" y="24" type="curve" smooth="yes"/>
      <point x="480" y="24"/>
      <point x="416" y="119"/>
      <point x="440" y="262" type="curve" smooth="yes"/>
      <point x="443" y="280" type="line" smooth="yes"/>
      <point x="467" y="425"/>
      <point x="562" y="494"/>
      <point x="665" y="494" type="curve" smooth="yes"/>
      <point x="772" y="494"/>
      <point x="832" y="422"/>
      <point x="813" y="293" type="curve"/>
      <point x="437" y="293" type="line"/>
      <point x="431" y="261" type="line"/>
      <point x="844" y="261" type="line"/>
      <point x="875" y="421"/>
      <point x="804" y="527"/>
      <point x="666" y="527" type="curve" smooth="yes"/>
      <point x="580" y="527"/>
      <point x="503" y="485"/>
      <point x="458" y="413" type="curve"/>
      <point x="455" y="413" type="line"/>
      <point x="437" y="479"/>
      <point x="377" y="527"/>
      <point x="279" y="527" type="curve" smooth="yes"/>
      <point x="179" y="527"/>
      <point x="100" y="475"/>
      <point x="77" y="383" type="curve"/>
      <point x="114" y="383" type="line"/>
      <point x="130" y="450"/>
      <point x="185" y="494"/>
      <point x="279" y="494" type="curve" smooth="yes"/>
      <point x="378" y="494"/>
      <point x="441" y="438"/>
      <point x="418" y="318" type="curve" smooth="yes"/>
      <point x="393" y="188" type="line" smooth="yes"/>
      <point x="374" y="88"/>
      <point x="301" y="22"/>
      <point x="194" y="22" type="curve" smooth="yes"/>
      <point x="119" y="22"/>
      <point x="68" y="58"/>
      <point x="68" y="131" type="curve" smooth="yes"/>
      <point x="68" y="214"/>
      <point x="136" y="261"/>
      <point x="253" y="261" type="curve" smooth="yes"/>
      <point x="416" y="261" type="line"/>
      <point x="422" y="294" type="line"/>
      <point x="259" y="294" type="line" smooth="yes"/>
      <point x="123" y="294"/>
      <point x="32" y="241"/>
      <point x="32" y="126" type="curve" smooth="yes"/>
      <point x="32" y="44"/>
      <point x="90" y="-10"/>
    </contour>
  </outline>
</glyph>
<glyph name="eth" format="2">
  <advance width="554"/>
  <unicode hex="00F0"/>
  <outline>
    <contour>
      <point x="250" y="-10" type="curve" smooth="yes"/>
      <point x="374" y="-10"/>
      <point x="468" y="80"/>
      <point x="493" y="223" type="curve" smooth="yes"/>
      <point x="525" y="387"/>
      <point x="447" y="577"/>
      <point x="357" y="729" type="curve"/>
      <point x="316" y="729" type="line"/>
      <point x="371" y="643"/>
      <point x="429" y="528"/>
      <point x="458" y="413" type="curve"/>
      <point x="452" y="412" type="line"/>
      <point x="423" y="473"/>
      <point x="366" y="505"/>
      <point x="288" y="505" type="curve" smooth="yes"/>
      <point x="166" y="505"/>
      <point x="79" y="417"/>
      <point x="54" y="269" type="curve" smooth="yes"/>
      <point x="25" y="98"/>
      <point x="101" y="-10"/>
    </contour>
    <contour>
      <point x="254" y="23" type="curve" smooth="yes"/>
      <point x="125" y="23"/>
      <point x="65" y="114"/>
      <point x="91" y="267" type="curve" smooth="yes"/>
      <point x="114" y="399"/>
      <point x="185" y="472"/>
      <point x="290" y="472" type="curve" smooth="yes"/>
      <point x="448" y="472"/>
      <point x="475" y="340"/>
      <point x="456" y="224" type="curve" smooth="yes"/>
      <point x="433" y="98"/>
      <point x="358" y="23"/>
    </contour>
    <contour>
      <point x="226" y="569" type="line"/>
      <point x="526" y="616" type="line"/>
      <point x="532" y="644" type="line"/>
      <point x="232" y="597" type="line"/>
    </contour>
  </outline>
</glyph>
<glyph name="divide" format="2">
  <advance width="600"/>
  <unicode hex="00F7"/>
  <outline>
    <contour>
      <point x="81" y="345" type="line"/>
      <point x="554" y="345" type="line"/>
      <point x="561" y="377" type="line"/>
      <point x="88" y="377" type="line"/>
    </contour>
    <contour>
      <point x="263" y="184" type="line"/>
      <point x="307" y="184" type="line"/>
      <point x="319" y="245" type="line"/>
      <point x="275" y="245" type="line"/>
    </contour>
    <contour>
      <point x="323" y="477" type="line"/>
      <point x="368" y="477" type="line"/>
      <point x="381" y="538" type="line"/>
      <point x="336" y="538" type="line"/>
    </contour>
  </outline>
</glyph>
<glyph name="idotless" format="2">
  <advance width="206"/>
  <unicode hex="0131"/>
  <anchor x="49" y="0" name="bottom"/>
  <anchor x="66" y="0" name="ogonek"/>
  <anchor x="157" y="517" name="top"/>
  <outline>
    <contour>
      <point x="31" y="0" type="line"/>
      <point x="66" y="0" type="line"/>
      <point x="175" y="517" type="line"/>
      <point x="139" y="517" type="line"/>
    </contour>
  </outline>
</glyph>
<glyph name="Eng" format="2">
  <advance width="749"/>
  <unicode hex="014A"/>
  <outline>
    <contour>
      <point x="40" y="0" type="line"/>
      <point x="77" y="0" type="line"/>
      <point x="168" y="436" type="line"/>
      <point x="218" y="686" type="line"/>
      <point x="222" y="686" type="line"/>
      <point x="548" y="0" type="line"/>
      <point x="601" y="0" type="line"/>
      <point x="752" y="729" type="line"/>
      <point x="715" y="729" type="line"/>
      <point x="626" y="303" type="line"/>
      <point x="576" y="43" type="line"/>
      <point x="571" y="43" type="line"/>
      <point x="243" y="729" type="line"/>
      <point x="191" y="729" type="line"/>
    </contour>
    <contour>
      <point x="420" y="-167" type="line"/>
      <point x="477" y="-167" type="line" smooth="yes"/>
      <point x="538" y="-167"/>
      <point x="575" y="-128"/>
      <point x="587" y="-70" type="curve" smooth="yes"/>
      <point x="601" y="0" type="line"/>
      <point x="564" y="0" type="line"/>
      <point x="552" y="-60" type="line" smooth="yes"/>
      <point x="541" y="-113"/>
      <point x="519" y="-133"/>
      <point x="473" y="-133" type="curve" smooth="yes"/>
      <point x="427" y="-133" type="line"/>
    </contour>
  </outline>
</glyph>
<glyph name="eng" format="2">
  <advance width="568"/>
  <unicode hex="014B"/>
  <outline>
    <contour>
      <point x="242" y="-167" type="line"/>
      <point x="294" y="-167" type="line" smooth="yes"/>
      <point x="368" y="-167"/>
      <point x="414" y="-129"/>
      <point x="431" y="-49" type="curve" smooth="yes"/>
      <point x="501" y="291" type="line" smooth="yes"/>
      <point x="532" y="440"/>
      <point x="474" y="527"/>
      <point x="354" y="527" type="curve" smooth="yes"/>
      <point x="281" y="527"/>
      <point x="206" y="493"/>
      <point x="158" y="415" type="curve"/>
      <point x="153" y="415" type="line"/>
      <point x="169" y="517" type="line"/>
      <point x="139" y="517" type="line"/>
      <point x="31" y="0" type="line"/>
      <point x="66" y="0" type="line"/>
      <point x="127" y="293" type="line" smooth="yes"/>
      <point x="152" y="415"/>
      <point x="238" y="493"/>
      <point x="345" y="493" type="curve" smooth="yes"/>
      <point x="453" y="493"/>
      <point x="493" y="419"/>
      <point x="465" y="288" type="curve" smooth="yes"/>
      <point x="396" y="-43" type="line" smooth="yes"/>
      <point x="383" y="-107"/>
      <point x="356" y="-134"/>
      <point x="293" y="-134" type="curve" smooth="yes"/>
      <point x="250" y="-134" type="line"/>
    </contour>
  </outline>
</glyph>
<glyph name="OE" format="2">
  <advance width="1035"/>
  <unicode hex="0152"/>
  <anchor x="484" y="0" name="bottom"/>
  <anchor x="635" y="729" name="top"/>
  <outline>
    <contour>
      <point x="383" y="-10" type="curve" smooth="yes"/>
      <point x="418" y="-10"/>
      <point x="456" y="-6"/>
      <point x="485" y="0" type="curve"/>
      <point x="944" y="0" type="line"/>
      <point x="951" y="36" type="line"/>
      <point x="521" y="36" type="line"/>
      <point x="588" y="358" type="line"/>
      <point x="973" y="358" type="line"/>
      <point x="980" y="392" type="line"/>
      <point x="595" y="392" type="line"/>
      <point x="658" y="693" type="line"/>
      <point x="1088" y="693" type="line"/>
      <point x="1095" y="729" type="line"/>
      <point x="604" y="729" type="line"/>
      <point x="558" y="737"/>
      <point x="520" y="739"/>
      <point x="481" y="739" type="curve" smooth="yes"/>
      <point x="261" y="739"/>
      <point x="122" y="603"/>
      <point x="85" y="396" type="curve" smooth="yes"/>
      <point x="45" y="146"/>
      <point x="153" y="-10"/>
    </contour>
    <contour>
      <point x="393" y="26" type="curve" smooth="yes"/>
      <point x="182" y="26"/>
      <point x="86" y="163"/>
      <point x="126" y="394" type="curve" smooth="yes"/>
      <point x="159" y="580"/>
      <point x="284" y="703"/>
      <point x="478" y="703" type="curve" smooth="yes"/>
      <point x="531" y="703"/>
      <point x="579" y="697"/>
      <point x="620" y="686" type="curve"/>
      <point x="486" y="38" type="line"/>
      <point x="461" y="31"/>
      <point x="428" y="26"/>
    </contour>
  </outline>
</glyph>
<glyph name="oe" format="2">
  <advance width="985"/>
  <unicode hex="0153"/>
  <anchor x="450" y="0" name="bottom"/>
  <anchor x="548" y="517" name="top"/>
  <outline>
    <contour>
      <point x="251" y="-10" type="curve" smooth="yes"/>
      <point x="359" y="-10"/>
      <point x="446" y="51"/>
      <point x="491" y="148" type="curve"/>
      <point x="490" y="149" type="line"/>
      <point x="509" y="51"/>
      <point x="579" y="-10"/>
      <point x="679" y="-10" type="curve" smooth="yes"/>
      <point x="790" y="-10"/>
      <point x="886" y="55"/>
      <point x="912" y="153" type="curve"/>
      <point x="875" y="153" type="line"/>
      <point x="850" y="75"/>
      <point x="775" y="24"/>
      <point x="682" y="24" type="curve" smooth="yes"/>
      <point x="568" y="24"/>
      <point x="497" y="122"/>
      <point x="524" y="269" type="curve" smooth="yes"/>
      <point x="526" y="280" type="line" smooth="yes"/>
      <point x="553" y="426"/>
      <point x="645" y="494"/>
      <point x="744" y="494" type="curve" smooth="yes"/>
      <point x="851" y="494"/>
      <point x="918" y="418"/>
      <point x="897" y="289" type="curve"/>
      <point x="899" y="291" type="line"/>
      <point x="521" y="291" type="line"/>
      <point x="515" y="258" type="line"/>
      <point x="927" y="258" type="line"/>
      <point x="959" y="415"/>
      <point x="895" y="527"/>
      <point x="750" y="527" type="curve" smooth="yes"/>
      <point x="646" y="527"/>
      <point x="562" y="464"/>
      <point x="518" y="368" type="curve"/>
      <point x="519" y="367" type="line"/>
      <point x="500" y="465"/>
      <point x="430" y="528"/>
      <point x="326" y="528" type="curve" smooth="yes"/>
      <point x="169" y="528"/>
      <point x="57" y="403"/>
      <point x="50" y="221" type="curve" smooth="yes"/>
      <point x="46" y="82"/>
      <point x="125" y="-10"/>
    </contour>
    <contour>
      <point x="255" y="23" type="curve" smooth="yes"/>
      <point x="149" y="23"/>
      <point x="83" y="93"/>
      <point x="87" y="220" type="curve" smooth="yes"/>
      <point x="93" y="386"/>
      <point x="186" y="495"/>
      <point x="321" y="495" type="curve" smooth="yes"/>
      <point x="427" y="495"/>
      <point x="494" y="421"/>
      <point x="490" y="297" type="curve" smooth="yes"/>
      <point x="484" y="134"/>
      <point x="390" y="23"/>
    </contour>
  </outline>
</glyph>
<glyph name="florin" format="2">
  <advance width="398"/>
  <unicode hex="0192"/>
  <outline>
    <contour>
      <point x="-48" y="-167" type="line"/>
      <point x="-11" y="-167" type="line" smooth="yes"/>
      <point x="75" y="-167"/>
      <point x="139" y="-120"/>
      <point x="159" y="-23" type="curve" smooth="yes"/>
      <point x="284" y="581" type="line" smooth="yes"/>
      <point x="301" y="662"/>
      <point x="339" y="695"/>
      <point x="419" y="695" type="curve" smooth="yes"/>
      <point x="448" y="695" type="line"/>
      <point x="455" y="729" type="line"/>
      <point x="418" y="729" type="line" smooth="yes"/>
      <point x="332" y="729"/>
      <point x="268" y="682"/>
      <point x="248" y="585" type="curve" smooth="yes"/>
      <point x="123" y="-19" type="line" smooth="yes"/>
      <point x="106" y="-100"/>
      <point x="68" y="-133"/>
      <point x="-12" y="-133" type="curve" smooth="yes"/>
      <point x="-41" y="-133" type="line"/>
    </contour>
    <contour>
      <point x="106" y="384" type="line"/>
      <point x="344" y="384" type="line"/>
      <point x="351" y="418" type="line"/>
      <point x="113" y="418" type="line"/>
    </contour>
  </outline>
</glyph>
<glyph name="jdotless" format="2">
  <advance width="206"/>
  <unicode hex="0237"/>
  <anchor x="12" y="-200" name="bottom"/>
  <anchor x="157" y="517" name="top"/>
  <outline>
    <contour>
      <point x="-132" y="-167" type="line"/>
      <point x="-80" y="-167" type="line" smooth="yes"/>
      <point x="-6" y="-167"/>
      <point x="40" y="-129"/>
      <point x="57" y="-49" type="curve" smooth="yes"/>
      <point x="174" y="517" type="line"/>
      <point x="139" y="517" type="line"/>
      <point x="22" y="-43" type="line" smooth="yes"/>
      <point x="9" y="-107"/>
      <point x="-18" y="-134"/>
      <point x="-81" y="-134" type="curve" smooth="yes"/>
      <point x="-124" y="-134" type="line"/>
    </contour>
  </outline>
</glyph>
<glyph name="acutecomb" format="2">
  <unicode hex="0301"/>
  <anchor x="142" y="672" name="_top"/>
  <outline>
    <contour>
      <point x="141" y="746" type="line"/>
      <point x="173" y="746" type="line"/>
      <point x="280" y="882" type="line"/>
      <point x="237" y="882" type="line"/>
    </contour>
  </outline>
</glyph>
<glyph name="circumflexcomb" format="2">
  <unicode hex="0302"/>
  <anchor x="252" y="672" name="_top"/>
  <outline>
    <contour>
      <point x="141" y="746" type="line"/>
      <point x="180" y="746" type="line"/>
      <point x="290" y="857" type="line"/>
      <point x="354" y="746" type="line"/>
      <point x="389" y="746" type="line"/>
      <point x="312" y="882" type="line"/>
      <point x="272" y="882" type="line"/>
    </contour>
  </outline>
</glyph>
<glyph name="tildecomb" format="2">
  <unicode hex="0303"/>
  <anchor x="274" y="672" name="_top"/>
  <outline>
    <contour>
      <point x="361" y="776" type="curve" smooth="yes"/>
      <point x="399" y="776"/>
      <point x="429" y="790"/>
      <point x="460" y="825" type="curve"/>
      <point x="442" y="838" type="line"/>
      <point x="421" y="817"/>
      <point x="397" y="808"/>
      <point x="375" y="808" type="curve" smooth="yes"/>
      <point x="329" y="807"/>
      <point x="286" y="836"/>
      <point x="245" y="836" type="curve" smooth="yes"/>
      <point x="206" y="836"/>
      <point x="181" y="822"/>
      <point x="149" y="786" type="curve"/>
      <point x="166" y="774" type="line"/>
      <point x="188" y="796"/>
      <point x="206" y="803"/>
      <point x="231" y="803" type="curve" smooth="yes"/>
      <point x="274" y="803"/>
      <point x="301" y="776"/>
    </contour>
  </outline>
</glyph>
<glyph name="macroncomb" format="2">
  <unicode hex="0304"/>
  <anchor x="286" y="672" name="_top"/>
  <outline>
    <contour>
      <point x="149" y="780" type="line"/>
      <point x="468" y="780" type="line"/>
      <point x="474" y="813" type="line"/>
      <point x="155" y="813" type="line"/>
    </contour>
  </outline>
</glyph>
<glyph name="brevecomb" format="2">
  <unicode hex="0306"/>
  <anchor x="256" y="672" name="_top"/>
  <outline>
    <contour>
      <point x="273" y="742" type="curve" smooth="yes"/>
      <point x="356" y="742"/>
      <point x="411" y="798"/>
      <point x="423" y="882" type="curve"/>
      <point x="387" y="882" type="line"/>
      <point x="379" y="816"/>
      <point x="338" y="772"/>
      <point x="275" y="772" type="curve" smooth="yes"/>
      <point x="217" y="772"/>
      <point x="188" y="812"/>
      <point x="205" y="882" type="curve"/>
      <point x="169" y="882" type="line"/>
      <point x="153" y="798"/>
      <point x="195" y="742"/>
    </contour>
  </outline>
</glyph>
<glyph name="dotaccentcomb" format="2">
  <unicode hex="0307"/>
  <anchor x="157" y="672" name="_top"/>
  <outline>
    <contour>
      <point x="184" y="780" type="curve" smooth="yes"/>
      <point x="204" y="780"/>
      <point x="217" y="794"/>
      <point x="217" y="813" type="curve" smooth="yes"/>
      <point x="217" y="831"/>
      <point x="204" y="842"/>
      <point x="188" y="842" type="curve" smooth="yes"/>
      <point x="168" y="842"/>
      <point x="155" y="828"/>
      <point x="155" y="809" type="curve" smooth="yes"/>
      <point x="155" y="791"/>
      <point x="168" y="780"/>
    </contour>
  </outline>
</glyph>
<glyph name="dieresiscomb" format="2">
  <unicode hex="0308"/>
  <anchor x="247" y="672" name="_top"/>
  <outline>
    <contour>
      <point x="364" y="780" type="curve" smooth="yes"/>
      <point x="384" y="780"/>
      <point x="397" y="794"/>
      <point x="397" y="813" type="curve" smooth="yes"/>
      <point x="397" y="831"/>
      <point x="384" y="842"/>
      <point x="368" y="842" type="curve" smooth="yes"/>
      <point x="348" y="842"/>
      <point x="335" y="828"/>
      <point x="335" y="809" type="curve" smooth="yes"/>
      <point x="335" y="791"/>
      <point x="348" y="780"/>
    </contour>
    <contour>
      <point x="184" y="780" type="curve" smooth="yes"/>
      <point x="204" y="780"/>
      <point x="217" y="794"/>
      <point x="217" y="813" type="curve" smooth="yes"/>
      <point x="217" y="831"/>
      <point x="204" y="842"/>
      <point x="188" y="842" type="curve" smooth="yes"/>
      <point x="168" y="842"/>
      <point x="155" y="828"/>
      <point x="155" y="809" type="curve" smooth="yes"/>
      <point x="155" y="791"/>
      <point x="168" y="780"/>
    </contour>
  </outline>
</glyph>
<glyph name="hookabovecomb" format="2">
  <unicode hex="0309"/>
  <anchor x="189" y="673" name="_top"/>
  <outline>
    <contour>
      <point x="185" y="731" type="line"/>
      <point x="246" y="755"/>
      <point x="299" y="791"/>
      <point x="299" y="846" type="curve" smooth="yes"/>
      <point x="299" y="889"/>
      <point x="264" y="914"/>
      <point x="213" y="914" type="curve" smooth="yes"/>
      <point x="199" y="914"/>
      <point x="187" y="913"/>
      <point x="175" y="910" type="curve"/>
      <point x="170" y="881" type="line"/>
      <point x="182" y="884"/>
      <point x="194" y="885"/>
      <point x="206" y="885" type="curve" smooth="yes"/>
      <point x="241" y="885"/>
      <point x="264" y="873"/>
      <point x="264" y="843" type="curve" smooth="yes"/>
      <point x="264" y="801"/>
      <point x="219" y="776"/>
      <point x="171" y="757" type="curve"/>
    </contour>
  </outline>
</glyph>
<glyph name="ringcomb" format="2">
  <unicode hex="030A"/>
  <anchor x="219" y="672" name="_top"/>
  <outline>
    <contour>
      <point x="241" y="721" type="curve" smooth="yes"/>
      <point x="298" y="721"/>
      <point x="339" y="760"/>
      <point x="340" y="814" type="curve" smooth="yes"/>
      <point x="342" y="864"/>
      <point x="307" y="899"/>
      <point x="255" y="899" type="curve" smooth="yes"/>
      <point x="199" y="899"/>
      <point x="157" y="861"/>
      <point x="155" y="807" type="curve" smooth="yes"/>
      <point x="153" y="756"/>
      <point x="190" y="721"/>
    </contour>
    <contour>
      <point x="243" y="749" type="curve" smooth="yes"/>
      <point x="211" y="749"/>
      <point x="185" y="769"/>
      <point x="187" y="806" type="curve" smooth="yes"/>
      <point x="188" y="839"/>
      <point x="212" y="870"/>
      <point x="251" y="870" type="curve" smooth="yes"/>
      <point x="284" y="870"/>
      <point x="310" y="850"/>
      <point x="309" y="814" type="curve" smooth="yes"/>
      <point x="307" y="775"/>
      <point x="281" y="749"/>
    </contour>
  </outline>
</glyph>
<glyph name="hungarumlautcomb" format="2">
  <unicode hex="030B"/>
  <anchor x="208" y="672" name="_top"/>
  <outline>
    <contour>
      <point x="141" y="746" type="line"/>
      <point x="173" y="746" type="line"/>
      <point x="277" y="882" type="line"/>
      <point x="236" y="882" type="line"/>
    </contour>
    <contour>
      <point x="274" y="746" type="line"/>
      <point x="306" y="746" type="line"/>
      <point x="412" y="882" type="line"/>
      <point x="370" y="882" type="line"/>
    </contour>
  </outline>
</glyph>
<glyph name="caroncomb" format="2">
  <unicode hex="030C"/>
  <anchor x="251" y="672" name="_top"/>
  <outline>
    <contour>
      <point x="246" y="746" type="line"/>
      <point x="286" y="746" type="line"/>
      <point x="417" y="882" type="line"/>
      <point x="378" y="882" type="line"/>
      <point x="268" y="771" type="line"/>
      <point x="204" y="882" type="line"/>
      <point x="169" y="882" type="line"/>
    </contour>
  </outline>
</glyph>
<glyph name="commaturnedabovecomb" format="2">
  <unicode hex="0312"/>
  <anchor x="142" y="672" name="_top"/>
  <outline>
    <contour>
      <point x="141" y="746" type="line"/>
      <point x="172" y="746" type="line"/>
      <point x="178" y="777" type="line" smooth="yes"/>
      <point x="188" y="823"/>
      <point x="219" y="857"/>
      <point x="258" y="882" type="curve"/>
      <point x="246" y="901" type="line"/>
      <point x="203" y="875"/>
      <point x="159" y="835"/>
      <point x="147" y="777" type="curve" smooth="yes"/>
    </contour>
  </outline>
</glyph>
<glyph name="horncomb" format="2">
  <unicode hex="031B"/>
  <anchor x="92" y="510" name="_topright"/>
  <outline>
    <contour>
      <point x="86" y="480" type="line"/>
      <point x="183" y="480"/>
      <point x="240" y="536"/>
      <point x="248" y="637" type="curve"/>
      <point x="214" y="637" type="line"/>
      <point x="207" y="554"/>
      <point x="165" y="510"/>
      <point x="92" y="510" type="curve"/>
    </contour>
  </outline>
</glyph>
<glyph name="dotbelowcomb" format="2">
  <unicode hex="0323"/>
  <anchor x="18" y="0" name="_bottom"/>
  <outline>
    <contour>
      <point x="-7" y="-141" type="curve" smooth="yes"/>
      <point x="13" y="-141"/>
      <point x="26" y="-127"/>
      <point x="26" y="-108" type="curve" smooth="yes"/>
      <point x="26" y="-90"/>
      <point x="13" y="-79"/>
      <point x="-3" y="-79" type="curve" smooth="yes"/>
      <point x="-23" y="-79"/>
      <point x="-36" y="-93"/>
      <point x="-36" y="-112" type="curve" smooth="yes"/>
      <point x="-36" y="-130"/>
      <point x="-23" y="-141"/>
    </contour>
  </outline>
</glyph>
<glyph name="commaaccentcomb" format="2">
  <unicode hex="0326"/>
  <anchor x="52" y="0" name="_bottom"/>
  <outline>
    <contour>
      <point x="-54" y="-193" type="line"/>
      <point x="-25" y="-193" type="line"/>
      <point x="57" y="-57" type="line"/>
      <point x="22" y="-57" type="line"/>
    </contour>
  </outline>
</glyph>
<glyph name="cedillacomb" format="2">
  <unicode hex="0327"/>
  <anchor x="86" y="0" name="_bottom"/>
  <outline>
    <contour>
      <point x="51" y="-234" type="curve" smooth="yes"/>
      <point x="108" y="-234"/>
      <point x="153" y="-200"/>
      <point x="153" y="-149" type="curve" smooth="yes"/>
      <point x="153" y="-101"/>
      <point x="123" y="-71"/>
      <point x="68" y="-52" type="curve"/>
      <point x="109" y="8" type="line"/>
      <point x="77" y="11" type="line"/>
      <point x="31" y="-51" type="line"/>
      <point x="37" y="-74" type="line"/>
      <point x="93" y="-90"/>
      <point x="119" y="-111"/>
      <point x="119" y="-149" type="curve" smooth="yes"/>
      <point x="119" y="-182"/>
      <point x="93" y="-204"/>
      <point x="54" y="-204" type="curve" smooth="yes"/>
      <point x="17" y="-204"/>
      <point x="-10" y="-186"/>
      <point x="-14" y="-153" type="curve"/>
      <point x="-47" y="-160" type="line"/>
      <point x="-41" y="-204"/>
      <point x="-3" y="-234"/>
    </contour>
  </outline>
</glyph>
<glyph name="ogonekcomb" format="2">
  <unicode hex="0328"/>
  <anchor x="103" y="0" name="_ogonek"/>
  <outline>
    <contour>
      <point x="34" y="-209" type="curve" smooth="yes"/>
      <point x="52" y="-209"/>
      <point x="70" y="-205"/>
      <point x="84" y="-198" type="curve"/>
      <point x="89" y="-170" type="line"/>
      <point x="76" y="-176"/>
      <point x="59" y="-180"/>
      <point x="43" y="-180" type="curve" smooth="yes"/>
      <point x="11" y="-180"/>
      <point x="-7" y="-164"/>
      <point x="-7" y="-136" type="curve" smooth="yes"/>
      <point x="-7" y="-92"/>
      <point x="30" y="-53"/>
      <point x="103" y="0" type="curve"/>
      <point x="97" y="19" type="line"/>
      <point x="89" y="19" type="line"/>
      <point x="12" y="-31"/>
      <point x="-40" y="-82"/>
      <point x="-40" y="-139" type="curve" smooth="yes"/>
      <point x="-40" y="-182"/>
      <point x="-11" y="-209"/>
    </contour>
  </outline>
</glyph>
<glyph name="strokeshortcomb" format="2">
  <unicode hex="0335"/>
  <anchor x="202" y="307" name="_center"/>
  <outline>
    <contour>
      <point x="47" y="291" type="line"/>
      <point x="351" y="291" type="line"/>
      <point x="357" y="323" type="line"/>
      <point x="53" y="323" type="line"/>
    </contour>
  </outline>
</glyph>
<glyph name="slashshortcomb" format="2">
  <unicode hex="0337"/>
  <anchor x="151" y="342" name="_center"/>
  <outline>
    <contour>
      <point x="42" y="270" type="line"/>
      <point x="252" y="376" type="line"/>
      <point x="260" y="413" type="line"/>
      <point x="50" y="308" type="line"/>
    </contour>
  </outline>
</glyph>
<glyph name="slashlongcomb" format="2">
  <unicode hex="0338"/>
  <anchor x="294" y="259" name="_center"/>
  <outline>
    <contour>
      <point x="-26" y="-60" type="line"/>
      <point x="18" y="-60" type="line"/>
      <point x="614" y="577" type="line"/>
      <point x="571" y="577" type="line"/>
    </contour>
  </outline>
</glyph>
<glyph name="mu" format="2">
  <advance width="607"/>
  <unicode hex="03BC"/>
  <outline>
    <contour>
      <point x="25" y="-132" type="line"/>
      <point x="62" y="-132" type="line"/>
      <point x="105" y="111" type="line"/>
      <point x="95" y="83" type="line"/>
      <point x="104" y="25"/>
      <point x="161" y="-8"/>
      <point x="238" y="-8" type="curve" smooth="yes"/>
      <point x="326" y="-8"/>
      <point x="402" y="33"/>
      <point x="448" y="121" type="curve"/>
      <point x="452" y="121" type="line"/>
      <point x="434" y="0" type="line"/>
      <point x="468" y="0" type="line"/>
      <point x="559" y="517" type="line"/>
      <point x="522" y="517" type="line"/>
      <point x="475" y="249" type="line" smooth="yes"/>
      <point x="451" y="115"/>
      <point x="382" y="26"/>
      <point x="255" y="26" type="curve" smooth="yes"/>
      <point x="151" y="26"/>
      <point x="100" y="83"/>
      <point x="117" y="183" type="curve" smooth="yes"/>
      <point x="176" y="517" type="line"/>
      <point x="139" y="517" type="line"/>
    </contour>
  </outline>
</glyph>
<glyph name="pi" format="2">
  <advance width="565"/>
  <unicode hex="03C0"/>
  <outline>
    <contour>
      <point x="436" y="-7" type="curve" smooth="yes"/>
      <point x="455" y="-7"/>
      <point x="470" y="-4"/>
      <point x="477" y="1" type="curve"/>
      <point x="486" y="38" type="line"/>
      <point x="477" y="33"/>
      <point x="465" y="29"/>
      <point x="448" y="29" type="curve" smooth="yes"/>
      <point x="403" y="29"/>
      <point x="402" y="63"/>
      <point x="414" y="118" type="curve" smooth="yes"/>
      <point x="491" y="485" type="line"/>
      <point x="580" y="485" type="line"/>
      <point x="587" y="517" type="line"/>
      <point x="76" y="517" type="line"/>
      <point x="70" y="485" type="line"/>
      <point x="161" y="485" type="line"/>
      <point x="59" y="0" type="line"/>
      <point x="95" y="0" type="line"/>
      <point x="197" y="485" type="line"/>
      <point x="455" y="485" type="line"/>
      <point x="373" y="98" type="line" smooth="yes"/>
      <point x="360" y="34"/>
      <point x="375" y="-7"/>
    </contour>
  </outline>
</glyph>
<glyph name="Germandbls" format="2">
  <advance width="624"/>
  <unicode hex="1E9E"/>
  <outline>
    <contour>
      <point x="39" y="0" type="line"/>
      <point x="77" y="0" type="line"/>
      <point x="222" y="693" type="line"/>
      <point x="581" y="693" type="line"/>
      <point x="309" y="417" type="line"/>
      <point x="302" y="387" type="line"/>
      <point x="380" y="387" type="line" smooth="yes"/>
      <point x="474" y="387"/>
      <point x="530" y="337"/>
      <point x="530" y="246" type="curve" smooth="yes"/>
      <point x="530" y="116"/>
      <point x="451" y="34"/>
      <point x="316" y="34" type="curve" smooth="yes"/>
      <point x="154" y="34" type="line"/>
      <point x="147" y="0" type="line"/>
      <point x="311" y="0" type="line" smooth="yes"/>
      <point x="462" y="0"/>
      <point x="569" y="92"/>
      <point x="569" y="244" type="curve" smooth="yes"/>
      <point x="569" y="352"/>
      <point x="499" y="420"/>
      <point x="374" y="420" type="curve" smooth="yes"/>
      <point x="353" y="420" type="line"/>
      <point x="362" y="410" type="line"/>
      <point x="364" y="427" type="line"/>
      <point x="613" y="678" type="line"/>
      <point x="623" y="729" type="line"/>
      <point x="192" y="729" type="line"/>
    </contour>
  </outline>
</glyph>
<glyph name="endash" format="2">
  <advance width="511"/>
  <unicode hex="2013"/>
  <outline>
    <contour>
      <point x="56" y="243" type="line"/>
      <point x="447" y="243" type="line"/>
      <point x="455" y="275" type="line"/>
      <point x="63" y="275" type="line"/>
    </contour>
  </outline>
</glyph>
<glyph name="emdash" format="2">
  <advance width="630"/>
  <unicode hex="2014"/>
  <outline>
    <contour>
      <point x="57" y="242" type="line"/>
      <point x="567" y="242" type="line"/>
      <point x="574" y="275" type="line"/>
      <point x="64" y="275" type="line"/>
    </contour>
  </outline>
</glyph>
<glyph name="bullet" format="2">
  <advance width="297"/>
  <unicode hex="2022"/>
  <outline>
    <contour>
      <point x="149" y="171" type="curve" smooth="yes"/>
      <point x="215" y="171"/>
      <point x="260" y="218"/>
      <point x="260" y="281" type="curve" smooth="yes"/>
      <point x="260" y="341"/>
      <point x="220" y="384"/>
      <point x="157" y="384" type="curve" smooth="yes"/>
      <point x="93" y="384"/>
      <point x="45" y="337"/>
      <point x="45" y="273" type="curve" smooth="yes"/>
      <point x="45" y="214"/>
      <point x="88" y="171"/>
    </contour>
  </outline>
</glyph>
<glyph name="guilsinglleft" format="2">
  <advance width="259"/>
  <unicode hex="2039"/>
  <outline>
    <contour>
      <point x="143" y="80" type="line"/>
      <point x="172" y="80" type="line"/>
      <point x="99" y="298" type="line"/>
      <point x="245" y="517" type="line"/>
      <point x="210" y="517" type="line"/>
      <point x="62" y="298" type="line"/>
    </contour>
  </outline>
</glyph>
<glyph name="fraction" format="2">
  <advance width="119"/>
  <unicode hex="2044"/>
  <outline>
    <contour>
      <point x="-252" y="0" type="line"/>
      <point x="-212" y="0" type="line"/>
      <point x="413" y="721" type="line"/>
      <point x="372" y="721" type="line"/>
    </contour>
  </outline>
</glyph>
<glyph name="zeroinferior" format="2">
  <advance width="416"/>
  <unicode hex="2080"/>
  <anchor x="191" y="177" name="_center"/>
  <outline>
    <contour>
      <point x="159" y="-46" type="curve" smooth="yes"/>
      <point x="242" y="-46"/>
      <point x="308" y="22"/>
      <point x="334" y="167" type="curve" smooth="yes"/>
      <point x="358" y="300"/>
      <point x="326" y="397"/>
      <point x="222" y="397" type="curve" smooth="yes"/>
      <point x="141" y="397"/>
      <point x="74" y="331"/>
      <point x="48" y="186" type="curve" smooth="yes"/>
      <point x="24" y="50"/>
      <point x="55" y="-46"/>
    </contour>
    <contour>
      <point x="160" y="-16" type="curve" smooth="yes"/>
      <point x="80" y="-16"/>
      <point x="64" y="64"/>
      <point x="81" y="171" type="curve" smooth="yes"/>
      <point x="102" y="304"/>
      <point x="153" y="367"/>
      <point x="221" y="367" type="curve" smooth="yes"/>
      <point x="304" y="367"/>
      <point x="317" y="285"/>
      <point x="300" y="177" type="curve" smooth="yes"/>
      <point x="282" y="60"/>
      <point x="234" y="-16"/>
    </contour>
  </outline>
</glyph>
<glyph name="twoinferior" format="2">
  <advance width="373"/>
  <unicode hex="2082"/>
  <anchor x="161" y="177" name="_center"/>
  <outline>
    <contour>
      <point x="4" y="-40" type="line"/>
      <point x="267" y="-40" type="line"/>
      <point x="273" y="-9" type="line"/>
      <point x="49" y="-9" type="line"/>
      <point x="75" y="105"/>
      <point x="317" y="134"/>
      <point x="317" y="283" type="curve" smooth="yes"/>
      <point x="317" y="351"/>
      <point x="267" y="397"/>
      <point x="196" y="397" type="curve" smooth="yes"/>
      <point x="116" y="397"/>
      <point x="62" y="350"/>
      <point x="50" y="269" type="curve"/>
      <point x="85" y="269" type="line"/>
      <point x="95" y="331"/>
      <point x="132" y="367"/>
      <point x="195" y="367" type="curve" smooth="yes"/>
      <point x="247" y="367"/>
      <point x="282" y="333"/>
      <point x="282" y="281" type="curve" smooth="yes"/>
      <point x="282" y="152"/>
      <point x="36" y="123"/>
      <point x="9" y="-16" type="curve" smooth="yes"/>
    </contour>
  </outline>
</glyph>
<glyph name="threeinferior" format="2">
  <advance width="386"/>
  <unicode hex="2083"/>
  <anchor x="167" y="177" name="_center"/>
  <outline>
    <contour>
      <point x="136" y="-46" type="curve" smooth="yes"/>
      <point x="223" y="-46"/>
      <point x="287" y="7"/>
      <point x="287" y="86" type="curve" smooth="yes"/>
      <point x="287" y="130"/>
      <point x="258" y="169"/>
      <point x="227" y="179" type="curve"/>
      <point x="228" y="182" type="line"/>
      <point x="283" y="194"/>
      <point x="321" y="238"/>
      <point x="321" y="293" type="curve" smooth="yes"/>
      <point x="321" y="356"/>
      <point x="274" y="397"/>
      <point x="203" y="397" type="curve" smooth="yes"/>
      <point x="129" y="397"/>
      <point x="70" y="360"/>
      <point x="56" y="279" type="curve"/>
      <point x="89" y="279" type="line"/>
      <point x="100" y="330"/>
      <point x="136" y="367"/>
      <point x="201" y="367" type="curve" smooth="yes"/>
      <point x="252" y="367"/>
      <point x="285" y="336"/>
      <point x="285" y="289" type="curve" smooth="yes"/>
      <point x="285" y="232"/>
      <point x="241" y="197"/>
      <point x="179" y="197" type="curve" smooth="yes"/>
      <point x="133" y="197" type="line"/>
      <point x="127" y="169" type="line"/>
      <point x="170" y="169" type="line" smooth="yes"/>
      <point x="219" y="169"/>
      <point x="251" y="136"/>
      <point x="251" y="88" type="curve" smooth="yes"/>
      <point x="251" y="27"/>
      <point x="210" y="-16"/>
      <point x="138" y="-16" type="curve" smooth="yes"/>
      <point x="79" y="-16"/>
      <point x="42" y="19"/>
      <point x="46" y="75" type="curve"/>
      <point x="13" y="75" type="line"/>
      <point x="10" y="4"/>
      <point x="57" y="-46"/>
    </contour>
  </outline>
</glyph>
<glyph name="fourinferior" format="2">
  <advance width="391"/>
  <unicode hex="2084"/>
  <anchor x="162" y="177" name="_center"/>
  <outline>
    <contour>
      <point x="184" y="-40" type="line"/>
      <point x="218" y="-40" type="line"/>
      <point x="308" y="393" type="line"/>
      <point x="270" y="393" type="line"/>
      <point x="0" y="103" type="line"/>
      <point x="-6" y="74" type="line"/>
      <point x="323" y="74" type="line"/>
      <point x="329" y="104" type="line"/>
      <point x="37" y="104" type="line"/>
      <point x="266" y="346" type="line"/>
      <point x="264" y="346" type="line"/>
    </contour>
  </outline>
</glyph>
<glyph name="fiveinferior" format="2">
  <advance width="397"/>
  <unicode hex="2085"/>
  <anchor x="191" y="177" name="_center"/>
  <outline>
    <contour>
      <point x="156" y="-46" type="curve" smooth="yes"/>
      <point x="247" y="-46"/>
      <point x="312" y="19"/>
      <point x="312" y="108" type="curve" smooth="yes"/>
      <point x="312" y="184"/>
      <point x="264" y="235"/>
      <point x="193" y="235" type="curve" smooth="yes"/>
      <point x="158" y="235"/>
      <point x="118" y="222"/>
      <point x="96" y="200" type="curve"/>
      <point x="94" y="200" type="line"/>
      <point x="136" y="362" type="line"/>
      <point x="347" y="362" type="line"/>
      <point x="354" y="393" type="line"/>
      <point x="111" y="393" type="line"/>
      <point x="53" y="162" type="line"/>
      <point x="89" y="162" type="line"/>
      <point x="109" y="189"/>
      <point x="147" y="206"/>
      <point x="183" y="206" type="curve" smooth="yes"/>
      <point x="239" y="206"/>
      <point x="276" y="168"/>
      <point x="276" y="106" type="curve" smooth="yes"/>
      <point x="276" y="39"/>
      <point x="232" y="-16"/>
      <point x="158" y="-16" type="curve" smooth="yes"/>
      <point x="100" y="-16"/>
      <point x="61" y="19"/>
      <point x="61" y="72" type="curve"/>
      <point x="27" y="72" type="line"/>
      <point x="27" y="1"/>
      <point x="79" y="-46"/>
    </contour>
  </outline>
</glyph>
<glyph name="sixinferior" format="2">
  <advance width="417"/>
  <unicode hex="2086"/>
  <anchor x="201" y="177" name="_center"/>
  <outline>
    <contour>
      <point x="179" y="-46" type="curve" smooth="yes"/>
      <point x="268" y="-46"/>
      <point x="327" y="21"/>
      <point x="327" y="106" type="curve" smooth="yes"/>
      <point x="327" y="182"/>
      <point x="274" y="232"/>
      <point x="204" y="232" type="curve" smooth="yes"/>
      <point x="148" y="232"/>
      <point x="100" y="206"/>
      <point x="78" y="155" type="curve"/>
      <point x="75" y="155" type="line"/>
      <point x="86" y="291"/>
      <point x="145" y="367"/>
      <point x="232" y="367" type="curve" smooth="yes"/>
      <point x="281" y="367"/>
      <point x="320" y="342"/>
      <point x="326" y="292" type="curve"/>
      <point x="360" y="292" type="line"/>
      <point x="353" y="355"/>
      <point x="306" y="397"/>
      <point x="233" y="397" type="curve" smooth="yes"/>
      <point x="115" y="397"/>
      <point x="42" y="289"/>
      <point x="42" y="120" type="curve" smooth="yes"/>
      <point x="42" y="12"/>
      <point x="89" y="-46"/>
    </contour>
    <contour>
      <point x="176" y="-16" type="curve" smooth="yes"/>
      <point x="117" y="-16"/>
      <point x="81" y="25"/>
      <point x="81" y="88" type="curve" smooth="yes"/>
      <point x="81" y="155"/>
      <point x="129" y="204"/>
      <point x="196" y="204" type="curve" smooth="yes"/>
      <point x="253" y="204"/>
      <point x="292" y="165"/>
      <point x="292" y="106" type="curve" smooth="yes"/>
      <point x="292" y="34"/>
      <point x="245" y="-16"/>
    </contour>
  </outline>
</glyph>
<glyph name="seveninferior" format="2">
  <advance width="347"/>
  <unicode hex="2087"/>
  <anchor x="195" y="177" name="_center"/>
  <outline>
    <contour>
      <point x="72" y="-40" type="curve"/>
      <point x="110" y="-40" type="line"/>
      <point x="156" y="102"/>
      <point x="227" y="232"/>
      <point x="340" y="362" type="curve"/>
      <point x="347" y="393" type="line"/>
      <point x="68" y="393" type="line"/>
      <point x="42" y="268" type="line"/>
      <point x="71" y="268" type="line"/>
      <point x="91" y="362" type="line"/>
      <point x="304" y="362" type="line"/>
      <point x="207" y="252"/>
      <point x="126" y="125"/>
    </contour>
  </outline>
</glyph>
<glyph name="eightinferior" format="2">
  <advance width="411"/>
  <unicode hex="2088"/>
  <anchor x="183" y="177" name="_center"/>
  <outline>
    <contour>
      <point x="157" y="-46" type="curve" smooth="yes"/>
      <point x="249" y="-46"/>
      <point x="314" y="6"/>
      <point x="314" y="82" type="curve" smooth="yes"/>
      <point x="314" y="128"/>
      <point x="282" y="166"/>
      <point x="239" y="176" type="curve"/>
      <point x="239" y="178" type="line"/>
      <point x="302" y="186"/>
      <point x="345" y="232"/>
      <point x="345" y="291" type="curve" smooth="yes"/>
      <point x="345" y="356"/>
      <point x="292" y="397"/>
      <point x="218" y="397" type="curve" smooth="yes"/>
      <point x="134" y="397"/>
      <point x="76" y="347"/>
      <point x="76" y="273" type="curve" smooth="yes"/>
      <point x="76" y="231"/>
      <point x="104" y="197"/>
      <point x="142" y="186" type="curve"/>
      <point x="142" y="183" type="line"/>
      <point x="77" y="177"/>
      <point x="21" y="130"/>
      <point x="21" y="61" type="curve" smooth="yes"/>
      <point x="21" y="-2"/>
      <point x="71" y="-46"/>
    </contour>
    <contour>
      <point x="161" y="-16" type="curve" smooth="yes"/>
      <point x="98" y="-16"/>
      <point x="57" y="15"/>
      <point x="57" y="67" type="curve" smooth="yes"/>
      <point x="57" y="126"/>
      <point x="104" y="167"/>
      <point x="173" y="167" type="curve" smooth="yes"/>
      <point x="240" y="167"/>
      <point x="277" y="137"/>
      <point x="277" y="85" type="curve" smooth="yes"/>
      <point x="277" y="23"/>
      <point x="228" y="-16"/>
    </contour>
    <contour>
      <point x="202" y="196" type="curve" smooth="yes"/>
      <point x="146" y="196"/>
      <point x="110" y="226"/>
      <point x="110" y="270" type="curve" smooth="yes"/>
      <point x="110" y="329"/>
      <point x="149" y="368"/>
      <point x="218" y="368" type="curve" smooth="yes"/>
      <point x="274" y="368"/>
      <point x="311" y="336"/>
      <point x="311" y="288" type="curve" smooth="yes"/>
      <point x="311" y="233"/>
      <point x="267" y="196"/>
    </contour>
  </outline>
</glyph>
<glyph name="peseta" format="2">
  <advance width="1435"/>
  <unicode hex="20A7"/>
  <outline>
    <contour>
      <point x="57" y="0" type="line"/>
      <point x="94" y="0" type="line"/>
      <point x="240" y="702" type="line"/>
      <point x="227" y="692" type="line"/>
      <point x="437" y="692" type="line" smooth="yes"/>
      <point x="530" y="692"/>
      <point x="588" y="642"/>
      <point x="585" y="534" type="curve" smooth="yes"/>
      <point x="580" y="403"/>
      <point x="501" y="325"/>
      <point x="360" y="325" type="curve" smooth="yes"/>
      <point x="153" y="325" type="line"/>
      <point x="146" y="290" type="line"/>
      <point x="355" y="290" type="line" smooth="yes"/>
      <point x="516" y="290"/>
      <point x="619" y="384"/>
      <point x="624" y="536" type="curve" smooth="yes"/>
      <point x="628" y="649"/>
      <point x="569" y="729"/>
      <point x="450" y="729" type="curve" smooth="yes"/>
      <point x="208" y="729" type="line"/>
    </contour>
    <contour>
      <point x="789" y="0" type="curve" smooth="yes"/>
      <point x="851" y="0" type="line"/>
      <point x="858" y="34" type="line"/>
      <point x="800" y="34" type="line" smooth="yes"/>
      <point x="758" y="34"/>
      <point x="732" y="46"/>
      <point x="742" y="95" type="curve" smooth="yes"/>
      <point x="823" y="485" type="line"/>
      <point x="953" y="485" type="line"/>
      <point x="959" y="517" type="line"/>
      <point x="829" y="517" type="line"/>
      <point x="866" y="690" type="line"/>
      <point x="828" y="681" type="line"/>
      <point x="794" y="517" type="line"/>
      <point x="688" y="517" type="line"/>
      <point x="682" y="485" type="line"/>
      <point x="787" y="485" type="line"/>
      <point x="707" y="101" type="line" smooth="yes"/>
      <point x="691" y="25"/>
      <point x="732" y="0"/>
    </contour>
    <contour>
      <point x="1150" y="-10" type="curve" smooth="yes"/>
      <point x="1267" y="-10"/>
      <point x="1341" y="43"/>
      <point x="1344" y="136" type="curve" smooth="yes"/>
      <point x="1347" y="221"/>
      <point x="1298" y="259"/>
      <point x="1195" y="282" type="curve" smooth="yes"/>
      <point x="1093" y="305"/>
      <point x="1058" y="329"/>
      <point x="1060" y="392" type="curve" smooth="yes"/>
      <point x="1062" y="455"/>
      <point x="1114" y="494"/>
      <point x="1194" y="494" type="curve" smooth="yes"/>
      <point x="1288" y="494"/>
      <point x="1347" y="448"/>
      <point x="1342" y="373" type="curve"/>
      <point x="1379" y="373" type="line"/>
      <point x="1382" y="465"/>
      <point x="1310" y="527"/>
      <point x="1197" y="527" type="curve" smooth="yes"/>
      <point x="1094" y="527"/>
      <point x="1027" y="473"/>
      <point x="1024" y="388" type="curve" smooth="yes"/>
      <point x="1022" y="323"/>
      <point x="1056" y="279"/>
      <point x="1180" y="250" type="curve" smooth="yes"/>
      <point x="1269" y="229"/>
      <point x="1309" y="205"/>
      <point x="1306" y="133" type="curve" smooth="yes"/>
      <point x="1304" y="67"/>
      <point x="1257" y="23"/>
      <point x="1149" y="23" type="curve" smooth="yes"/>
      <point x="1055" y="23"/>
      <point x="991" y="74"/>
      <point x="997" y="161" type="curve"/>
      <point x="962" y="161" type="line"/>
      <point x="956" y="58"/>
      <point x="1025" y="-10"/>
    </contour>
  </outline>
</glyph>
<glyph name="won" format="2">
  <advance width="928"/>
  <unicode hex="20A9"/>
  <outline>
    <contour>
      <point x="201" y="0" type="line"/>
      <point x="256" y="0" type="line"/>
      <point x="464" y="493" type="line"/>
      <point x="548" y="692" type="line"/>
      <point x="553" y="692" type="line"/>
      <point x="554" y="493" type="line"/>
      <point x="558" y="0" type="line"/>
      <point x="612" y="0" type="line"/>
      <point x="943" y="729" type="line"/>
      <point x="902" y="729" type="line"/>
      <point x="659" y="187" type="line"/>
      <point x="594" y="42" type="line"/>
      <point x="589" y="42" type="line"/>
      <point x="588" y="194" type="line"/>
      <point x="585" y="729" type="line"/>
      <point x="528" y="729" type="line"/>
      <point x="295" y="177" type="line"/>
      <point x="239" y="43" type="line"/>
      <point x="234" y="43" type="line"/>
      <point x="230" y="172" type="line"/>
      <point x="212" y="729" type="line"/>
      <point x="176" y="729" type="line"/>
    </contour>
    <contour>
      <point x="73" y="350" type="line"/>
      <point x="892" y="350" type="line"/>
      <point x="900" y="380" type="line"/>
      <point x="81" y="380" type="line"/>
    </contour>
  </outline>
</glyph>
<glyph name="sheqel" format="2">
  <advance width="796"/>
  <unicode hex="20AA"/>
  <outline>
    <contour>
      <point x="234" y="0" type="line"/>
      <point x="566" y="0" type="line" smooth="yes"/>
      <point x="610" y="0"/>
      <point x="636" y="18"/>
      <point x="646" y="67" type="curve" smooth="yes"/>
      <point x="783" y="729" type="line"/>
      <point x="742" y="729" type="line"/>
      <point x="599" y="37" type="line"/>
      <point x="280" y="37" type="line"/>
      <point x="391" y="571" type="line"/>
      <point x="352" y="571" type="line"/>
    </contour>
    <contour>
      <point x="57" y="0" type="line"/>
      <point x="96" y="0" type="line"/>
      <point x="239" y="692" type="line"/>
      <point x="558" y="692" type="line"/>
      <point x="447" y="159" type="line"/>
      <point x="488" y="159" type="line"/>
      <point x="593" y="663" type="line" smooth="yes"/>
      <point x="603" y="712"/>
      <point x="584" y="729"/>
      <point x="540" y="729" type="curve" smooth="yes"/>
      <point x="207" y="729" type="line"/>
    </contour>
  </outline>
</glyph>
<glyph name="euro" format="2">
  <advance width="841"/>
  <unicode hex="20AC"/>
  <outline>
    <contour>
      <point x="437" y="-10" type="curve" smooth="yes"/>
      <point x="598" y="-10"/>
      <point x="738" y="84"/>
      <point x="775" y="237" type="curve"/>
      <point x="737" y="237" type="line"/>
      <point x="702" y="112"/>
      <point x="590" y="27"/>
      <point x="442" y="27" type="curve" smooth="yes"/>
      <point x="290" y="27"/>
      <point x="192" y="127"/>
      <point x="198" y="309" type="curve" smooth="yes"/>
      <point x="206" y="547"/>
      <point x="341" y="703"/>
      <point x="541" y="703" type="curve" smooth="yes"/>
      <point x="683" y="703"/>
      <point x="777" y="615"/>
      <point x="781" y="493" type="curve"/>
      <point x="816" y="493" type="line"/>
      <point x="815" y="638"/>
      <point x="706" y="739"/>
      <point x="549" y="739" type="curve" smooth="yes"/>
      <point x="324" y="739"/>
      <point x="167" y="566"/>
      <point x="158" y="309" type="curve" smooth="yes"/>
      <point x="152" y="118"/>
      <point x="262" y="-10"/>
    </contour>
    <contour>
      <point x="57" y="260" type="line"/>
      <point x="514" y="260" type="line"/>
      <point x="526" y="294" type="line"/>
      <point x="64" y="294" type="line"/>
    </contour>
    <contour>
      <point x="98" y="435" type="line"/>
      <point x="584" y="435" type="line"/>
      <point x="596" y="469" type="line"/>
      <point x="105" y="469" type="line"/>
    </contour>
  </outline>
</glyph>
<glyph name="tenge" format="2">
  <advance width="598"/>
  <unicode hex="20B8"/>
  <outline>
    <contour>
      <point x="336" y="527" type="line"/>
      <point x="227" y="0" type="line"/>
      <point x="265" y="0" type="line"/>
      <point x="374" y="527" type="line"/>
    </contour>
    <contour>
      <point x="597" y="517" type="line"/>
      <point x="604" y="553" type="line"/>
      <point x="116" y="553" type="line"/>
      <point x="109" y="517" type="line"/>
    </contour>
    <contour>
      <point x="633" y="693" type="line"/>
      <point x="640" y="729" type="line"/>
      <point x="152" y="729" type="line"/>
      <point x="145" y="693" type="line"/>
    </contour>
  </outline>
</glyph>
<glyph name="rupeeIndian" format="2">
  <advance width="682"/>
  <unicode hex="20B9"/>
  <outline>
    <contour>
      <point x="438" y="0" type="line"/>
      <point x="477" y="0" type="line"/>
      <point x="474" y="185" type="line" smooth="yes"/>
      <point x="473" y="271"/>
      <point x="453" y="313"/>
      <point x="397" y="334" type="curve"/>
      <point x="398" y="340" type="line"/>
      <point x="498" y="355"/>
      <point x="575" y="416"/>
      <point x="592" y="507" type="curve"/>
      <point x="678" y="507" type="line"/>
      <point x="686" y="541" type="line"/>
      <point x="597" y="541" type="line"/>
      <point x="599" y="611"/>
      <point x="568" y="668"/>
      <point x="524" y="691" type="curve"/>
      <point x="525" y="694" type="line"/>
      <point x="717" y="694" type="line"/>
      <point x="724" y="729" type="line"/>
      <point x="164" y="729" type="line"/>
      <point x="158" y="694" type="line"/>
      <point x="404" y="694" type="line" smooth="yes"/>
      <point x="502" y="694"/>
      <point x="564" y="649"/>
      <point x="558" y="542" type="curve"/>
      <point x="126" y="542" type="line"/>
      <point x="116" y="507" type="line"/>
      <point x="552" y="507" type="line"/>
      <point x="535" y="420"/>
      <point x="454" y="360"/>
      <point x="343" y="360" type="curve" smooth="yes"/>
      <point x="86" y="360" type="line"/>
      <point x="78" y="323" type="line"/>
      <point x="302" y="323" type="line" smooth="yes"/>
      <point x="405" y="323"/>
      <point x="436" y="293"/>
      <point x="437" y="184" type="curve" smooth="yes"/>
    </contour>
  </outline>
</glyph>
<glyph name="liraTurkish" format="2">
  <advance width="628"/>
  <unicode hex="20BA"/>
  <outline>
    <contour>
      <point x="106" y="0" type="line"/>
      <point x="145" y="0" type="line" smooth="yes"/>
      <point x="356" y="0"/>
      <point x="515" y="105"/>
      <point x="586" y="317" type="curve"/>
      <point x="545" y="317" type="line"/>
      <point x="487" y="146"/>
      <point x="359" y="36"/>
      <point x="151" y="36" type="curve"/>
      <point x="296" y="729" type="line"/>
      <point x="259" y="729" type="line"/>
    </contour>
    <contour>
      <point x="65" y="286" type="line"/>
      <point x="467" y="436" type="line"/>
      <point x="474" y="471" type="line"/>
      <point x="72" y="321" type="line"/>
    </contour>
    <contour>
      <point x="98" y="445" type="line"/>
      <point x="500" y="595" type="line"/>
      <point x="508" y="630" type="line"/>
      <point x="105" y="479" type="line"/>
    </contour>
  </outline>
</glyph>
<glyph name="literSign" format="2">
  <advance width="478"/>
  <unicode hex="2113"/>
  <outline>
    <contour>
      <point x="234" y="-10" type="curve" smooth="yes"/>
      <point x="288" y="-10"/>
      <point x="340" y="16"/>
      <point x="381" y="88" type="curve"/>
      <point x="353" y="103" type="line"/>
      <point x="325" y="56"/>
      <point x="292" y="23"/>
      <point x="238" y="23" type="curve" smooth="yes"/>
      <point x="182" y="23"/>
      <point x="145" y="65"/>
      <point x="145" y="183" type="curve" smooth="yes"/>
      <point x="145" y="366"/>
      <point x="219" y="701"/>
      <point x="359" y="701" type="curve" smooth="yes"/>
      <point x="423" y="701"/>
      <point x="428" y="628"/>
      <point x="413" y="547" type="curve" smooth="yes"/>
      <point x="375" y="352"/>
      <point x="223" y="197"/>
      <point x="33" y="159" type="curve"/>
      <point x="27" y="128" type="line"/>
      <point x="236" y="166"/>
      <point x="406" y="338"/>
      <point x="446" y="545" type="curve" smooth="yes"/>
      <point x="468" y="659"/>
      <point x="438" y="735"/>
      <point x="359" y="735" type="curve" smooth="yes"/>
      <point x="197" y="735"/>
      <point x="113" y="393"/>
      <point x="113" y="178" type="curve" smooth="yes"/>
      <point x="113" y="65"/>
      <point x="152" y="-10"/>
    </contour>
  </outline>
</glyph>
<glyph name="numero" format="2">
  <advance width="1123"/>
  <unicode hex="2116"/>
  <outline>
    <contour>
      <point x="57" y="0" type="line"/>
      <point x="94" y="0" type="line"/>
      <point x="185" y="436" type="line"/>
      <point x="235" y="686" type="line"/>
      <point x="239" y="686" type="line"/>
      <point x="565" y="0" type="line"/>
      <point x="618" y="0" type="line"/>
      <point x="769" y="729" type="line"/>
      <point x="732" y="729" type="line"/>
      <point x="643" y="303" type="line"/>
      <point x="593" y="43" type="line"/>
      <point x="588" y="43" type="line"/>
      <point x="260" y="729" type="line"/>
      <point x="208" y="729" type="line"/>
    </contour>
    <contour>
      <point x="791" y="231" type="line"/>
      <point x="1023" y="231" type="line"/>
      <point x="1029" y="263" type="line"/>
      <point x="797" y="263" type="line"/>
    </contour>
    <contour>
      <point x="934" y="334" type="curve" smooth="yes"/>
      <point x="1039" y="334"/>
      <point x="1110" y="435"/>
      <point x="1116" y="590" type="curve" smooth="yes"/>
      <point x="1119" y="681"/>
      <point x="1072" y="739"/>
      <point x="995" y="739" type="curve" smooth="yes"/>
      <point x="890" y="739"/>
      <point x="819" y="638"/>
      <point x="813" y="483" type="curve" smooth="yes"/>
      <point x="810" y="392"/>
      <point x="857" y="334"/>
    </contour>
    <contour>
      <point x="934" y="364" type="curve" smooth="yes"/>
      <point x="879" y="364"/>
      <point x="846" y="408"/>
      <point x="849" y="481" type="curve" smooth="yes"/>
      <point x="855" y="620"/>
      <point x="913" y="709"/>
      <point x="995" y="709" type="curve" smooth="yes"/>
      <point x="1050" y="709"/>
      <point x="1083" y="665"/>
      <point x="1080" y="592" type="curve" smooth="yes"/>
      <point x="1074" y="453"/>
      <point x="1016" y="364"/>
    </contour>
  </outline>
</glyph>
<glyph name="trademark" format="2">
  <advance width="807"/>
  <unicode hex="2122"/>
  <outline>
    <contour>
      <point x="390" y="419" type="line"/>
      <point x="422" y="419" type="line"/>
      <point x="453" y="569" type="line"/>
      <point x="477" y="686" type="line"/>
      <point x="479" y="686" type="line"/>
      <point x="545" y="419" type="line"/>
      <point x="573" y="419" type="line"/>
      <point x="750" y="686" type="line"/>
      <point x="753" y="686" type="line"/>
      <point x="725" y="569" type="line"/>
      <point x="694" y="419" type="line"/>
      <point x="729" y="419" type="line"/>
      <point x="793" y="729" type="line"/>
      <point x="747" y="729" type="line"/>
      <point x="568" y="459" type="line"/>
      <point x="565" y="459" type="line"/>
      <point x="498" y="729" type="line"/>
      <point x="455" y="729" type="line"/>
    </contour>
    <contour>
      <point x="195" y="419" type="line"/>
      <point x="228" y="419" type="line"/>
      <point x="286" y="699" type="line"/>
      <point x="399" y="699" type="line"/>
      <point x="405" y="729" type="line"/>
      <point x="151" y="729" type="line"/>
      <point x="145" y="699" type="line"/>
      <point x="254" y="699" type="line"/>
    </contour>
  </outline>
</glyph>
<glyph name="leftArrow" format="2">
  <advance width="748"/>
  <unicode hex="2190"/>
  <outline>
    <contour>
      <point x="652" y="383" type="line"/>
      <point x="169" y="383" type="line"/>
      <point x="291" y="548" type="line"/>
      <point x="249" y="548" type="line"/>
      <point x="113" y="365" type="line"/>
      <point x="249" y="182" type="line"/>
      <point x="291" y="182" type="line"/>
      <point x="169" y="347" type="line"/>
      <point x="652" y="347" type="line"/>
    </contour>
  </outline>
</glyph>
<glyph name="upArrow" format="2">
  <advance width="521"/>
  <unicode hex="2191"/>
  <outline>
    <contour>
      <point x="277" y="95" type="line"/>
      <point x="313" y="95" type="line"/>
      <point x="313" y="578" type="line"/>
      <point x="478" y="456" type="line"/>
      <point x="478" y="498" type="line"/>
      <point x="295" y="634" type="line"/>
      <point x="112" y="498" type="line"/>
      <point x="112" y="456" type="line"/>
      <point x="277" y="578" type="line"/>
    </contour>
  </outline>
</glyph>
<glyph name="rightArrow" format="2">
  <advance width="749"/>
  <unicode hex="2192"/>
  <outline>
    <contour>
      <point x="122" y="383" type="line"/>
      <point x="122" y="347" type="line"/>
      <point x="605" y="347" type="line"/>
      <point x="483" y="182" type="line"/>
      <point x="525" y="182" type="line"/>
      <point x="661" y="365" type="line"/>
      <point x="525" y="548" type="line"/>
      <point x="483" y="548" type="line"/>
      <point x="605" y="383" type="line"/>
    </contour>
  </outline>
</glyph>
<glyph name="downArrow" format="2">
  <advance width="500"/>
  <unicode hex="2193"/>
  <outline>
    <contour>
      <point x="230" y="634" type="line"/>
      <point x="230" y="151" type="line"/>
      <point x="65" y="273" type="line"/>
      <point x="65" y="231" type="line"/>
      <point x="248" y="95" type="line"/>
      <point x="431" y="231" type="line"/>
      <point x="431" y="273" type="line"/>
      <point x="266" y="151" type="line"/>
      <point x="266" y="634" type="line"/>
    </contour>
  </outline>
</glyph>
<glyph name="leftRightArrow" format="2">
  <advance width="729"/>
  <unicode hex="2194"/>
  <outline>
    <contour>
      <point x="177" y="182" type="line"/>
      <point x="219" y="182" type="line"/>
      <point x="97" y="347" type="line"/>
      <point x="654" y="347" type="line"/>
      <point x="532" y="182" type="line"/>
      <point x="574" y="182" type="line"/>
      <point x="710" y="365" type="line"/>
      <point x="574" y="548" type="line"/>
      <point x="532" y="548" type="line"/>
      <point x="654" y="383" type="line"/>
      <point x="97" y="383" type="line"/>
      <point x="219" y="548" type="line"/>
      <point x="177" y="548" type="line"/>
      <point x="41" y="365" type="line"/>
    </contour>
  </outline>
</glyph>
<glyph name="emptyset" format="2">
  <advance width="839"/>
  <unicode hex="2205"/>
  <outline>
    <contour>
      <point x="442" y="-10" type="curve" smooth="yes"/>
      <point x="643" y="-10"/>
      <point x="810" y="145"/>
      <point x="810" y="366" type="curve" smooth="yes"/>
      <point x="810" y="584"/>
      <point x="643" y="739"/>
      <point x="442" y="739" type="curve" smooth="yes"/>
      <point x="239" y="739"/>
      <point x="73" y="584"/>
      <point x="73" y="366" type="curve" smooth="yes"/>
      <point x="73" y="145"/>
      <point x="239" y="-10"/>
    </contour>
    <contour>
      <point x="442" y="19" type="curve" smooth="yes"/>
      <point x="325" y="19"/>
      <point x="220" y="80"/>
      <point x="159" y="176" type="curve"/>
      <point x="739" y="529" type="line"/>
      <point x="763" y="481"/>
      <point x="777" y="426"/>
      <point x="777" y="366" type="curve" smooth="yes"/>
      <point x="777" y="166"/>
      <point x="623" y="19"/>
    </contour>
    <contour>
      <point x="144" y="202" type="line"/>
      <point x="120" y="250"/>
      <point x="106" y="306"/>
      <point x="106" y="366" type="curve" smooth="yes"/>
      <point x="106" y="565"/>
      <point x="260" y="710"/>
      <point x="442" y="710" type="curve" smooth="yes"/>
      <point x="558" y="710"/>
      <point x="663" y="651"/>
      <point x="723" y="556" type="curve"/>
    </contour>
  </outline>
</glyph>
<glyph name="product" format="2">
  <advance width="727"/>
  <unicode hex="220F"/>
  <outline>
    <contour>
      <point x="-1" y="-151" type="line"/>
      <point x="36" y="-151" type="line"/>
      <point x="213" y="693" type="line"/>
      <point x="694" y="693" type="line"/>
      <point x="517" y="-151" type="line"/>
      <point x="555" y="-151" type="line"/>
      <point x="740" y="729" type="line"/>
      <point x="184" y="729" type="line"/>
    </contour>
  </outline>
</glyph>
<glyph name="summation" format="2">
  <advance width="526"/>
  <unicode hex="2211"/>
  <outline>
    <contour>
      <point x="-58" y="-151" type="line"/>
      <point x="414" y="-151" type="line"/>
      <point x="421" y="-117" type="line"/>
      <point x="121" y="-117" type="line"/>
      <point x="-5" y="-117" type="line"/>
      <point x="-4" y="-114" type="line"/>
      <point x="364" y="287" type="line"/>
      <point x="159" y="692" type="line"/>
      <point x="160" y="695" type="line"/>
      <point x="267" y="695" type="line"/>
      <point x="592" y="695" type="line"/>
      <point x="599" y="729" type="line"/>
      <point x="127" y="729" type="line"/>
      <point x="118" y="689" type="line"/>
      <point x="315" y="293" type="line"/>
      <point x="314" y="290" type="line"/>
      <point x="-50" y="-111" type="line"/>
    </contour>
  </outline>
</glyph>
<glyph name="minus" format="2">
  <advance width="600"/>
  <unicode hex="2212"/>
  <outline>
    <contour>
      <point x="81" y="345" type="line"/>
      <point x="554" y="345" type="line"/>
      <point x="561" y="377" type="line"/>
      <point x="88" y="377" type="line"/>
    </contour>
  </outline>
</glyph>
<glyph name="radical" format="2">
  <advance width="598"/>
  <unicode hex="221A"/>
  <outline>
    <contour>
      <point x="165" y="-151" type="line"/>
      <point x="204" y="-151" type="line"/>
      <point x="673" y="729" type="line"/>
      <point x="632" y="729" type="line"/>
      <point x="199" y="-90" type="line"/>
      <point x="196" y="-90" type="line"/>
      <point x="148" y="369" type="line"/>
      <point x="44" y="369" type="line"/>
      <point x="37" y="335" type="line"/>
      <point x="111" y="335" type="line"/>
    </contour>
  </outline>
</glyph>
<glyph name="infinity" format="2">
  <advance width="903"/>
  <unicode hex="221E"/>
  <outline>
    <contour>
      <point x="261" y="167" type="curve" smooth="yes"/>
      <point x="363" y="167"/>
      <point x="423" y="248"/>
      <point x="475" y="337" type="curve"/>
      <point x="530" y="242"/>
      <point x="588" y="167"/>
      <point x="691" y="167" type="curve" smooth="yes"/>
      <point x="803" y="167"/>
      <point x="867" y="262"/>
      <point x="867" y="364" type="curve" smooth="yes"/>
      <point x="867" y="469"/>
      <point x="803" y="563"/>
      <point x="691" y="563" type="curve" smooth="yes"/>
      <point x="585" y="563"/>
      <point x="527" y="481"/>
      <point x="475" y="394" type="curve"/>
      <point x="423" y="481"/>
      <point x="365" y="563"/>
      <point x="260" y="563" type="curve" smooth="yes"/>
      <point x="148" y="563"/>
      <point x="81" y="471"/>
      <point x="81" y="364" type="curve" smooth="yes"/>
      <point x="81" y="253"/>
      <point x="148" y="167"/>
    </contour>
    <contour>
      <point x="260" y="202" type="curve" smooth="yes"/>
      <point x="175" y="202"/>
      <point x="117" y="266"/>
      <point x="117" y="364" type="curve" smooth="yes"/>
      <point x="117" y="458"/>
      <point x="174" y="527"/>
      <point x="259" y="527" type="curve" smooth="yes"/>
      <point x="337" y="527"/>
      <point x="385" y="473"/>
      <point x="453" y="365" type="curve"/>
      <point x="385" y="253"/>
      <point x="333" y="202"/>
    </contour>
    <contour>
      <point x="690" y="202" type="curve" smooth="yes"/>
      <point x="611" y="202"/>
      <point x="565" y="256"/>
      <point x="496" y="365" type="curve"/>
      <point x="564" y="472"/>
      <point x="611" y="527"/>
      <point x="690" y="527" type="curve" smooth="yes"/>
      <point x="775" y="527"/>
      <point x="833" y="457"/>
      <point x="833" y="364" type="curve" smooth="yes"/>
      <point x="833" y="273"/>
      <point x="775" y="202"/>
    </contour>
  </outline>
</glyph>
<glyph name="integral" format="2">
  <advance width="370"/>
  <unicode hex="222B"/>
  <outline>
    <contour>
      <point x="-67" y="-151" type="line"/>
      <point x="69" y="-151" type="line" smooth="yes"/>
      <point x="109" y="-151"/>
      <point x="122" y="-126"/>
      <point x="128" y="-99" type="curve" smooth="yes"/>
      <point x="294" y="693" type="line"/>
      <point x="441" y="693" type="line"/>
      <point x="449" y="729" type="line"/>
      <point x="312" y="729" type="line" smooth="yes"/>
      <point x="281" y="729"/>
      <point x="259" y="707"/>
      <point x="252" y="674" type="curve" smooth="yes"/>
      <point x="87" y="-116" type="line"/>
      <point x="-59" y="-116" type="line"/>
    </contour>
  </outline>
</glyph>
<glyph name="approxequal" format="2">
  <advance width="600"/>
  <unicode hex="2248"/>
  <outline>
    <contour>
      <point x="366" y="215" type="curve" smooth="yes"/>
      <point x="415" y="215"/>
      <point x="460" y="243"/>
      <point x="471" y="321" type="curve"/>
      <point x="442" y="321" type="line"/>
      <point x="434" y="278"/>
      <point x="410" y="257"/>
      <point x="376" y="257" type="curve" smooth="yes"/>
      <point x="325" y="257"/>
      <point x="277" y="305"/>
      <point x="224" y="305" type="curve" smooth="yes"/>
      <point x="181" y="305"/>
      <point x="140" y="277"/>
      <point x="130" y="201" type="curve"/>
      <point x="159" y="201" type="line"/>
      <point x="164" y="240"/>
      <point x="187" y="263"/>
      <point x="215" y="263" type="curve" smooth="yes"/>
      <point x="257" y="263"/>
      <point x="309" y="215"/>
    </contour>
    <contour>
      <point x="409" y="418" type="curve" smooth="yes"/>
      <point x="467" y="418"/>
      <point x="503" y="452"/>
      <point x="513" y="520" type="curve"/>
      <point x="483" y="520" type="line"/>
      <point x="476" y="478"/>
      <point x="451" y="456"/>
      <point x="418" y="456" type="curve" smooth="yes"/>
      <point x="366" y="456"/>
      <point x="318" y="504"/>
      <point x="265" y="504" type="curve" smooth="yes"/>
      <point x="223" y="504"/>
      <point x="183" y="477"/>
      <point x="171" y="402" type="curve"/>
      <point x="201" y="402" type="line"/>
      <point x="205" y="441"/>
      <point x="228" y="462"/>
      <point x="257" y="462" type="curve" smooth="yes"/>
      <point x="298" y="462"/>
      <point x="351" y="418"/>
    </contour>
  </outline>
</glyph>
<glyph name="notequal" format="2">
  <advance width="600"/>
  <unicode hex="2260"/>
  <outline>
    <contour>
      <point x="125" y="101" type="line"/>
      <point x="165" y="101" type="line"/>
      <point x="517" y="629" type="line"/>
      <point x="478" y="629" type="line"/>
    </contour>
    <contour>
      <point x="57" y="235" type="line"/>
      <point x="531" y="235" type="line"/>
      <point x="538" y="267" type="line"/>
      <point x="65" y="267" type="line"/>
    </contour>
    <contour>
      <point x="104" y="455" type="line"/>
      <point x="577" y="455" type="line"/>
      <point x="583" y="487" type="line"/>
      <point x="110" y="487" type="line"/>
    </contour>
  </outline>
</glyph>
<glyph name="lessequal" format="2">
  <advance width="600"/>
  <unicode hex="2264"/>
  <outline>
    <contour>
      <point x="509" y="132" type="line"/>
      <point x="516" y="166" type="line"/>
      <point x="112" y="357" type="line"/>
      <point x="113" y="361" type="line"/>
      <point x="597" y="550" type="line"/>
      <point x="604" y="588" type="line"/>
      <point x="85" y="384" type="line"/>
      <point x="75" y="339" type="line"/>
    </contour>
    <contour>
      <point x="4" y="0" type="line"/>
      <point x="480" y="0" type="line"/>
      <point x="487" y="32" type="line"/>
      <point x="11" y="32" type="line"/>
    </contour>
  </outline>
</glyph>
<glyph name="greaterequal" format="2">
  <advance width="600"/>
  <unicode hex="2265"/>
  <outline>
    <contour>
      <point x="39" y="133" type="line"/>
      <point x="558" y="337" type="line"/>
      <point x="568" y="382" type="line"/>
      <point x="134" y="589" type="line"/>
      <point x="127" y="555" type="line"/>
      <point x="531" y="364" type="line"/>
      <point x="530" y="360" type="line"/>
      <point x="46" y="171" type="line"/>
    </contour>
    <contour>
      <point x="12" y="0" type="line"/>
      <point x="488" y="0" type="line"/>
      <point x="495" y="32" type="line"/>
      <point x="19" y="32" type="line"/>
    </contour>
  </outline>
</glyph>
<glyph name="blackCircle" format="2">
  <advance width="891"/>
  <unicode hex="25CF"/>
  <anchor x="467.5" y="363" name="center"/>
  <outline>
    <contour>
      <point x="467" y="-10" type="curve" smooth="yes"/>
      <point x="243" y="-10"/>
      <point x="92" y="140"/>
      <point x="92" y="363" type="curve" smooth="yes"/>
      <point x="92" y="587"/>
      <point x="243" y="736"/>
      <point x="467" y="736" type="curve" smooth="yes"/>
      <point x="692" y="736"/>
      <point x="843" y="587"/>
      <point x="843" y="363" type="curve" smooth="yes"/>
      <point x="843" y="140"/>
      <point x="692" y="-10"/>
    </contour>
  </outline>
</glyph>
<glyph name="whiteFrowningFace" format="2">
  <advance width="888"/>
  <unicode hex="2639"/>
  <outline>
    <contour>
      <point x="467" y="-10" type="curve" smooth="yes"/>
      <point x="684" y="-10"/>
      <point x="841" y="140"/>
      <point x="841" y="366" type="curve" smooth="yes"/>
      <point x="841" y="590"/>
      <point x="684" y="739"/>
      <point x="467" y="739" type="curve" smooth="yes"/>
      <point x="250" y="739"/>
      <point x="92" y="590"/>
      <point x="92" y="366" type="curve" smooth="yes"/>
      <point x="92" y="140"/>
      <point x="250" y="-10"/>
    </contour>
    <contour>
      <point x="226" y="156" type="curve"/>
      <point x="259" y="156" type="line"/>
      <point x="290" y="235"/>
      <point x="369" y="285"/>
      <point x="465" y="285" type="curve" smooth="yes"/>
      <point x="564" y="285"/>
      <point x="643" y="235"/>
      <point x="672" y="156" type="curve"/>
      <point x="706" y="156" type="line"/>
      <point x="673" y="254"/>
      <point x="586" y="316"/>
      <point x="465" y="316" type="curve" smooth="yes"/>
      <point x="346" y="316"/>
      <point x="258" y="254"/>
    </contour>
    <contour>
      <point x="467" y="19" type="curve" smooth="yes"/>
      <point x="269" y="19"/>
      <point x="125" y="158"/>
      <point x="125" y="366" type="curve" smooth="yes"/>
      <point x="125" y="572"/>
      <point x="269" y="710"/>
      <point x="467" y="710" type="curve" smooth="yes"/>
      <point x="664" y="710"/>
      <point x="808" y="572"/>
      <point x="808" y="366" type="curve" smooth="yes"/>
      <point x="808" y="158"/>
      <point x="664" y="19"/>
    </contour>
    <contour>
      <point x="390" y="412" type="curve" smooth="yes"/>
      <point x="417" y="412"/>
      <point x="438" y="431"/>
      <point x="438" y="458" type="curve" smooth="yes"/>
      <point x="438" y="485"/>
      <point x="417" y="504"/>
      <point x="390" y="504" type="curve" smooth="yes"/>
      <point x="363" y="504"/>
      <point x="342" y="485"/>
      <point x="342" y="458" type="curve" smooth="yes"/>
      <point x="342" y="431"/>
      <point x="363" y="412"/>
    </contour>
    <contour>
      <point x="544" y="412" type="curve" smooth="yes"/>
      <point x="571" y="412"/>
      <point x="592" y="431"/>
      <point x="592" y="458" type="curve" smooth="yes"/>
      <point x="592" y="485"/>
      <point x="571" y="504"/>
      <point x="544" y="504" type="curve" smooth="yes"/>
      <point x="517" y="504"/>
      <point x="496" y="485"/>
      <point x="496" y="458" type="curve" smooth="yes"/>
      <point x="496" y="431"/>
      <point x="517" y="412"/>
    </contour>
  </outline>
</glyph>
<glyph name="checkmark" format="2">
  <advance width="886"/>
  <unicode hex="2713"/>
  <outline>
    <contour>
      <point x="307" y="137" type="line"/>
      <point x="822" y="560" type="line"/>
      <point x="801" y="587" type="line"/>
      <point x="313" y="187" type="line"/>
      <point x="158" y="412" type="line"/>
      <point x="131" y="389" type="line"/>
    </contour>
  </outline>
</glyph>
<glyph name="fi" format="2">
  <advance width="497"/>
  <unicode hex="FB01"/>
  <outline>
    <contour>
      <point x="69" y="0" type="line"/>
      <point x="106" y="0" type="line"/>
      <point x="207" y="485" type="line"/>
      <point x="423" y="485" type="line"/>
      <point x="322" y="0" type="line"/>
      <point x="357" y="0" type="line"/>
      <point x="466" y="517" type="line"/>
      <point x="214" y="517" type="line"/>
      <point x="239" y="636" type="line" smooth="yes"/>
      <point x="247" y="674"/>
      <point x="272" y="696"/>
      <point x="314" y="696" type="curve" smooth="yes"/>
      <point x="385" y="696" type="line"/>
      <point x="392" y="729" type="line"/>
      <point x="314" y="729" type="line" smooth="yes"/>
      <point x="259" y="729"/>
      <point x="217" y="701"/>
      <point x="204" y="642" type="curve" smooth="yes"/>
      <point x="177" y="517" type="line"/>
      <point x="76" y="517" type="line"/>
      <point x="69" y="485" type="line"/>
      <point x="171" y="485" type="line"/>
    </contour>
    <contour>
      <point x="475" y="625" type="curve" smooth="yes"/>
      <point x="495" y="625"/>
      <point x="508" y="639"/>
      <point x="508" y="658" type="curve" smooth="yes"/>
      <point x="508" y="676"/>
      <point x="495" y="687"/>
      <point x="479" y="687" type="curve" smooth="yes"/>
      <point x="459" y="687"/>
      <point x="446" y="673"/>
      <point x="446" y="654" type="curve" smooth="yes"/>
      <point x="446" y="636"/>
      <point x="459" y="625"/>
    </contour>
  </outline>
</glyph>
<glyph name="G.ss06" format="2">
  <advance width="765"/>
  <anchor x="356" y="0" name="bottom"/>
  <anchor x="464" y="729" name="top"/>
  <outline>
    <contour>
      <point x="354" y="-10" type="curve" smooth="yes"/>
      <point x="549" y="-10"/>
      <point x="680" y="92"/>
      <point x="721" y="309" type="curve" smooth="yes"/>
      <point x="732" y="366" type="line"/>
      <point x="417" y="366" type="line"/>
      <point x="409" y="330" type="line"/>
      <point x="694" y="330" type="line"/>
      <point x="684" y="342" type="line"/>
      <point x="681" y="324" type="line" smooth="yes"/>
      <point x="649" y="138"/>
      <point x="554" y="27"/>
      <point x="359" y="27" type="curve" smooth="yes"/>
      <point x="207" y="27"/>
      <point x="109" y="127"/>
      <point x="115" y="308" type="curve" smooth="yes"/>
      <point x="123" y="547"/>
      <point x="258" y="701"/>
      <point x="458" y="701" type="curve" smooth="yes"/>
      <point x="603" y="701"/>
      <point x="693" y="612"/>
      <point x="696" y="493" type="curve"/>
      <point x="735" y="493" type="line"/>
      <point x="735" y="633"/>
      <point x="629" y="739"/>
      <point x="464" y="739" type="curve" smooth="yes"/>
      <point x="241" y="739"/>
      <point x="84" y="566"/>
      <point x="75" y="308" type="curve" smooth="yes"/>
      <point x="69" y="119"/>
      <point x="179" y="-10"/>
    </contour>
  </outline>
</glyph>
<glyph name="I.ss02" format="2">
  <advance width="475"/>
  <anchor x="184" y="0" name="bottom"/>
  <anchor x="386" y="0" name="ogonek"/>
  <anchor x="334" y="729" name="top"/>
  <anchor x="151" y="729" name="topleft"/>
  <outline>
    <contour>
      <point x="170" y="27" type="line"/>
      <point x="208" y="27" type="line"/>
      <point x="348" y="702" type="line"/>
      <point x="310" y="702" type="line"/>
    </contour>
    <contour>
      <point x="125" y="693" type="line"/>
      <point x="529" y="693" type="line"/>
      <point x="536" y="729" type="line"/>
      <point x="132" y="729" type="line"/>
    </contour>
    <contour>
      <point x="-18" y="0" type="line"/>
      <point x="386" y="0" type="line"/>
      <point x="393" y="36" type="line"/>
      <point x="-11" y="36" type="line"/>
    </contour>
  </outline>
</glyph>
<glyph name="_B.currency" format="2">
  <advance width="709"/>
  <anchor x="368" y="0" name="bottom"/>
  <outline>
    <contour>
      <point x="57" y="0" type="line"/>
      <point x="352" y="0" type="line" smooth="yes"/>
      <point x="520" y="0"/>
      <point x="619" y="79"/>
      <point x="623" y="215" type="curve" smooth="yes"/>
      <point x="626" y="291"/>
      <point x="586" y="356"/>
      <point x="516" y="371" type="curve"/>
      <point x="516" y="374" type="line"/>
      <point x="607" y="393"/>
      <point x="676" y="468"/>
      <point x="679" y="566" type="curve" smooth="yes"/>
      <point x="683" y="664"/>
      <point x="621" y="729"/>
      <point x="506" y="729" type="curve" smooth="yes"/>
      <point x="208" y="729" type="line"/>
    </contour>
    <contour>
      <point x="101" y="36" type="line"/>
      <point x="168" y="356" type="line"/>
      <point x="442" y="356" type="line" smooth="yes"/>
      <point x="537" y="356"/>
      <point x="587" y="299"/>
      <point x="584" y="216" type="curve" smooth="yes"/>
      <point x="580" y="102"/>
      <point x="498" y="36"/>
      <point x="358" y="36" type="curve" smooth="yes"/>
    </contour>
    <contour>
      <point x="177" y="391" type="line"/>
      <point x="238" y="694" type="line"/>
      <point x="496" y="694" type="line" smooth="yes"/>
      <point x="585" y="694"/>
      <point x="641" y="650"/>
      <point x="637" y="559" type="curve" smooth="yes"/>
      <point x="634" y="456"/>
      <point x="556" y="391"/>
      <point x="449" y="391" type="curve" smooth="yes"/>
    </contour>
  </outline>
</glyph>
<glyph name="_Thorn.bowl" format="2">
  <advance width="598"/>
  <anchor x="3" y="0" name="_bottom"/>
  <outline>
    <contour>
      <point x="29" y="145" type="line"/>
      <point x="292" y="145" type="line" smooth="yes"/>
      <point x="445" y="145"/>
      <point x="550" y="219"/>
      <point x="575" y="341" type="curve" smooth="yes"/>
      <point x="600" y="450"/>
      <point x="559" y="584"/>
      <point x="387" y="584" type="curve" smooth="yes"/>
      <point x="107" y="584" type="line"/>
      <point x="100" y="547" type="line"/>
      <point x="374" y="547" type="line" smooth="yes"/>
      <point x="521" y="547"/>
      <point x="558" y="449"/>
      <point x="537" y="344" type="curve" smooth="yes"/>
      <point x="516" y="244"/>
      <point x="433" y="180"/>
      <point x="297" y="180" type="curve" smooth="yes"/>
      <point x="35" y="180" type="line"/>
    </contour>
  </outline>
</glyph>
<glyph name="_bitcoin.bars" format="2">
  <advance width="252"/>
  <anchor x="174" y="0" name="_bottom"/>
  <outline>
    <contour>
      <point x="-31" y="-85" type="line"/>
      <point x="1" y="-85" type="line"/>
      <point x="23" y="22" type="line"/>
      <point x="-9" y="22" type="line"/>
    </contour>
    <contour>
      <point x="109" y="-85" type="line"/>
      <point x="141" y="-85" type="line"/>
      <point x="163" y="22" type="line"/>
      <point x="131" y="22" type="line"/>
    </contour>
    <contour>
      <point x="134" y="714" type="line"/>
      <point x="166" y="714" type="line"/>
      <point x="187" y="814" type="line"/>
      <point x="155" y="814" type="line"/>
    </contour>
    <contour>
      <point x="274" y="714" type="line"/>
      <point x="306" y="714" type="line"/>
      <point x="327" y="814" type="line"/>
      <point x="295" y="814" type="line"/>
    </contour>
  </outline>
</glyph>
<glyph name="_circle" format="2">
  <advance width="891"/>
  <outline>
    <contour>
      <point x="467" y="-10" type="curve" smooth="yes"/>
      <point x="692" y="-10"/>
      <point x="843" y="140"/>
      <point x="843" y="363" type="curve" smooth="yes"/>
      <point x="843" y="587"/>
      <point x="692" y="736"/>
      <point x="467" y="736" type="curve" smooth="yes"/>
      <point x="243" y="736"/>
      <point x="92" y="587"/>
      <point x="92" y="363" type="curve" smooth="yes"/>
      <point x="92" y="140"/>
      <point x="243" y="-10"/>
    </contour>
    <contour>
      <point x="467" y="21" type="curve" smooth="yes"/>
      <point x="264" y="21"/>
      <point x="126" y="159"/>
      <point x="126" y="363" type="curve" smooth="yes"/>
      <point x="126" y="567"/>
      <point x="264" y="706"/>
      <point x="467" y="706" type="curve" smooth="yes"/>
      <point x="671" y="706"/>
      <point x="809" y="567"/>
      <point x="809" y="363" type="curve" smooth="yes"/>
      <point x="809" y="159"/>
      <point x="671" y="21"/>
    </contour>
  </outline>
</glyph>
<glyph name="_copyright.C" format="2">
  <advance width="456"/>
  <anchor x="245" y="363" name="_center"/>
  <outline>
    <contour>
      <point x="254" y="160" type="curve" smooth="yes"/>
      <point x="350" y="160"/>
      <point x="416" y="217"/>
      <point x="424" y="300" type="curve"/>
      <point x="389" y="300" type="line"/>
      <point x="381" y="231"/>
      <point x="325" y="192"/>
      <point x="254" y="192" type="curve" smooth="yes"/>
      <point x="163" y="192"/>
      <point x="102" y="257"/>
      <point x="102" y="362" type="curve" smooth="yes"/>
      <point x="102" y="464"/>
      <point x="160" y="535"/>
      <point x="255" y="535" type="curve" smooth="yes"/>
      <point x="317" y="535"/>
      <point x="375" y="503"/>
      <point x="388" y="435" type="curve"/>
      <point x="422" y="435" type="line"/>
      <point x="413" y="513"/>
      <point x="346" y="567"/>
      <point x="257" y="567" type="curve" smooth="yes"/>
      <point x="142" y="567"/>
      <point x="67" y="484"/>
      <point x="67" y="362" type="curve" smooth="yes"/>
      <point x="67" y="241"/>
      <point x="142" y="160"/>
    </contour>
  </outline>
</glyph>
